<svg width="437" height="201" viewBox="0 0 437 201" fill="none" xmlns="http://www.w3.org/2000/svg">
<g clip-path="url(#clip0_131_1306)">
<path d="M92.8394 22.3352C92.4594 22.3352 92.0952 22.1219 91.921 21.7585C91.3747 20.6287 91.1609 19.4989 91.2718 18.4086C91.8497 12.8308 100.519 10.0498 106.853 8.01929C113.535 5.87822 120.614 4.64572 127.882 4.3613C128.42 4.3218 128.919 4.77213 128.943 5.34098C128.966 5.90192 128.523 6.37596 127.961 6.39966C120.875 6.67619 113.987 7.86918 107.479 9.95495C102.34 11.6062 93.7341 14.3635 93.2986 18.6219C93.2273 19.3409 93.3778 20.0994 93.7578 20.8894C94.0033 21.3951 93.7895 22.0034 93.2828 22.2483C93.1403 22.3194 92.9898 22.351 92.8394 22.351V22.3352Z" fill="#408F95"/>
<path d="M207.032 28.5689C207.032 28.5689 206.953 28.5689 206.913 28.5689C205.274 28.3793 203.635 28.0395 202.044 27.5497C199.93 26.9018 198.354 26.1118 197.689 25.7799L197.468 25.6693C190.255 22.1773 182.812 18.9538 175.354 16.1017C168.49 13.4787 163.059 11.4008 155.759 9.58365C148.055 7.67169 140.074 6.4945 132.046 6.09947C131.484 6.06786 131.049 5.59383 131.08 5.03288C131.112 4.47194 131.579 4.0374 132.149 4.069C140.312 4.47194 148.419 5.66493 156.258 7.61639C163.684 9.46514 169.155 11.5588 176.091 14.2055C183.604 17.0813 191.102 20.3206 198.362 23.8364L198.608 23.9549C199.289 24.2946 200.706 25.0057 202.653 25.6061C204.126 26.0565 205.638 26.3725 207.158 26.5463C207.721 26.6095 208.116 27.1152 208.053 27.6682C207.998 28.1896 207.554 28.5689 207.04 28.5689H207.032Z" fill="#408F95"/>
<path d="M111.683 40.3563C111.524 40.3563 111.366 40.3168 111.216 40.2457C109.466 39.3371 106.853 37.9466 104.375 36.4613C103.718 36.0662 102.491 35.3394 100.907 34.2728C100.424 33.9489 99.9016 33.5933 99.3632 33.1983C97.4314 31.8236 95.5629 30.3304 93.7973 28.7661C93.7498 28.7187 93.7023 28.6712 93.6627 28.6159C93.5756 28.5053 93.441 28.3394 93.2668 28.134C91.4775 25.9692 89.7911 23.7176 90.4958 22.1058C90.7174 21.5923 91.2637 20.9681 92.578 20.897C93.1481 20.8575 93.6231 21.2921 93.6548 21.853C93.6865 22.4139 93.2589 22.8959 92.6968 22.9275C92.5305 22.9354 92.4276 22.9591 92.3643 22.9749C92.3643 23.3383 92.7364 24.2943 94.8424 26.8383C95.0007 27.0279 95.1274 27.1859 95.2224 27.3044C96.9168 28.7977 98.7061 30.2198 100.551 31.5392C101.081 31.9184 101.58 32.2581 102.047 32.5821C103.583 33.617 104.779 34.3281 105.42 34.7152C107.859 36.1689 110.424 37.5437 112.15 38.4364C112.649 38.6972 112.847 39.3055 112.585 39.8111C112.403 40.1588 112.047 40.3642 111.683 40.3642V40.3563Z" fill="#408F95"/>
<path d="M152.275 46.2899C142.315 46.2899 132.751 45.168 132.632 45.1522C126.623 44.4016 120.558 43.2955 114.62 41.8655C114.074 41.7312 113.733 41.1861 113.868 40.6409C114.002 40.0958 114.549 39.7561 115.095 39.8904C120.962 41.3046 126.947 42.3949 132.877 43.1296C133.004 43.1454 146.472 44.7256 157.968 44.1093C161.53 43.9197 165.149 43.4852 168.712 42.8057C170.303 42.5055 171.166 42.2922 174.784 41.4152L179.162 40.3486C180.595 40.001 181.846 39.685 182.955 39.4084C186.264 38.5789 188.45 38.0258 190.571 37.8757C193.715 37.6545 196.921 37.9231 200.088 38.6816C200.634 38.808 200.975 39.361 200.84 39.9062C200.714 40.4513 200.167 40.791 199.613 40.6567C196.644 39.9536 193.651 39.7008 190.714 39.9062C188.766 40.0405 186.763 40.5461 183.454 41.3836C182.337 41.668 181.078 41.984 179.645 42.3317L175.267 43.3983C171.696 44.2673 170.738 44.5043 169.092 44.8125C165.442 45.4998 161.736 45.9502 158.078 46.1477C156.17 46.2504 154.215 46.2899 152.275 46.2899Z" fill="#408F95"/>
<path d="M210.238 28.64C209.803 28.64 209.399 28.3556 209.265 27.9211C209.098 27.3838 209.399 26.815 209.938 26.6491C212.313 25.9222 224.696 22.2089 234.901 20.7078C239.881 19.973 243.531 19.9019 247.505 20.455C248.804 20.6367 250.102 20.8895 251.369 21.1976C251.915 21.332 252.248 21.885 252.113 22.4301C251.979 22.9753 251.433 23.315 250.878 23.1728C249.683 22.8805 248.448 22.6435 247.213 22.4696C243.444 21.9403 239.96 22.0114 235.186 22.7146C225.131 24.1999 212.875 27.8658 210.523 28.5926C210.42 28.6242 210.325 28.64 210.223 28.64H210.238Z" fill="#408F95"/>
<path d="M239.564 65.6146C239.493 65.6146 239.422 65.6146 239.351 65.5909C234.79 64.6112 227.031 60.8426 224.197 58.2433C221.75 56.4182 219.795 54.9724 218.132 53.7399C212.376 49.4815 209.993 47.7275 202.432 41.3754C202.004 41.012 201.949 40.3721 202.305 39.9454C202.669 39.5188 203.311 39.4635 203.738 39.819C211.252 46.1237 213.619 47.8777 219.343 52.1045C221.022 53.3449 222.993 54.7986 225.463 56.6474C225.495 56.6711 225.519 56.6948 225.551 56.7185C228.1 59.0887 235.55 62.6913 239.786 63.5999C240.34 63.7184 240.689 64.2557 240.57 64.8087C240.467 65.2828 240.047 65.6146 239.572 65.6146H239.564Z" fill="#408F95"/>
<path d="M239.564 65.6149C239.295 65.6149 239.018 65.5042 238.82 65.2909C236.168 62.4704 232.763 57.7221 231.631 51.1172C231.291 49.142 230.499 44.5202 232.359 39.2662C234.062 34.4706 237.031 31.6974 240.467 28.4819C243.483 25.6613 246.912 23.2438 250.664 21.2844C251.163 21.0237 251.781 21.2133 252.042 21.711C252.303 22.2088 252.113 22.825 251.614 23.0857C248.028 24.9582 244.75 27.2731 241.868 29.9672C238.495 33.1195 235.827 35.6161 234.291 39.9457C232.605 44.7019 233.333 48.9603 233.65 50.7775C234.695 56.8846 237.854 61.2853 240.316 63.9004C240.704 64.3112 240.681 64.9512 240.269 65.3383C240.071 65.52 239.818 65.6149 239.572 65.6149H239.564Z" fill="#408F95"/>
<path d="M225.337 33.8304C225.036 33.8304 224.743 33.704 224.545 33.4512C224.189 33.0166 224.26 32.3767 224.695 32.0211C226.429 30.6227 228.329 29.4297 230.34 28.4896C232.763 27.3519 235.336 26.5697 237.989 26.1589C238.543 26.072 239.065 26.4512 239.152 27.0121C239.24 27.5652 238.86 28.0866 238.297 28.1735C235.835 28.5528 233.452 29.2796 231.203 30.3383C229.343 31.2153 227.577 32.3135 225.97 33.6171C225.78 33.7672 225.558 33.8462 225.329 33.8462L225.337 33.8304Z" fill="#408F95"/>
<path d="M229.509 55.9128C229.295 55.9128 229.074 55.8417 228.884 55.6995C226.683 54.0009 222.771 50.3429 221.378 44.9231C220.95 43.2481 220.048 39.756 221.623 36.1929C221.845 35.6951 222.106 35.2053 222.399 34.747C222.708 34.273 223.334 34.1387 223.809 34.4468C224.284 34.7549 224.418 35.3791 224.109 35.8531C223.872 36.2166 223.658 36.6116 223.484 37.0145C222.193 39.9378 222.946 42.8531 223.349 44.4253C224.592 49.2605 228.132 52.563 230.127 54.0957C230.57 54.4354 230.657 55.0754 230.309 55.5257C230.111 55.7864 229.81 55.9207 229.501 55.9207L229.509 55.9128Z" fill="#408F95"/>
<path d="M129.054 34.0754C128.84 34.0754 128.626 34.0754 128.404 34.0596C123.773 33.8621 120.495 31.6341 118.951 30.3226C118.523 29.9592 118.468 29.3192 118.832 28.8926C119.196 28.466 119.838 28.4107 120.265 28.7741C121.611 29.9197 124.469 31.8554 128.483 32.0292C132.513 32.1951 135.253 30.5122 137.066 29.3904C138.056 28.7741 138.436 28.4028 138.562 28.2369C138.261 27.8971 136.963 27.3046 132.751 26.554C128.966 25.8825 124.984 25.7166 120.914 26.0642C120.352 26.1037 119.861 25.7008 119.814 25.1398C119.766 24.5789 120.178 24.089 120.74 24.0416C124.984 23.6782 129.149 23.852 133.107 24.5552C136.979 25.2425 140.47 26.0405 140.637 28.1421C140.716 29.098 139.964 29.9908 138.135 31.1206C136.322 32.2425 133.345 34.0754 129.046 34.0754H129.054Z" fill="#408F95"/>
<path d="M111.144 35.5527C110.788 35.5527 110.44 35.3631 110.25 35.0313C109.972 34.5414 110.155 33.9173 110.645 33.6487C113.773 31.9184 116.378 29.6035 118.396 26.7909C119.465 25.2977 120.36 23.6702 121.041 21.9478C121.247 21.4264 121.841 21.1736 122.363 21.379C122.886 21.5844 123.139 22.1769 122.933 22.6984C122.181 24.5708 121.215 26.3485 120.051 27.9681C117.858 31.0336 115.024 33.546 111.635 35.4263C111.477 35.5132 111.31 35.5527 111.144 35.5527Z" fill="#408F95"/>
<path d="M101.778 15.3667C101.928 14.4818 102.768 13.8892 103.646 14.0394C104.533 14.1895 105.127 15.0269 104.977 15.9039C104.826 16.7888 103.987 17.3813 103.108 17.2312C102.221 17.0811 101.628 16.2436 101.778 15.3667Z" fill="#408F95"/>
<path d="M147.461 53.7163C145.68 53.6926 143.946 53.5504 142.236 53.2896C139.892 52.9341 137.565 52.3495 135.324 51.5515C127.09 48.6283 122.585 46.108 115.127 41.9364C114.636 41.6599 114.462 41.0437 114.739 40.5538C115.016 40.064 115.633 39.8902 116.124 40.1667C123.741 44.4251 127.937 46.7716 136.013 49.6395C138.135 50.3901 140.328 50.9431 142.545 51.2829C144.16 51.5278 145.799 51.6621 147.43 51.6858C149.29 51.6147 150.185 51.3619 150.589 51.1802C150.09 50.8404 148.815 50.1768 145.624 49.1734C145.086 49.0075 144.793 48.4307 144.959 47.9014C145.126 47.3642 145.704 47.0639 146.234 47.2378C151.365 48.8495 153.098 49.9556 152.861 51.4488C152.56 53.3133 149.631 53.6373 147.453 53.7242L147.461 53.7163Z" fill="#408F95"/>
<path d="M150.573 49.2764C149.94 49.2764 149.338 49.2448 148.768 49.2132C140.589 48.7075 133.986 46.9694 133.709 46.8904C130.629 46.0687 127.541 45.0653 124.533 43.9118C124.01 43.7064 123.749 43.1218 123.947 42.6003C124.153 42.0789 124.738 41.8182 125.261 42.0157C128.206 43.1455 131.223 44.1252 134.231 44.931C134.501 45.0021 140.906 46.6929 148.886 47.1827C150.723 47.2933 152.703 47.3407 155.022 46.519C156.281 46.0766 157.477 45.4288 158.569 44.5992C159.021 44.2595 159.654 44.3464 159.995 44.7967C160.335 45.247 160.248 45.8791 159.797 46.2188C158.538 47.1748 157.16 47.9175 155.703 48.431C153.811 49.1026 152.093 49.2764 150.565 49.2764H150.573Z" fill="#408F95"/>
<path d="M184.214 53.7163C181.553 53.7163 178.909 53.4556 176.288 52.9341C170.501 51.7727 164.911 49.2919 160.121 45.7603C159.67 45.4285 159.575 44.7886 159.907 44.3382C160.24 43.8879 160.881 43.7931 161.332 44.1249C165.885 47.4827 171.19 49.845 176.684 50.9432C180.817 51.7727 185.037 51.907 189.233 51.3619C189.075 50.003 188.616 47.5933 187.349 45.8552C186.985 45.3574 186.383 44.5279 185.322 43.8563C185.045 43.6746 184.831 43.5719 184.253 43.2875L183.85 43.0899C182.694 42.5132 181.759 42.0313 181.142 41.7073C180.643 41.4466 180.453 40.8304 180.714 40.3326C180.976 39.8349 181.593 39.6453 182.092 39.906C182.702 40.2299 183.62 40.7039 184.76 41.2649L185.156 41.4624C185.766 41.7626 186.043 41.8969 186.423 42.1419C187.808 43.0267 188.584 44.0854 188.996 44.6543C190.967 47.3405 191.3 51.0933 191.355 52.1757C191.379 52.6971 191.007 53.1553 190.492 53.2343C188.402 53.5583 186.304 53.7242 184.206 53.7242L184.214 53.7163Z" fill="#408F95"/>
<path d="M193.097 21.632C191.601 21.632 190.009 21.5293 188.236 21.3397C187.674 21.2764 187.27 20.7787 187.333 20.2178C187.397 19.6568 187.895 19.246 188.457 19.3171C190.168 19.4988 191.688 19.5936 193.113 19.6015C193.675 19.6015 194.126 20.0597 194.126 20.6207C194.126 21.1816 193.667 21.632 193.105 21.632H193.097Z" fill="#408F95"/>
<path d="M194 10.0891C193.897 10.0891 193.786 10.0733 193.683 10.0417C192.543 9.6625 191.403 9.27537 190.263 8.88034C187.12 7.79795 183.866 6.67606 180.493 5.9334C165.814 2.95486 151.515 1.67496 138.008 2.1332C137.454 2.149 136.971 1.71446 136.955 1.15352C136.939 0.592573 137.375 0.118535 137.937 0.102734C151.594 -0.363403 166.059 0.9244 180.912 3.94244C184.42 4.7167 187.721 5.8544 190.92 6.96048C192.052 7.34761 193.184 7.74265 194.316 8.11398C194.855 8.28779 195.14 8.86454 194.966 9.39388C194.823 9.82051 194.427 10.097 194 10.097V10.0891Z" fill="#408F95"/>
<path d="M116.235 7.71125C115.847 7.71125 115.475 7.49004 115.309 7.11871C115.079 6.60517 115.309 6.00472 115.816 5.7756C118.405 4.5984 121.089 3.58712 123.804 2.75756C127.312 1.68307 130.93 0.900908 134.572 0.42687C135.134 0.355764 135.641 0.742895 135.712 1.30384C135.783 1.86479 135.395 2.37043 134.833 2.44153C131.31 2.89977 127.795 3.65823 124.398 4.70111C121.769 5.50698 119.157 6.48666 116.655 7.62435C116.52 7.68755 116.378 7.71915 116.235 7.71915V7.71125Z" fill="#408F95"/>
<path d="M136.424 4.93794C136.092 4.93794 135.759 4.77203 135.561 4.4718C135.261 3.99776 135.395 3.36571 135.87 3.06549C136.084 2.93118 136.401 2.73366 136.789 2.51244C138.245 1.69078 139.821 1.06663 141.468 0.647896C142.742 0.32397 144.057 0.134355 145.379 0.0790503C145.941 0.0553484 146.416 0.489883 146.44 1.05083C146.464 1.61177 146.028 2.08581 145.466 2.10951C144.278 2.15692 143.107 2.33073 141.967 2.61515C140.494 2.98648 139.085 3.54743 137.786 4.27429C137.438 4.4718 137.161 4.64562 136.963 4.76413C136.797 4.87473 136.607 4.92214 136.417 4.92214L136.424 4.93794Z" fill="#408F95"/>
<path d="M150.62 5.8307C150.288 5.8307 149.955 5.66478 149.765 5.36456C149.464 4.89052 149.599 4.26637 150.074 3.95825C150.288 3.82394 150.605 3.62642 150.992 3.4052C152.449 2.58354 154.025 1.95939 155.68 1.54065C156.954 1.21673 158.269 1.02711 159.591 0.971808C160.153 0.940206 160.628 1.38264 160.652 1.94359C160.675 2.50453 160.24 2.97857 159.678 3.00227C158.49 3.04967 157.318 3.22349 156.178 3.50791C154.706 3.87924 153.296 4.44019 151.998 5.16704C151.65 5.36456 151.373 5.53837 151.175 5.65688C151.008 5.76749 150.81 5.8149 150.628 5.8149L150.62 5.8307Z" fill="#408F95"/>
<path d="M163.716 7.67964C163.383 7.67964 163.051 7.51373 162.853 7.2135C162.552 6.73946 162.686 6.11531 163.161 5.80719C163.375 5.67288 163.692 5.47536 164.08 5.25414C165.545 4.43248 167.12 3.80833 168.767 3.3896C170.042 3.06567 171.356 2.87605 172.678 2.82075C173.24 2.79705 173.715 3.23158 173.739 3.79253C173.763 4.35347 173.327 4.82751 172.765 4.85121C171.578 4.89862 170.406 5.07243 169.266 5.35685C167.793 5.72818 166.384 6.28913 165.085 7.01599C164.737 7.2135 164.46 7.38732 164.262 7.50583C164.096 7.61643 163.906 7.66384 163.716 7.66384V7.67964Z" fill="#408F95"/>
<path d="M183.177 49.624H183.153C179.669 49.5371 176.36 48.7549 173.327 47.2854C172.005 46.6455 170.738 45.8791 169.559 45.0021C169.107 44.6624 169.012 44.0304 169.353 43.58C169.693 43.1297 170.327 43.0349 170.778 43.3746C171.855 44.1805 173.019 44.8836 174.214 45.4604C176.985 46.7956 180.01 47.5145 183.2 47.5935C183.762 47.6093 184.206 48.0755 184.198 48.6364C184.182 49.1895 183.731 49.6319 183.177 49.6319V49.624Z" fill="#408F95"/>
<path d="M181.34 45.5234C181.221 45.5234 181.102 45.4997 180.992 45.4602L175.188 43.3428C174.658 43.1532 174.388 42.5685 174.578 42.0392C174.768 41.5098 175.362 41.2412 175.885 41.4308L181.688 43.5482C182.219 43.7378 182.488 44.3225 182.298 44.8518C182.147 45.2626 181.759 45.5234 181.34 45.5234Z" fill="#408F95"/>
<path d="M195.797 21.5374C195.251 21.5374 194.791 21.1028 194.776 20.5498C194.76 19.9888 195.203 19.5227 195.765 19.5069C199.605 19.3963 201.244 18.6536 201.513 16.8681C200.785 14.4268 198.916 12.4437 195.813 10.8162C195.314 10.5555 195.124 9.93924 195.385 9.4415C195.646 8.94376 196.264 8.75415 196.763 9.01487C200.476 10.9584 202.693 13.4155 203.532 16.5205C203.564 16.639 203.572 16.7654 203.564 16.8839C203.136 21.3241 198.014 21.4742 195.829 21.5374C195.821 21.5374 195.805 21.5374 195.797 21.5374Z" fill="#408F95"/>
<path d="M237.949 187.411C237.624 187.411 237.308 187.253 237.11 186.969C236.651 186.297 236.397 185.586 236.358 184.859C236.176 181.288 241.116 178.823 244.726 177.022C248.455 175.157 252.501 173.798 256.745 172.977C257.299 172.874 257.83 173.229 257.94 173.783C258.051 174.336 257.687 174.865 257.133 174.975C253.071 175.766 249.208 177.061 245.637 178.839C242.882 180.214 238.282 182.513 238.392 184.756C238.408 185.104 238.543 185.46 238.788 185.815C239.105 186.281 238.986 186.913 238.527 187.229C238.353 187.348 238.147 187.411 237.949 187.411Z" fill="#408F95"/>
<path d="M251.71 196.584C251.615 196.584 251.512 196.568 251.417 196.536C249.524 195.96 247.656 195.296 245.866 194.561C245.083 194.237 244.014 193.795 242.628 193.1C241.369 192.46 240.126 191.756 238.955 190.998C238.899 190.959 238.844 190.919 238.796 190.872C238.741 190.816 238.646 190.737 238.535 190.635C237.205 189.449 235.93 188.185 236.255 186.961C236.35 186.605 236.659 185.981 237.68 185.768C238.226 185.649 238.773 185.997 238.891 186.55C238.986 186.984 238.78 187.411 238.424 187.632C238.638 187.917 239.065 188.383 239.897 189.118C239.992 189.205 240.079 189.276 240.142 189.339C241.235 190.042 242.383 190.698 243.555 191.29C244.869 191.954 245.898 192.381 246.65 192.689C248.376 193.4 250.181 194.048 252.01 194.601C252.549 194.767 252.85 195.335 252.691 195.873C252.557 196.315 252.153 196.592 251.717 196.592L251.71 196.584Z" fill="#408F95"/>
<path d="M260.553 197.161C257.854 197.161 255.138 197.05 252.446 196.821C251.884 196.774 251.472 196.284 251.52 195.723C251.567 195.162 252.066 194.751 252.62 194.798C256.143 195.091 259.706 195.193 263.214 195.091C263.285 195.091 271.234 194.806 277.829 193.424C279.864 192.997 281.914 192.428 283.91 191.717C284.796 191.401 285.279 191.204 287.306 190.366L289.753 189.355C290.441 189.07 291.051 188.81 291.613 188.573C293.387 187.822 294.669 187.277 296.205 186.882C298.296 186.337 300.504 186.084 302.785 186.139C303.347 186.155 303.79 186.621 303.782 187.182C303.766 187.743 303.315 188.186 302.737 188.178C300.647 188.13 298.628 188.359 296.72 188.849C295.326 189.213 294.107 189.726 292.413 190.445C291.843 190.69 291.225 190.951 290.529 191.235L288.082 192.246C286.071 193.076 285.533 193.297 284.591 193.629C282.508 194.364 280.371 194.964 278.249 195.407C271.471 196.821 263.609 197.105 263.277 197.113C262.374 197.137 261.464 197.153 260.561 197.153L260.553 197.161Z" fill="#408F95"/>
<path d="M303.758 180.822C303.758 180.822 303.735 180.822 303.719 180.822C303.149 180.799 302.571 180.743 302.009 180.664C300.671 180.467 299.665 180.143 299.23 180.001L299.111 179.961C294.614 178.578 290.006 177.37 285.422 176.382C281.202 175.473 277.869 174.755 273.482 174.352C268.851 173.925 264.132 173.957 259.453 174.446C258.891 174.502 258.392 174.099 258.336 173.538C258.281 172.977 258.685 172.479 259.247 172.424C264.061 171.926 268.914 171.894 273.672 172.329C278.185 172.74 281.574 173.475 285.857 174.399C290.505 175.402 295.168 176.619 299.721 178.025L299.871 178.073C300.251 178.199 301.146 178.484 302.317 178.657C302.777 178.729 303.244 178.768 303.703 178.792C304.455 178.657 305.207 178.468 305.936 178.223C306.822 177.931 307.448 177.63 307.685 177.52C310.1 176.39 315.658 174.32 320.48 172.929C323.204 172.139 325.294 171.681 327.899 171.642C328.682 171.626 329.482 171.657 330.258 171.729C330.82 171.776 331.232 172.274 331.184 172.835C331.137 173.396 330.638 173.806 330.076 173.759C329.363 173.696 328.643 173.672 327.922 173.68C325.555 173.712 323.607 174.146 321.05 174.889C315.832 176.398 310.528 178.444 308.58 179.353C308.287 179.487 307.583 179.819 306.585 180.151C305.722 180.435 304.835 180.656 303.941 180.814C303.885 180.822 303.83 180.83 303.766 180.83L303.758 180.822Z" fill="#408F95"/>
<path d="M327.226 199.475C327.091 199.475 326.948 199.444 326.814 199.388L315.571 194.419C313.505 193.384 311.502 192.278 309.57 191.116C308.121 190.247 306.664 189.315 305.263 188.367C304.796 188.051 304.677 187.419 304.994 186.953C305.31 186.487 305.944 186.368 306.411 186.684C307.788 187.616 309.206 188.525 310.623 189.378C312.515 190.516 314.479 191.598 316.45 192.586L327.645 197.532C328.16 197.761 328.389 198.361 328.168 198.875C328.001 199.254 327.629 199.483 327.234 199.483L327.226 199.475Z" fill="#408F95"/>
<path d="M327.225 199.475C326.932 199.475 326.647 199.349 326.45 199.112C324.391 196.679 322.792 193.992 321.691 191.132C320.765 188.731 320.036 186.834 320.345 184.346C320.694 181.533 322.166 179.669 324.027 177.306L324.185 177.101C325.713 175.157 327.518 173.419 329.553 171.926C330.004 171.594 330.646 171.689 330.978 172.139C331.311 172.59 331.216 173.23 330.764 173.561C328.88 174.952 327.202 176.564 325.792 178.357L325.634 178.563C323.908 180.759 322.657 182.347 322.372 184.599C322.127 186.582 322.713 188.099 323.599 190.398C324.621 193.044 326.109 195.533 328.017 197.801C328.381 198.227 328.326 198.875 327.898 199.231C327.708 199.389 327.471 199.468 327.241 199.468L327.225 199.475Z" fill="#408F95"/>
<path d="M258.811 191.101C256.476 191.101 254.671 190.224 253.736 189.655C253.261 189.362 253.111 188.73 253.404 188.256C253.697 187.782 254.322 187.632 254.805 187.924C255.645 188.438 257.386 189.268 259.619 189.023C261.852 188.778 263.229 187.601 264.148 186.818C264.282 186.708 264.385 186.605 264.472 186.526C263.926 186.4 262.984 186.321 261.646 186.289C259.413 186.234 257.117 186.494 254.821 187.047C254.275 187.182 253.721 186.842 253.586 186.297C253.451 185.752 253.792 185.199 254.338 185.064C256.808 184.464 259.287 184.187 261.693 184.243C264.274 184.306 266.436 184.48 266.792 185.981C267.006 186.897 266.246 187.695 265.47 188.359C264.496 189.189 262.691 190.721 259.841 191.037C259.484 191.077 259.144 191.093 258.811 191.093V191.101Z" fill="#408F95"/>
<path d="M249.793 193.463C249.493 193.463 249.192 193.329 248.986 193.068C248.638 192.626 248.725 191.986 249.168 191.638C250.783 190.39 252.05 188.857 252.945 187.095C253.42 186.163 253.776 185.167 254.013 184.133C254.14 183.587 254.686 183.248 255.233 183.374C255.779 183.5 256.119 184.046 255.993 184.591C255.716 185.784 255.304 186.929 254.758 188.012C253.728 190.05 252.264 191.812 250.411 193.25C250.229 193.392 250.007 193.463 249.786 193.463H249.793Z" fill="#408F95"/>
<path d="M243.578 184.116C243.578 184.116 243.563 184.116 243.547 184.116C242.462 184.101 241.583 183.2 241.599 182.118C241.615 181.027 242.486 180.158 243.602 180.174C244.133 180.174 244.624 180.395 244.988 180.774C245.352 181.154 245.55 181.651 245.542 182.173C245.526 183.247 244.639 184.116 243.571 184.116H243.578ZM243.515 182.141C243.515 182.141 243.539 182.197 243.578 182.204C243.61 182.204 243.642 182.173 243.642 182.141H243.515ZM243.515 182.141H243.642C243.642 182.141 243.602 182.054 243.578 182.078C243.547 182.078 243.515 182.102 243.515 182.141Z" fill="#408F95"/>
<path d="M269.547 201C268.13 201 266.713 200.866 265.32 200.598C260.229 199.626 257.371 198.559 252.636 196.789C252.105 196.592 251.844 196.007 252.042 195.478C252.24 194.949 252.826 194.688 253.356 194.885C258.154 196.679 260.791 197.658 265.708 198.599C266.982 198.844 268.249 198.962 269.579 198.962C270.521 198.962 271.471 198.891 272.406 198.765C272.984 198.686 273.514 198.504 273.823 198.354C273.427 197.99 272.437 197.327 270.41 196.458C269.896 196.236 269.65 195.636 269.88 195.122C270.102 194.609 270.703 194.364 271.218 194.593C275.778 196.545 276.198 197.793 276.008 198.749C275.707 200.242 273.395 200.684 272.699 200.779C271.661 200.921 270.569 200.993 269.563 201H269.547Z" fill="#408F95"/>
<path d="M290.433 197.769C290.069 197.769 289.705 197.761 289.341 197.745C285.81 197.587 282.271 196.623 279.112 194.964C278.613 194.704 278.423 194.087 278.684 193.59C278.945 193.092 279.563 192.902 280.062 193.163C282.959 194.68 286.198 195.565 289.436 195.707C291.724 195.81 294.012 195.557 296.237 194.956C295.952 194.087 295.493 193.123 294.867 192.499C294.614 192.246 294.242 191.867 293.632 191.607C293.45 191.528 293.315 191.488 293.007 191.385L292.753 191.306C292.025 191.077 291.439 190.88 291.043 190.745C290.513 190.564 290.228 189.987 290.41 189.45C290.592 188.92 291.17 188.636 291.708 188.818C292.088 188.952 292.666 189.142 293.371 189.371L293.624 189.45C294.044 189.584 294.218 189.639 294.463 189.75C295.414 190.169 296.023 190.777 296.316 191.069C297.789 192.547 298.343 194.798 298.478 195.454C298.58 195.968 298.288 196.473 297.789 196.631C295.398 197.39 292.927 197.769 290.441 197.769H290.433Z" fill="#408F95"/>
<path d="M293.442 178.294C292.904 178.294 292.452 177.867 292.421 177.322C292.397 176.761 292.832 176.287 293.394 176.255C294.392 176.208 295.271 176.129 296.086 176.003C296.641 175.924 297.163 176.303 297.242 176.856C297.321 177.409 296.941 177.93 296.387 178.009C295.5 178.144 294.55 178.231 293.489 178.278C293.474 178.278 293.458 178.278 293.442 178.278V178.294Z" fill="#408F95"/>
<path d="M296.237 178.033C295.706 178.033 295.255 177.622 295.223 177.085C295.184 176.524 295.611 176.042 296.174 176.002C298.794 175.837 300.109 174.983 300.219 174.264C300.322 173.601 299.412 172.487 297.171 171.594C296.649 171.388 296.395 170.796 296.601 170.274C296.807 169.753 297.401 169.5 297.923 169.706C300.916 170.891 302.531 172.708 302.23 174.58C301.922 176.524 299.705 177.812 296.3 178.025C296.276 178.025 296.253 178.025 296.237 178.025V178.033Z" fill="#408F95"/>
<path d="M262.406 171.618C261.939 171.618 261.519 171.294 261.416 170.828C261.289 170.283 261.638 169.737 262.184 169.611C270.695 167.691 279.286 167.146 287.726 167.991C290.093 168.228 292.484 168.576 294.828 169.034C295.382 169.145 295.738 169.674 295.635 170.227C295.524 170.78 294.994 171.136 294.44 171.033C292.159 170.591 289.832 170.251 287.52 170.014C279.302 169.192 270.925 169.722 262.635 171.594C262.556 171.61 262.485 171.618 262.414 171.618H262.406Z" fill="#408F95"/>
<path d="M250.253 176.808C249.92 176.808 249.596 176.643 249.398 176.35C249.089 175.876 249.224 175.252 249.691 174.944C251.108 174.019 252.596 173.174 254.116 172.447C255.565 171.744 257.086 171.128 258.621 170.614C258.978 170.496 259.287 170.393 259.5 170.33C260.031 170.164 260.609 170.464 260.775 170.994C260.941 171.531 260.64 172.1 260.11 172.266C259.904 172.329 259.619 172.424 259.279 172.534C257.822 173.024 256.389 173.609 255.011 174.272C253.57 174.968 252.161 175.766 250.815 176.643C250.641 176.753 250.451 176.808 250.261 176.808H250.253Z" fill="#408F95"/>
<path d="M265.818 171.847C265.66 171.847 265.51 171.784 265.399 171.657C265.193 171.428 265.217 171.073 265.446 170.867C265.557 170.772 265.723 170.63 265.929 170.464C266.705 169.856 267.56 169.358 268.479 168.971C269.183 168.671 269.935 168.442 270.695 168.292C270.996 168.228 271.297 168.426 271.353 168.734C271.408 169.042 271.218 169.334 270.909 169.39C270.22 169.524 269.547 169.729 268.914 169.998C268.091 170.346 267.315 170.804 266.618 171.341C266.436 171.483 266.285 171.618 266.183 171.705C266.08 171.799 265.945 171.847 265.81 171.847H265.818Z" fill="#408F95"/>
<path d="M271.123 171.681C270.941 171.681 270.759 171.586 270.648 171.42C270.482 171.16 270.553 170.812 270.814 170.646C270.933 170.567 271.107 170.457 271.321 170.33C272.12 169.848 272.983 169.398 273.862 169.011C274.551 168.703 275.248 168.434 275.952 168.197C276.245 168.102 276.562 168.26 276.665 168.552C276.76 168.845 276.602 169.161 276.309 169.264C275.644 169.485 274.971 169.745 274.321 170.038C273.482 170.409 272.667 170.836 271.899 171.294C271.693 171.412 271.527 171.523 271.416 171.594C271.321 171.657 271.218 171.681 271.115 171.681H271.123Z" fill="#408F95"/>
<path d="M277.829 171.689C277.655 171.689 277.489 171.61 277.378 171.46C277.196 171.215 277.243 170.859 277.496 170.678C277.615 170.591 277.781 170.464 277.995 170.322C278.787 169.785 279.642 169.319 280.545 168.924C281.241 168.624 281.962 168.363 282.69 168.165C282.991 168.078 283.3 168.26 283.379 168.56C283.458 168.861 283.284 169.169 282.983 169.248C282.31 169.429 281.637 169.666 280.988 169.951C280.149 170.314 279.357 170.749 278.621 171.247C278.423 171.381 278.264 171.491 278.161 171.57C278.059 171.642 277.948 171.681 277.829 171.681V171.689Z" fill="#408F95"/>
<path d="M290.79 193.321C290.79 193.321 290.734 193.321 290.71 193.321L286.19 192.697C285.881 192.657 285.667 192.373 285.715 192.065C285.754 191.756 286.047 191.543 286.348 191.591L290.869 192.215C291.178 192.254 291.391 192.539 291.344 192.847C291.304 193.123 291.067 193.329 290.79 193.329V193.321Z" fill="#408F95"/>
<path d="M319.862 192.397C319.712 192.397 319.554 192.357 319.411 192.262C318.049 191.401 316.838 190.342 315.824 189.118C314.463 187.482 313.188 185.942 313.354 183.919C313.528 181.857 315.104 180.546 316.775 179.155C318.144 178.017 319.688 177.117 321.375 176.493C321.81 176.327 322.293 176.548 322.459 176.983C322.626 177.417 322.404 177.899 321.968 178.065C320.464 178.626 319.079 179.432 317.859 180.443C316.347 181.699 315.152 182.695 315.033 184.061C314.922 185.397 315.888 186.566 317.115 188.043C318.018 189.134 319.094 190.074 320.314 190.848C320.71 191.093 320.82 191.614 320.575 192.01C320.417 192.262 320.139 192.397 319.862 192.397Z" fill="#408F95"/>
<path d="M344.794 157.989C344.335 157.989 343.923 157.681 343.804 157.214C343.607 156.424 343.614 155.674 343.836 154.978C344.913 151.565 350.408 150.973 354.414 150.546C358.562 150.096 362.83 150.23 367.089 150.933C367.644 151.028 368.024 151.55 367.929 152.103C367.834 152.656 367.319 153.035 366.757 152.94C362.68 152.261 358.594 152.142 354.635 152.569C351.579 152.901 346.457 153.454 345.784 155.595C345.681 155.927 345.681 156.306 345.784 156.725C345.918 157.27 345.586 157.823 345.04 157.957C344.96 157.981 344.873 157.989 344.794 157.989Z" fill="#408F95"/>
<path d="M354.485 171.364C354.271 171.364 354.05 171.293 353.868 171.159C352.292 169.966 350.78 168.694 349.355 167.375C348.729 166.798 347.874 166.008 346.829 164.878C345.871 163.843 344.96 162.753 344.121 161.631C344.082 161.576 344.05 161.52 344.018 161.457C343.987 161.386 343.931 161.283 343.86 161.149C343.021 159.577 342.269 157.949 343.005 156.906C343.219 156.606 343.725 156.132 344.755 156.282C345.309 156.361 345.697 156.883 345.618 157.436C345.554 157.878 345.214 158.21 344.802 158.289C344.897 158.629 345.143 159.213 345.665 160.201C345.728 160.311 345.776 160.414 345.816 160.485C346.599 161.528 347.446 162.539 348.333 163.495C349.323 164.57 350.146 165.328 350.748 165.881C352.118 167.153 353.59 168.378 355.111 169.539C355.562 169.879 355.641 170.519 355.301 170.961C355.103 171.222 354.794 171.364 354.493 171.364H354.485Z" fill="#408F95"/>
<path d="M405.259 181.248C405.133 181.248 405.006 181.225 404.879 181.177C402.94 180.403 400.96 179.913 399.005 179.716C397.572 179.573 396.241 179.629 394.405 179.716C393.787 179.747 393.114 179.771 392.37 179.802L389.717 179.897C387.548 179.976 386.97 180 385.973 179.976C383.764 179.937 381.555 179.755 379.409 179.431C372.568 178.404 365.094 175.931 364.778 175.821C361.389 174.675 358.008 173.308 354.731 171.775C354.224 171.538 354.002 170.93 354.24 170.424C354.477 169.919 355.087 169.698 355.594 169.935C358.8 171.444 362.102 172.771 365.419 173.893C365.49 173.916 373.036 176.413 379.702 177.416C381.76 177.725 383.882 177.898 385.996 177.938C386.938 177.954 387.453 177.938 389.638 177.859L392.299 177.764C393.035 177.74 393.7 177.709 394.317 177.677C396.241 177.59 397.635 177.527 399.21 177.685C401.356 177.898 403.517 178.436 405.639 179.281C406.162 179.486 406.415 180.079 406.209 180.6C406.051 180.995 405.671 181.24 405.259 181.24V181.248Z" fill="#408F95"/>
<path d="M435.979 177.258C435.828 177.258 435.686 177.227 435.543 177.164C434.902 176.855 434.229 176.579 433.556 176.342C431.323 175.544 429.352 175.275 426.692 175.078C421.276 174.675 415.584 174.754 413.446 174.928C413.121 174.951 412.337 175.023 411.292 174.983C410.39 174.951 409.479 174.849 408.585 174.683C408.513 174.667 408.442 174.651 408.379 174.62C407.848 174.398 407.334 174.146 406.835 173.877C405.647 173.229 404.824 172.573 404.468 172.289L404.365 172.21C400.628 169.35 396.732 166.616 392.781 164.096C389.147 161.773 386.273 159.94 382.299 158.036C378.103 156.029 373.669 154.418 369.116 153.24C368.57 153.098 368.246 152.545 368.388 152C368.531 151.455 369.085 151.131 369.631 151.273C374.318 152.482 378.879 154.141 383.186 156.203C387.271 158.163 390.192 160.019 393.882 162.382C397.88 164.933 401.831 167.699 405.608 170.598L405.734 170.693C406.051 170.938 406.779 171.523 407.817 172.091C408.22 172.313 408.64 172.518 409.068 172.7C409.82 172.834 410.596 172.921 411.364 172.945C412.29 172.976 412.987 172.921 413.248 172.897C415.908 172.676 421.838 172.676 426.842 173.047C429.676 173.261 431.79 173.545 434.245 174.422C434.989 174.683 435.717 174.991 436.422 175.323C436.929 175.568 437.143 176.168 436.905 176.682C436.731 177.045 436.367 177.258 435.987 177.258H435.979Z" fill="#408F95"/>
<path d="M424.261 200.344C424.008 200.344 423.746 200.249 423.548 200.052L414.744 191.488C413.169 189.797 411.68 188.067 410.271 186.305C409.21 184.977 408.181 183.611 407.191 182.228C406.867 181.77 406.977 181.138 407.429 180.814C407.888 180.49 408.521 180.6 408.846 181.051C409.812 182.402 410.817 183.745 411.854 185.041C413.232 186.763 414.689 188.454 416.193 190.073L424.958 198.606C425.362 199.001 425.369 199.641 424.974 200.044C424.776 200.249 424.506 200.352 424.245 200.352L424.261 200.344Z" fill="#408F95"/>
<path d="M424.261 200.344C423.841 200.344 423.453 200.083 423.303 199.672C422.226 196.678 421.664 193.597 421.632 190.531C421.601 187.956 421.585 185.925 422.741 183.705C424.055 181.193 426.082 179.952 428.647 178.388L428.869 178.254C430.975 176.966 433.279 175.963 435.709 175.267C436.248 175.109 436.818 175.425 436.968 175.963C437.127 176.5 436.81 177.069 436.272 177.219C434.015 177.859 431.885 178.791 429.938 179.984L429.716 180.118C427.325 181.58 425.599 182.631 424.554 184.645C423.628 186.415 423.651 188.043 423.675 190.508C423.707 193.344 424.229 196.196 425.227 198.985C425.417 199.514 425.14 200.099 424.609 200.289C424.498 200.328 424.38 200.352 424.269 200.352L424.261 200.344Z" fill="#408F95"/>
<path d="M365.878 169.208C365.197 169.208 364.461 169.129 363.685 168.939C360.914 168.244 359.22 166.498 358.452 165.51C358.103 165.068 358.183 164.428 358.626 164.08C359.069 163.733 359.711 163.812 360.059 164.254C360.669 165.028 362.007 166.411 364.184 166.956C366.361 167.501 368.071 166.877 369.196 166.466C369.362 166.403 369.497 166.356 369.607 166.3C369.14 165.992 368.277 165.589 367.034 165.1C364.968 164.278 362.727 163.717 360.376 163.44C359.814 163.377 359.418 162.872 359.481 162.311C359.544 161.75 360.051 161.347 360.613 161.418C363.139 161.718 365.562 162.318 367.794 163.211C370.193 164.167 372.157 165.084 371.967 166.609C371.856 167.541 370.858 168.023 369.892 168.37C369.029 168.686 367.628 169.2 365.87 169.2L365.878 169.208Z" fill="#408F95"/>
<path d="M353.78 167.778C353.345 167.778 352.941 167.501 352.807 167.067C352.64 166.53 352.933 165.961 353.472 165.795C355.419 165.186 357.145 164.191 358.602 162.848C359.37 162.137 360.059 161.331 360.645 160.446C360.954 159.98 361.587 159.846 362.054 160.154C362.521 160.462 362.656 161.094 362.347 161.56C361.674 162.579 360.882 163.512 359.996 164.333C358.317 165.882 356.33 167.027 354.089 167.73C353.986 167.762 353.883 167.778 353.78 167.778Z" fill="#408F95"/>
<path d="M351.556 156.914C351.31 156.914 351.073 156.867 350.843 156.78C349.83 156.385 349.323 155.239 349.719 154.228C350.115 153.217 351.263 152.711 352.276 153.106C353.289 153.501 353.796 154.647 353.4 155.658C353.21 156.148 352.838 156.535 352.355 156.748C352.102 156.859 351.833 156.914 351.563 156.914H351.556ZM351.492 154.923C351.476 154.955 351.492 154.994 351.532 155.002C351.556 155.01 351.603 154.994 351.611 154.963L351.492 154.915V154.923ZM351.492 154.923L351.611 154.971C351.611 154.971 351.611 154.9 351.571 154.892C351.54 154.884 351.5 154.9 351.492 154.931V154.923Z" fill="#408F95"/>
<path d="M373.875 182.71C373.218 182.71 372.616 182.599 372.323 182.536C371.31 182.315 370.304 182.023 369.338 181.659C368 181.169 366.71 180.537 365.49 179.803C361.057 177.124 358.753 175.125 354.928 171.823C354.501 171.452 354.453 170.812 354.826 170.385C355.198 169.958 355.839 169.911 356.266 170.282C360.138 173.624 362.268 175.473 366.551 178.064C367.66 178.736 368.839 179.305 370.051 179.755C370.929 180.079 371.848 180.348 372.766 180.553C373.336 180.679 373.898 180.695 374.239 180.656C374.001 180.174 373.297 179.21 371.705 177.693C371.302 177.306 371.286 176.658 371.674 176.255C372.062 175.852 372.711 175.836 373.115 176.224C376.701 179.645 376.662 180.956 376.147 181.786C375.688 182.52 374.746 182.718 373.891 182.718L373.875 182.71Z" fill="#408F95"/>
<path d="M397.35 187.371C397.35 187.371 397.318 187.371 397.302 187.371C394.428 187.229 391.633 186.597 388.997 185.483C385.743 184.108 382.766 181.975 380.383 179.32C380.011 178.902 380.042 178.262 380.462 177.882C380.882 177.503 381.523 177.543 381.903 177.961C384.088 180.395 386.82 182.346 389.797 183.61C391.91 184.503 394.135 185.064 396.431 185.27C396.463 184.487 396.416 183.389 396.004 182.496C395.853 182.173 395.632 181.691 395.165 181.224C395.022 181.09 394.911 181.003 394.658 180.806L394.444 180.64C393.842 180.174 393.359 179.779 393.043 179.518C392.607 179.162 392.544 178.522 392.9 178.088C393.256 177.653 393.898 177.59 394.333 177.946C394.642 178.198 395.117 178.586 395.703 179.036L395.909 179.202C396.257 179.471 396.4 179.589 396.59 179.771C397.334 180.498 397.69 181.28 397.864 181.651C398.727 183.539 398.466 185.846 398.363 186.51C398.284 187.008 397.856 187.371 397.358 187.371H397.35Z" fill="#408F95"/>
<path d="M402.702 169.469C402.631 169.469 402.559 169.469 402.488 169.445C401.617 169.263 400.691 169.01 399.677 168.686C399.139 168.513 398.846 167.944 399.02 167.407C399.194 166.869 399.764 166.577 400.303 166.751C401.253 167.051 402.108 167.288 402.916 167.454C403.47 167.572 403.818 168.11 403.699 168.663C403.596 169.145 403.177 169.469 402.702 169.469Z" fill="#408F95"/>
<path d="M405.552 169.942C404.618 169.942 403.565 169.776 402.409 169.429C401.871 169.271 401.562 168.702 401.728 168.165C401.887 167.627 402.457 167.319 402.995 167.485C405.513 168.236 407.041 167.896 407.397 167.264C407.73 166.679 407.262 165.313 405.473 163.709C405.053 163.33 405.022 162.69 405.394 162.271C405.774 161.852 406.415 161.82 406.835 162.192C409.226 164.341 410.105 166.608 409.17 168.26C408.545 169.366 407.262 169.942 405.552 169.942Z" fill="#408F95"/>
<path d="M403.636 162.358C403.454 162.358 403.272 162.31 403.106 162.208C401.118 160.999 399.06 159.869 396.978 158.85C389.559 155.223 381.531 152.806 373.099 151.676C372.545 151.605 372.149 151.091 372.228 150.531C372.307 149.977 372.814 149.582 373.376 149.661C382.022 150.823 390.264 153.304 397.88 157.025C400.018 158.068 402.14 159.229 404.174 160.477C404.657 160.77 404.808 161.394 404.515 161.876C404.325 162.192 403.984 162.366 403.644 162.366L403.636 162.358Z" fill="#408F95"/>
<path d="M360.027 152.324C359.56 152.324 359.14 152.008 359.038 151.534C358.911 150.989 359.259 150.444 359.805 150.317C361.452 149.946 363.147 149.669 364.825 149.511C366.432 149.361 368.063 149.306 369.686 149.361C370.066 149.369 370.383 149.385 370.613 149.401C371.175 149.432 371.602 149.906 371.579 150.467C371.555 151.028 371.064 151.455 370.51 151.431C370.296 151.423 369.995 151.408 369.631 151.392C368.095 151.344 366.543 151.392 365.023 151.542C363.424 151.692 361.824 151.945 360.265 152.3C360.186 152.316 360.114 152.324 360.035 152.324H360.027Z" fill="#408F95"/>
<path d="M376.187 153.059C375.965 153.059 375.751 152.924 375.664 152.703C375.553 152.411 375.696 152.087 375.989 151.976C376.131 151.921 376.337 151.85 376.582 151.771C377.517 151.471 378.498 151.297 379.496 151.257C380.264 151.226 381.048 151.265 381.816 151.392C382.125 151.439 382.33 151.731 382.283 152.032C382.235 152.34 381.942 152.537 381.642 152.498C380.953 152.387 380.248 152.348 379.559 152.379C378.665 152.419 377.778 152.577 376.939 152.845C376.717 152.917 376.535 152.988 376.408 153.035C376.345 153.059 376.274 153.075 376.21 153.075L376.187 153.059Z" fill="#408F95"/>
<path d="M381.222 154.75C380.961 154.75 380.731 154.568 380.676 154.307C380.612 154.007 380.802 153.707 381.103 153.644C381.238 153.612 381.444 153.572 381.689 153.525C382.608 153.351 383.566 153.233 384.539 153.17C385.292 153.122 386.044 153.106 386.78 153.13C387.089 153.138 387.334 153.399 387.326 153.707C387.318 154.015 387.041 154.236 386.748 154.252C386.044 154.228 385.331 154.244 384.611 154.284C383.692 154.339 382.774 154.457 381.903 154.623C381.673 154.671 381.475 154.71 381.349 154.734C381.309 154.742 381.27 154.75 381.23 154.75H381.222Z" fill="#408F95"/>
<path d="M387.501 157.088C387.255 157.088 387.033 156.93 386.962 156.685C386.875 156.385 387.049 156.077 387.342 155.99C387.485 155.951 387.683 155.895 387.936 155.832C388.862 155.603 389.828 155.461 390.81 155.413C391.57 155.374 392.338 155.382 393.082 155.453C393.391 155.476 393.621 155.753 393.589 156.061C393.557 156.369 393.28 156.598 392.979 156.567C392.283 156.504 391.57 156.496 390.865 156.535C389.955 156.583 389.052 156.717 388.197 156.93C387.968 156.986 387.778 157.041 387.651 157.072C387.596 157.088 387.548 157.096 387.493 157.096L387.501 157.088Z" fill="#408F95"/>
<path d="M392.093 181.872C392.006 181.872 391.911 181.849 391.824 181.801L387.809 179.644C387.54 179.494 387.437 179.155 387.58 178.886C387.73 178.617 388.071 178.515 388.34 178.657L392.354 180.814C392.623 180.964 392.726 181.304 392.584 181.572C392.481 181.762 392.291 181.864 392.093 181.864V181.872Z" fill="#408F95"/>
<path d="M419.772 191.14C419.519 191.14 419.265 191.029 419.099 190.808C418.125 189.528 417.357 188.114 416.835 186.613C416.13 184.614 415.473 182.718 416.336 180.885C417.223 179.013 419.154 178.325 421.205 177.606C422.883 177.014 424.649 176.713 426.446 176.706C426.913 176.706 427.286 177.077 427.286 177.543C427.286 178.009 426.913 178.38 426.446 178.388C424.839 178.388 423.264 178.665 421.767 179.194C419.907 179.85 418.442 180.364 417.856 181.604C417.286 182.821 417.785 184.251 418.418 186.068C418.885 187.403 419.566 188.659 420.437 189.805C420.722 190.176 420.643 190.698 420.279 190.982C420.128 191.101 419.946 191.156 419.772 191.156V191.14Z" fill="#408F95"/>
<path d="M231.37 89.601C231.014 89.601 230.657 89.4272 230.443 89.1111C229.826 88.2184 229.493 87.2782 229.446 86.3143C229.2 81.5107 236.017 78.1135 240.989 75.6327C246.191 73.0413 251.828 71.1451 257.735 69.9995C258.344 69.881 258.93 70.276 259.049 70.8844C259.168 71.4927 258.772 72.0774 258.162 72.1959C252.454 73.302 247.007 75.1349 241.995 77.6315C238.076 79.5909 231.52 82.8617 231.687 86.2037C231.71 86.741 231.916 87.294 232.296 87.847C232.645 88.3606 232.518 89.0558 232.003 89.4035C231.813 89.5378 231.592 89.601 231.37 89.601Z" fill="#408F95"/>
<path d="M250.625 102.439C250.514 102.439 250.403 102.424 250.3 102.392C247.664 101.594 245.059 100.662 242.557 99.6347C241.464 99.1844 239.968 98.5681 238.044 97.5964C236.286 96.7115 234.568 95.7239 232.922 94.6652C232.858 94.6257 232.803 94.5783 232.747 94.5309C232.668 94.4519 232.534 94.3334 232.375 94.1912C230.578 92.5953 228.86 90.9045 229.272 89.3481C229.382 88.9215 229.763 88.163 231.029 87.8944C231.631 87.768 232.233 88.1472 232.359 88.7556C232.486 89.3402 232.122 89.917 231.552 90.0671C231.766 90.4621 232.375 91.1811 233.864 92.5163C234.006 92.6427 234.125 92.7533 234.22 92.8323C235.772 93.8278 237.395 94.7521 239.05 95.5896C240.894 96.5219 242.343 97.1223 243.404 97.5569C245.835 98.5602 248.376 99.4609 250.942 100.243C251.535 100.425 251.868 101.049 251.686 101.641C251.535 102.123 251.092 102.439 250.609 102.439H250.625Z" fill="#408F95"/>
<path d="M263 103.245C259.231 103.245 255.438 103.087 251.678 102.771C251.06 102.716 250.601 102.179 250.656 101.562C250.704 100.946 251.25 100.488 251.868 100.543C256.816 100.962 261.812 101.096 266.729 100.954C266.832 100.954 277.979 100.551 287.243 98.6154C290.109 98.015 292.991 97.2091 295.793 96.2215C297.044 95.7791 297.717 95.5026 300.552 94.3333L303.988 92.9191C304.946 92.524 305.801 92.1606 306.593 91.8288C309.071 90.778 310.86 90.0274 312.99 89.4665C315.888 88.708 318.952 88.3683 322.119 88.4394C322.736 88.4552 323.227 88.9687 323.211 89.585C323.195 90.2012 322.657 90.6753 322.063 90.6753C319.11 90.6042 316.252 90.9281 313.56 91.6313C311.589 92.1448 309.863 92.8796 307.472 93.8829C306.68 94.2227 305.817 94.5861 304.851 94.9811L301.415 96.3953C298.612 97.5567 297.86 97.8649 296.546 98.3231C293.648 99.3423 290.671 100.18 287.702 100.796C278.241 102.771 266.911 103.174 266.792 103.182C265.533 103.221 264.266 103.237 262.992 103.237L263 103.245Z" fill="#408F95"/>
<path d="M323.497 80.3808C323.497 80.3808 323.465 80.3808 323.449 80.3808C322.657 80.3492 321.866 80.2781 321.09 80.1596C319.237 79.891 317.844 79.4406 317.25 79.2431L317.076 79.1878C310.765 77.2443 304.313 75.5614 297.884 74.1709C291.969 72.891 287.29 71.8876 281.131 71.3188C274.63 70.7262 267.996 70.7657 261.424 71.4452C260.807 71.5163 260.252 71.066 260.189 70.4497C260.126 69.8335 260.569 69.2804 261.187 69.2172C267.901 68.522 274.678 68.4824 281.329 69.0829C287.623 69.6596 292.357 70.6788 298.351 71.9745C304.843 73.3729 311.367 75.0795 317.733 77.0388L317.939 77.102C318.477 77.2758 319.744 77.6867 321.406 77.9316C322.071 78.0264 322.744 78.0975 323.417 78.1212C324.502 77.9316 325.579 77.663 326.624 77.3154C327.875 76.8966 328.769 76.4779 329.11 76.3199C332.475 74.7476 340.242 71.856 346.972 69.9125C350.764 68.8143 353.662 68.1743 357.272 68.1269C358.365 68.1111 359.465 68.1506 360.542 68.2454C361.16 68.3007 361.619 68.8459 361.563 69.4621C361.508 70.0784 360.969 70.5366 360.344 70.4813C359.339 70.3944 358.317 70.3628 357.296 70.3707C353.947 70.4181 351.199 71.0265 347.589 72.0693C340.266 74.1867 332.815 77.0625 330.084 78.3345C329.68 78.5242 328.698 78.9824 327.321 79.4406C326.125 79.8357 324.898 80.1438 323.663 80.3571C323.599 80.365 323.536 80.3729 323.473 80.3729L323.497 80.3808Z" fill="#408F95"/>
<path d="M356.353 106.492C356.203 106.492 356.045 106.461 355.902 106.398L340.162 99.445C337.296 98.007 334.494 96.4585 331.786 94.8389C329.751 93.6143 327.724 92.3186 325.769 90.9913C325.254 90.6437 325.127 89.9484 325.476 89.4349C325.824 88.9213 326.521 88.787 327.035 89.1425C328.959 90.4461 330.947 91.7181 332.95 92.919C335.61 94.515 338.357 96.0319 341.128 97.4224L356.813 104.351C357.383 104.604 357.636 105.26 357.383 105.829C357.201 106.247 356.789 106.492 356.353 106.492Z" fill="#408F95"/>
<path d="M356.354 106.493C356.037 106.493 355.72 106.358 355.499 106.098C352.64 102.716 350.416 98.987 348.888 95.013C347.605 91.6868 346.599 89.0638 347.019 85.6586C347.502 81.8031 349.537 79.2196 352.11 75.9487L352.332 75.6643C354.454 72.9702 356.955 70.5526 359.79 68.4747C360.289 68.1113 360.993 68.214 361.357 68.7118C361.722 69.2095 361.619 69.9127 361.12 70.2761C358.452 72.2354 356.092 74.5108 354.097 77.0469L353.876 77.3313C351.421 80.4442 349.648 82.6959 349.244 85.9351C348.888 88.7794 349.719 90.9362 350.978 94.2071C352.419 97.952 354.517 101.468 357.217 104.652C357.613 105.126 357.557 105.829 357.082 106.232C356.868 106.406 356.615 106.493 356.362 106.493H356.354Z" fill="#408F95"/>
<path d="M260.569 94.7681C257.37 94.7681 254.9 93.5672 253.626 92.785C253.095 92.4611 252.937 91.7737 253.261 91.2444C253.586 90.715 254.275 90.5491 254.805 90.8809C256.017 91.6236 258.526 92.8166 261.733 92.4611C264.947 92.1055 266.927 90.4148 268.241 89.3008C268.661 88.9453 268.914 88.6846 269.064 88.5108C268.534 88.3053 267.299 88.0999 264.552 88.0288C261.408 87.9577 258.162 88.3132 254.916 89.1033C254.314 89.2534 253.705 88.8821 253.562 88.2816C253.412 87.6812 253.784 87.0728 254.386 86.9306C257.822 86.0932 261.266 85.7139 264.607 85.7929C267.964 85.8719 271.012 86.1011 271.463 87.9893C271.677 88.89 271.17 89.7669 269.706 91.0152C268.281 92.2319 265.89 94.2624 261.986 94.6969C261.503 94.7523 261.028 94.776 260.577 94.776L260.569 94.7681Z" fill="#408F95"/>
<path d="M247.941 98.0782C247.608 98.0782 247.276 97.928 247.054 97.6436C246.674 97.1538 246.761 96.4506 247.252 96.0714C249.548 94.2938 251.353 92.1211 252.628 89.6087C253.301 88.2814 253.816 86.8593 254.156 85.3976C254.299 84.7972 254.9 84.418 255.502 84.5602C256.104 84.7024 256.484 85.3028 256.341 85.9033C255.961 87.5466 255.383 89.1346 254.631 90.62C253.214 93.4326 251.195 95.8581 248.63 97.8411C248.424 97.9991 248.186 98.0782 247.941 98.0782Z" fill="#408F95"/>
<path d="M239.248 84.9869C239.248 84.9869 239.224 84.9869 239.208 84.9869C237.854 84.9711 236.762 83.8492 236.785 82.4982C236.801 81.1551 237.902 80.0806 239.248 80.0806C239.256 80.0806 239.271 80.0806 239.279 80.0806C240.633 80.0964 241.726 81.2183 241.702 82.5693C241.686 83.9124 240.586 84.9869 239.24 84.9869H239.248ZM239.248 82.3164C239.129 82.3164 239.034 82.4113 239.034 82.5298C239.034 82.6009 239.065 82.6562 239.097 82.6799C239.129 82.7115 239.176 82.7431 239.248 82.7431C239.358 82.7431 239.461 82.6483 239.469 82.5298C239.469 82.4113 239.374 82.3164 239.256 82.3085L239.248 82.3164Z" fill="#408F95"/>
<path d="M275.604 108.625C273.641 108.625 271.669 108.436 269.737 108.072C262.635 106.713 258.645 105.228 252.026 102.755C251.448 102.542 251.155 101.894 251.369 101.317C251.591 100.741 252.232 100.448 252.81 100.662C259.54 103.174 263.245 104.557 270.157 105.876C271.946 106.216 273.783 106.39 275.596 106.39H275.628C276.958 106.39 278.304 106.295 279.626 106.105C280.742 105.947 281.7 105.56 282.041 105.299C281.716 104.873 280.426 103.806 276.91 102.297C276.34 102.052 276.079 101.396 276.325 100.828C276.57 100.259 277.227 99.998 277.797 100.243C284.012 102.905 284.551 104.572 284.321 105.726C283.933 107.669 280.6 108.238 279.943 108.333C278.518 108.531 277.069 108.633 275.636 108.641H275.596L275.604 108.625Z" fill="#408F95"/>
<path d="M304.843 104.098C304.336 104.098 303.83 104.091 303.323 104.067C298.422 103.846 293.513 102.51 289.135 100.211C288.589 99.9269 288.375 99.2475 288.668 98.7023C288.953 98.1572 289.634 97.9439 290.18 98.2362C294.273 100.385 298.858 101.626 303.426 101.839C306.775 101.989 310.108 101.602 313.346 100.693C313.022 99.6109 312.381 97.9518 311.264 96.8299C310.916 96.4822 310.346 95.9055 309.443 95.5105C309.206 95.4078 309.024 95.3445 308.533 95.1944L308.184 95.0838C307.171 94.7599 306.347 94.4834 305.801 94.2938C305.215 94.0963 304.906 93.4563 305.104 92.8717C305.31 92.287 305.944 91.9789 306.53 92.1764C307.068 92.3581 307.868 92.6346 308.865 92.9507L309.214 93.0613C309.744 93.2272 310.005 93.3141 310.362 93.4642C311.644 94.033 312.436 94.8231 312.856 95.2418C314.859 97.2486 315.619 100.33 315.801 101.223C315.92 101.784 315.587 102.345 315.041 102.518C311.723 103.569 308.295 104.106 304.851 104.106L304.843 104.098Z" fill="#408F95"/>
<path d="M309.055 76.8335C308.461 76.8335 307.963 76.3674 307.931 75.7669C307.899 75.1507 308.382 74.6292 309 74.5976C310.401 74.5344 311.644 74.4159 312.8 74.25C313.41 74.1552 313.988 74.5818 314.075 75.1902C314.17 75.7985 313.742 76.3753 313.133 76.4622C311.905 76.6439 310.583 76.7703 309.103 76.8335C309.087 76.8335 309.071 76.8335 309.047 76.8335H309.055Z" fill="#408F95"/>
<path d="M312.966 76.47C312.38 76.47 311.89 76.0117 311.85 75.4192C311.81 74.8029 312.278 74.2657 312.895 74.2262C316.751 73.9813 318.659 72.7014 318.841 71.54C318.999 70.5366 317.931 68.8775 314.384 67.4791C313.806 67.2499 313.528 66.6021 313.75 66.0253C313.98 65.4486 314.629 65.1642 315.207 65.3933C319.253 66.9892 321.438 69.4226 321.05 71.8876C320.646 74.4553 317.646 76.1618 313.03 76.4621C313.006 76.4621 312.982 76.4621 312.958 76.4621L312.966 76.47Z" fill="#408F95"/>
<path d="M265.605 67.4871C265.09 67.4871 264.631 67.1316 264.512 66.618C264.377 66.0176 264.757 65.4171 265.359 65.2828C277.243 62.6045 289.238 61.846 301.019 63.0232C304.328 63.3551 307.662 63.8449 310.94 64.4769C311.549 64.5955 311.945 65.1801 311.826 65.7885C311.707 66.3968 311.122 66.7918 310.512 66.6733C307.305 66.0492 304.043 65.5672 300.797 65.2433C289.262 64.0898 277.504 64.8325 265.858 67.4634C265.771 67.4792 265.692 67.495 265.612 67.495L265.605 67.4871Z" fill="#408F95"/>
<path d="M248.59 74.7559C248.226 74.7559 247.862 74.5742 247.648 74.2502C247.307 73.7367 247.45 73.0414 247.973 72.7017C249.944 71.4139 252.018 70.2446 254.132 69.2254C256.159 68.2458 258.265 67.3925 260.403 66.6735C260.902 66.5076 261.329 66.3733 261.63 66.2785C262.216 66.0889 262.849 66.4207 263.031 67.0133C263.213 67.6058 262.889 68.2299 262.295 68.4117C262.01 68.4986 261.606 68.6329 261.123 68.7909C259.073 69.4783 257.054 70.3078 255.114 71.2401C253.079 72.2198 251.092 73.3417 249.208 74.5742C249.018 74.7006 248.804 74.7559 248.598 74.7559H248.59Z" fill="#408F95"/>
<path d="M270.102 69.004C269.872 69.004 269.634 68.9092 269.468 68.7196C269.159 68.372 269.191 67.8426 269.539 67.5345C269.698 67.3923 269.927 67.1948 270.22 66.9657C271.305 66.1124 272.508 65.4092 273.799 64.8641C274.797 64.4454 275.842 64.1214 276.918 63.9081C277.37 63.8133 277.813 64.1135 277.908 64.5718C277.995 65.03 277.702 65.4646 277.243 65.5594C276.285 65.749 275.351 66.0334 274.456 66.4126C273.3 66.9025 272.223 67.5345 271.257 68.293C270.996 68.4984 270.79 68.6722 270.648 68.7986C270.49 68.9408 270.292 69.0119 270.094 69.0119L270.102 69.004Z" fill="#408F95"/>
<path d="M277.813 67.9376C277.536 67.9376 277.267 67.8033 277.101 67.5505C276.847 67.1633 276.966 66.6419 277.354 66.3891C277.52 66.2785 277.766 66.1284 278.066 65.9466C279.191 65.2672 280.386 64.643 281.637 64.09C282.595 63.6634 283.585 63.2762 284.567 62.9523C285.01 62.8022 285.485 63.0392 285.635 63.4816C285.786 63.9241 285.548 64.3981 285.105 64.5482C284.171 64.8564 283.237 65.2277 282.326 65.6306C281.146 66.16 280.006 66.7446 278.945 67.3925C278.66 67.5663 278.431 67.7085 278.272 67.8112C278.13 67.8981 277.971 67.9455 277.821 67.9455L277.813 67.9376Z" fill="#408F95"/>
<path d="M287.195 67.9534C286.934 67.9534 286.681 67.8349 286.514 67.6136C286.237 67.2423 286.317 66.713 286.689 66.4364C286.855 66.3179 287.092 66.1441 287.385 65.9387C288.494 65.1882 289.697 64.5324 290.964 63.9794C291.946 63.5527 292.959 63.1972 293.973 62.9207C294.424 62.8022 294.883 63.0629 295.01 63.5053C295.136 63.9557 294.867 64.4139 294.424 64.5403C293.482 64.801 292.547 65.1328 291.645 65.52C290.473 66.0256 289.365 66.6419 288.343 67.3292C288.066 67.5109 287.852 67.6769 287.702 67.7875C287.552 67.8981 287.377 67.9534 287.203 67.9534H287.195Z" fill="#408F95"/>
<path d="M305.334 98.2365C305.334 98.2365 305.255 98.2365 305.215 98.2286L298.889 97.3517C298.43 97.2885 298.105 96.8618 298.169 96.4036C298.232 95.9454 298.66 95.6214 299.119 95.6846L305.445 96.5616C305.904 96.6248 306.229 97.0514 306.165 97.5097C306.11 97.9284 305.746 98.2365 305.334 98.2365Z" fill="#408F95"/>
<path d="M346.045 96.5454C345.895 96.5454 345.736 96.5059 345.594 96.4111C343.718 95.2181 342.047 93.7644 340.646 92.0737C338.793 89.8378 337.043 87.7283 337.265 85.0421C337.494 82.2927 339.656 80.4992 341.936 78.5952C343.82 77.023 345.95 75.7905 348.27 74.9214C348.706 74.7555 349.188 74.9767 349.355 75.4112C349.521 75.8458 349.299 76.3277 348.864 76.4936C346.718 77.2995 344.755 78.4372 343.013 79.883C340.836 81.7001 339.118 83.1301 338.943 85.1764C338.777 87.1832 340.171 88.866 341.936 90.9992C343.227 92.5556 344.755 93.8908 346.489 94.989C346.885 95.2339 346.995 95.7554 346.75 96.1504C346.592 96.4032 346.314 96.5375 346.037 96.5375L346.045 96.5454Z" fill="#408F95"/>
<path d="M96.4099 113.832C95.9982 113.832 95.6103 113.579 95.4599 113.177C95.1669 112.418 95.0957 111.668 95.2303 110.949C95.9032 107.433 101.287 106.208 105.214 105.308C109.284 104.375 113.535 104.012 117.85 104.209C118.412 104.233 118.848 104.715 118.824 105.276C118.8 105.837 118.325 106.256 117.755 106.248C113.622 106.05 109.561 106.406 105.673 107.291C102.673 107.978 97.653 109.124 97.2334 111.328C97.17 111.668 97.2175 112.047 97.368 112.45C97.5659 112.971 97.3046 113.564 96.7741 113.761C96.6554 113.809 96.5366 113.824 96.4099 113.824V113.832Z" fill="#408F95"/>
<path d="M107.605 125.984C107.431 125.984 107.249 125.936 107.09 125.841C105.388 124.838 103.733 123.748 102.166 122.61C101.485 122.112 100.543 121.433 99.3631 120.422C98.2863 119.505 97.257 118.525 96.2911 117.514C96.2436 117.467 96.204 117.411 96.1644 117.356C96.1248 117.293 96.0536 117.19 95.9665 117.072C94.9531 115.602 94.0109 114.077 94.6205 112.963C94.7947 112.639 95.2381 112.102 96.2832 112.142C96.8453 112.158 97.2887 112.624 97.2729 113.185C97.257 113.627 96.9641 113.998 96.5603 114.125C96.6949 114.457 97.0037 115.002 97.6371 115.918C97.7083 116.021 97.7717 116.116 97.8192 116.187C98.7138 117.127 99.6797 118.036 100.677 118.881C101.802 119.837 102.696 120.493 103.353 120.967C104.866 122.065 106.465 123.116 108.112 124.087C108.595 124.372 108.753 124.996 108.468 125.478C108.278 125.802 107.938 125.976 107.589 125.976L107.605 125.984Z" fill="#408F95"/>
<path d="M134.975 131.103C134.453 131.103 133.938 131.095 133.424 131.079C126.504 130.858 118.8 129.278 118.476 129.207C114.968 128.464 111.461 127.508 108.025 126.363C107.494 126.181 107.201 125.612 107.383 125.075C107.565 124.546 108.135 124.253 108.674 124.435C112.031 125.557 115.475 126.489 118.895 127.216C118.966 127.232 126.757 128.828 133.495 129.049C135.577 129.12 137.707 129.049 139.805 128.828C140.747 128.733 141.262 128.654 143.431 128.314L146.044 127.911C146.772 127.801 147.429 127.69 148.031 127.595C149.931 127.287 151.309 127.058 152.892 127.034C155.046 126.995 157.263 127.279 159.464 127.864C160.01 128.006 160.327 128.567 160.184 129.112C160.042 129.657 159.48 129.973 158.933 129.831C156.914 129.294 154.895 129.033 152.924 129.065C151.483 129.088 150.169 129.302 148.356 129.602C147.746 129.705 147.081 129.807 146.345 129.926L143.74 130.329C141.586 130.661 141 130.755 140.011 130.85C138.34 131.016 136.654 131.103 134.983 131.103H134.975Z" fill="#408F95"/>
<path d="M163.082 122.989C162.67 122.989 162.251 122.974 161.839 122.95C161.768 122.95 161.697 122.934 161.633 122.91C161.087 122.752 160.541 122.563 160.01 122.349C158.751 121.844 157.857 121.291 157.469 121.054L157.366 120.99C153.32 118.581 149.132 116.329 144.912 114.283C141.024 112.402 137.96 110.917 133.788 109.495C129.386 107.994 124.794 106.912 120.13 106.272C119.576 106.193 119.18 105.687 119.259 105.126C119.339 104.573 119.845 104.17 120.407 104.257C125.205 104.905 129.924 106.019 134.453 107.567C138.736 109.029 141.856 110.538 145.798 112.45C150.074 114.52 154.318 116.803 158.411 119.237L158.545 119.316C158.886 119.529 159.686 120.019 160.778 120.461C161.206 120.635 161.649 120.785 162.092 120.919C162.86 120.967 163.636 120.959 164.396 120.896C165.331 120.817 166.012 120.682 166.265 120.627C168.878 120.098 174.768 119.402 179.78 119.181C182.614 119.063 184.752 119.102 187.286 119.679C188.054 119.853 188.814 120.074 189.558 120.319C190.088 120.501 190.373 121.077 190.199 121.607C190.017 122.136 189.439 122.42 188.909 122.247C188.236 122.018 187.539 121.82 186.834 121.662C184.522 121.133 182.535 121.093 179.867 121.212C174.444 121.449 168.798 122.183 166.692 122.61C166.384 122.673 165.616 122.831 164.563 122.918C164.072 122.958 163.573 122.981 163.082 122.981V122.989Z" fill="#408F95"/>
<path d="M180.295 146.604C180.081 146.604 179.859 146.533 179.677 146.391L169.931 138.909C168.173 137.416 166.487 135.867 164.88 134.279C163.676 133.086 162.481 131.846 161.34 130.59C160.96 130.171 160.992 129.531 161.412 129.152C161.831 128.772 162.473 128.804 162.853 129.223C163.969 130.455 165.133 131.664 166.313 132.833C167.88 134.382 169.535 135.899 171.213 137.329L180.92 144.779C181.363 145.119 181.451 145.759 181.11 146.209C180.912 146.47 180.603 146.604 180.303 146.604H180.295Z" fill="#408F95"/>
<path d="M180.303 146.604C179.93 146.604 179.566 146.399 179.392 146.043C177.967 143.191 177.049 140.205 176.653 137.163C176.32 134.611 176.059 132.596 176.954 130.25C177.959 127.603 179.828 126.134 182.195 124.277L182.401 124.119C184.34 122.594 186.51 121.33 188.845 120.351C189.368 120.129 189.962 120.374 190.176 120.896C190.389 121.417 190.152 122.01 189.629 122.223C187.468 123.124 185.457 124.301 183.66 125.707L183.454 125.865C181.253 127.595 179.661 128.844 178.854 130.961C178.141 132.826 178.355 134.445 178.672 136.887C179.036 139.699 179.891 142.472 181.213 145.119C181.466 145.625 181.261 146.233 180.754 146.486C180.611 146.557 180.453 146.596 180.303 146.596V146.604Z" fill="#408F95"/>
<path d="M117.739 122.571C117.367 122.571 116.979 122.547 116.583 122.5C113.749 122.136 111.857 120.595 110.978 119.711C110.582 119.308 110.582 118.668 110.986 118.273C111.39 117.878 112.031 117.878 112.427 118.281C113.123 118.984 114.612 120.2 116.845 120.485C119.069 120.777 120.692 119.956 121.769 119.41C121.928 119.331 122.054 119.26 122.157 119.205C121.658 118.952 120.756 118.66 119.465 118.312C117.312 117.735 115.024 117.443 112.656 117.443C112.094 117.443 111.635 116.985 111.635 116.424C111.635 115.863 112.094 115.405 112.656 115.405C115.206 115.405 117.668 115.721 119.996 116.345C122.49 117.017 124.548 117.688 124.54 119.237C124.54 120.169 123.646 120.746 122.688 121.228C121.706 121.717 120.004 122.579 117.739 122.579V122.571Z" fill="#408F95"/>
<path d="M106.481 122.507C106.093 122.507 105.721 122.286 105.547 121.907C105.317 121.393 105.547 120.793 106.061 120.564C107.922 119.726 109.521 118.541 110.804 117.04C111.485 116.242 112.07 115.357 112.546 114.417C112.799 113.911 113.409 113.714 113.915 113.967C114.422 114.22 114.62 114.828 114.367 115.334C113.82 116.424 113.139 117.443 112.356 118.367C110.875 120.106 109.038 121.472 106.893 122.428C106.758 122.492 106.615 122.515 106.473 122.515L106.481 122.507Z" fill="#408F95"/>
<path d="M102.886 111.984C102.72 111.984 102.554 111.96 102.388 111.921C101.335 111.652 100.693 110.57 100.97 109.519C101.105 109.005 101.422 108.579 101.881 108.318C102.34 108.049 102.871 107.978 103.377 108.105C103.892 108.239 104.319 108.555 104.589 109.013C104.858 109.464 104.929 110.001 104.802 110.506C104.668 111.012 104.351 111.447 103.892 111.707C103.583 111.889 103.243 111.984 102.894 111.984H102.886ZM102.886 109.953C102.886 109.953 102.831 109.977 102.823 110.001C102.823 110.032 102.839 110.072 102.87 110.08C102.91 110.088 102.942 110.064 102.95 110.032C102.958 110.001 102.942 109.961 102.902 109.953C102.902 109.953 102.902 109.953 102.894 109.953H102.886Z" fill="#408F95"/>
<path d="M127.517 135.022C127.193 135.022 126.923 134.998 126.749 134.982C125.72 134.88 124.683 134.706 123.677 134.461C122.3 134.129 120.938 133.655 119.639 133.071C114.929 130.929 112.403 129.215 108.215 126.379C107.748 126.063 107.629 125.431 107.945 124.964C108.262 124.498 108.896 124.38 109.363 124.696C113.599 127.564 115.934 129.144 120.487 131.222C121.666 131.759 122.909 132.186 124.16 132.486C125.071 132.707 126.013 132.865 126.947 132.96C127.525 133.015 128.087 132.968 128.42 132.897C128.127 132.446 127.311 131.569 125.554 130.25C125.102 129.91 125.015 129.278 125.348 128.828C125.688 128.378 126.322 128.291 126.773 128.622C130.74 131.593 130.85 132.905 130.439 133.789C129.956 134.832 128.499 135.022 127.509 135.022H127.517Z" fill="#408F95"/>
<path d="M150.422 136.926C148.126 136.926 145.862 136.602 143.653 135.962C140.256 134.974 137.05 133.205 134.374 130.85C133.954 130.479 133.914 129.839 134.287 129.412C134.659 128.994 135.3 128.954 135.727 129.325C138.182 131.482 141.119 133.102 144.231 134.011C146.44 134.65 148.72 134.943 151.016 134.887C150.961 134.113 150.778 133.015 150.272 132.178C150.09 131.877 149.812 131.419 149.282 131.016C149.124 130.898 149.005 130.827 148.728 130.661L148.498 130.526C147.849 130.131 147.319 129.799 146.97 129.578C146.495 129.278 146.361 128.646 146.661 128.172C146.962 127.698 147.596 127.564 148.071 127.864C148.411 128.085 148.918 128.401 149.559 128.788L149.781 128.923C150.153 129.152 150.311 129.246 150.525 129.404C151.356 130.036 151.8 130.771 152.014 131.127C153.098 132.912 153.098 135.227 153.074 135.891C153.059 136.412 152.647 136.831 152.124 136.871C151.554 136.91 150.992 136.926 150.422 136.926Z" fill="#408F95"/>
<path d="M155.268 118.462C155.268 118.462 155.204 118.462 155.173 118.462C154.278 118.383 153.336 118.241 152.291 118.043C151.737 117.933 151.38 117.403 151.483 116.85C151.594 116.297 152.132 115.942 152.679 116.045C153.661 116.234 154.531 116.361 155.355 116.44C155.917 116.487 156.329 116.985 156.281 117.546C156.234 118.075 155.79 118.47 155.268 118.47V118.462Z" fill="#408F95"/>
<path d="M157.239 118.652C156.574 118.652 155.854 118.589 155.086 118.454C154.531 118.36 154.159 117.83 154.262 117.277C154.357 116.724 154.888 116.353 155.442 116.455C158.031 116.914 159.504 116.392 159.789 115.729C160.05 115.112 159.432 113.809 157.461 112.418C157.002 112.094 156.891 111.462 157.215 111.004C157.54 110.546 158.173 110.435 158.633 110.759C161.261 112.616 162.393 114.765 161.665 116.511C161.079 117.909 159.48 118.66 157.239 118.66V118.652Z" fill="#408F95"/>
<path d="M155.355 111.296C155.212 111.296 155.07 111.265 154.927 111.201C152.813 110.23 150.636 109.353 148.443 108.586C140.652 105.853 132.387 104.391 123.883 104.249C123.321 104.241 122.87 103.775 122.878 103.214C122.886 102.653 123.369 102.203 123.915 102.211C132.64 102.353 141.119 103.854 149.116 106.659C151.365 107.449 153.605 108.349 155.775 109.345C156.289 109.582 156.511 110.182 156.273 110.696C156.099 111.067 155.735 111.288 155.347 111.288L155.355 111.296Z" fill="#408F95"/>
<path d="M110.875 106.43C110.455 106.43 110.059 106.169 109.917 105.75C109.727 105.221 110.004 104.636 110.534 104.455C112.126 103.886 113.773 103.427 115.427 103.072C117.003 102.732 118.626 102.495 120.241 102.353C120.621 102.321 120.938 102.298 121.16 102.282C121.73 102.242 122.205 102.669 122.244 103.23C122.276 103.791 121.856 104.273 121.294 104.312C121.08 104.328 120.779 104.344 120.423 104.375C118.895 104.51 117.359 104.739 115.863 105.063C114.295 105.395 112.735 105.837 111.223 106.374C111.112 106.414 110.994 106.43 110.883 106.43H110.875Z" fill="#408F95"/>
<path d="M127.058 105.268C126.86 105.268 126.662 105.158 126.559 104.968C126.417 104.691 126.52 104.36 126.797 104.21C126.931 104.138 127.121 104.044 127.367 103.933C128.262 103.53 129.212 103.238 130.201 103.08C130.961 102.953 131.737 102.914 132.521 102.945C132.83 102.961 133.067 103.222 133.059 103.53C133.044 103.838 132.79 104.075 132.474 104.067C131.777 104.036 131.072 104.075 130.383 104.186C129.497 104.328 128.642 104.589 127.834 104.952C127.62 105.047 127.446 105.134 127.327 105.197C127.24 105.245 127.153 105.26 127.066 105.26L127.058 105.268Z" fill="#408F95"/>
<path d="M132.26 106.35C132.03 106.35 131.808 106.208 131.729 105.971C131.626 105.679 131.785 105.363 132.078 105.26C132.212 105.213 132.41 105.149 132.648 105.07C133.542 104.794 134.477 104.557 135.435 104.383C136.171 104.249 136.923 104.146 137.659 104.083C137.96 104.051 138.237 104.288 138.269 104.596C138.293 104.905 138.063 105.173 137.754 105.205C137.058 105.268 136.345 105.363 135.64 105.489C134.73 105.655 133.835 105.876 132.988 106.137C132.758 106.208 132.576 106.271 132.45 106.311C132.386 106.335 132.331 106.342 132.268 106.342L132.26 106.35Z" fill="#408F95"/>
<path d="M138.768 107.946C138.546 107.946 138.34 107.82 138.253 107.607C138.134 107.322 138.269 106.99 138.554 106.872C138.689 106.817 138.887 106.738 139.124 106.651C140.019 106.319 140.961 106.066 141.927 105.892C142.679 105.766 143.439 105.687 144.191 105.663C144.5 105.663 144.761 105.9 144.769 106.208C144.777 106.516 144.532 106.777 144.223 106.785C143.526 106.809 142.814 106.88 142.117 106.998C141.214 107.156 140.343 107.393 139.512 107.701C139.29 107.78 139.108 107.859 138.989 107.907C138.918 107.938 138.847 107.954 138.776 107.954L138.768 107.946Z" fill="#408F95"/>
<path d="M146.242 132.019C146.171 132.019 146.099 132.004 146.036 131.98L141.792 130.305C141.507 130.194 141.365 129.863 141.476 129.578C141.586 129.294 141.919 129.152 142.204 129.262L146.448 130.937C146.733 131.048 146.875 131.38 146.764 131.664C146.677 131.885 146.464 132.019 146.242 132.019Z" fill="#408F95"/>
<path d="M174.776 137.984C174.555 137.984 174.333 137.898 174.167 137.724C173.042 136.562 172.124 135.251 171.427 133.821C170.493 131.917 169.614 130.115 170.263 128.188C170.92 126.22 172.765 125.32 174.721 124.364C176.32 123.582 178.03 123.076 179.82 122.855C180.287 122.799 180.698 123.123 180.754 123.59C180.809 124.048 180.485 124.467 180.018 124.522C178.426 124.711 176.89 125.17 175.465 125.865C173.699 126.734 172.298 127.413 171.863 128.717C171.435 129.989 172.1 131.356 172.947 133.078C173.565 134.35 174.388 135.519 175.386 136.554C175.71 136.886 175.695 137.424 175.362 137.74C175.196 137.898 174.99 137.977 174.776 137.977V137.984Z" fill="#408F95"/>
<path d="M25.0427 18.6058C24.8843 18.6058 24.726 18.5663 24.5755 18.4952C20.9019 16.5991 17.054 15.2323 13.1508 14.4264C10.1342 13.8023 5.09878 12.7594 3.79241 14.5923C3.59448 14.8767 3.47572 15.2402 3.44405 15.6668C3.40446 16.2277 2.91358 16.6465 2.35937 16.6149C1.79723 16.5754 1.36969 16.0934 1.40928 15.5325C1.4647 14.7187 1.71014 14.0077 2.12976 13.4151C4.20412 10.4998 9.61169 11.6217 13.5625 12.4354C17.6478 13.2808 21.6619 14.7108 25.5098 16.6939C26.0086 16.9546 26.2065 17.563 25.9453 18.0607C25.7632 18.4083 25.4069 18.6137 25.0427 18.6137V18.6058Z" fill="#408F95"/>
<path d="M7.53737 32.3135C7.21276 32.3135 6.89606 32.1633 6.69813 31.8789C5.56594 30.2593 4.52085 28.5844 3.57076 26.8936C3.15906 26.1589 2.589 25.1476 1.93978 23.7413C1.34597 22.4614 0.815509 21.142 0.356301 19.8147C0.332549 19.7514 0.316714 19.6882 0.308797 19.6171C0.30088 19.5381 0.277127 19.4196 0.253375 19.2695C-0.0554027 17.5156 -0.277089 15.7379 0.744253 14.9716C1.0372 14.7503 1.67059 14.4501 2.60484 14.9163C3.11155 15.1612 3.3174 15.7774 3.07196 16.2752C2.87403 16.6702 2.44649 16.8914 2.03479 16.8361C2.02687 17.1916 2.07437 17.8237 2.26439 18.914C2.28814 19.0404 2.30398 19.151 2.31981 19.2379C2.74735 20.4704 3.23823 21.695 3.79245 22.8801C4.41 24.2153 4.9563 25.1792 5.35217 25.8902C6.27059 27.5178 7.28401 29.1374 8.37661 30.7096C8.70122 31.1679 8.58246 31.8078 8.12325 32.1238C7.94907 32.2502 7.74322 32.3056 7.54529 32.3056L7.53737 32.3135Z" fill="#408F95"/>
<path d="M52.8169 57.2794C52.5873 57.2794 52.3577 57.2004 52.1677 57.0424C50.5605 55.7151 48.8266 54.6406 47.0293 53.8505C45.715 53.2738 44.4324 52.9262 42.651 52.4442C42.0572 52.2783 41.408 52.1045 40.6875 51.8991L38.1381 51.1801C36.0479 50.5876 35.4858 50.4296 34.5357 50.1056C32.4455 49.3946 30.4028 48.5413 28.4551 47.5774C22.2558 44.5041 15.914 39.8585 15.6448 39.661C12.7708 37.5278 9.97595 35.1971 7.33154 32.7322C6.91984 32.345 6.89609 31.7051 7.28404 31.2942C7.67199 30.8834 8.3133 30.8597 8.725 31.2468C11.314 33.6565 14.0455 35.9398 16.8562 38.0256C16.9195 38.073 23.3326 42.7581 29.3656 45.7524C31.2341 46.6768 33.1897 47.4905 35.1928 48.1779C36.0875 48.4781 36.5863 48.6203 38.6844 49.2129L41.2338 49.9318C41.9463 50.1372 42.5877 50.3111 43.1815 50.4691C45.042 50.9747 46.3801 51.346 47.8369 51.9781C49.8162 52.8393 51.7085 54.0165 53.4582 55.4623C53.8937 55.8178 53.9491 56.4578 53.5928 56.8923C53.3949 57.1372 53.1019 57.2636 52.809 57.2636L52.8169 57.2794Z" fill="#408F95"/>
<path d="M83.283 62.897C83.0296 62.897 82.7842 62.8022 82.5862 62.6205C82.0637 62.1306 81.5174 61.6645 80.9473 61.2299C79.0709 59.792 77.2737 58.9309 74.8035 57.9275C69.768 55.8891 64.3367 54.2142 62.2465 53.7243C61.9377 53.6532 61.1697 53.4715 60.18 53.116C59.325 52.8079 58.4936 52.4365 57.694 52.002C57.6306 51.9704 57.5752 51.9309 57.5198 51.8835C57.0923 51.5122 56.6726 51.1171 56.2768 50.6984C55.3504 49.7187 54.7566 48.8418 54.5112 48.4625L54.4399 48.3598C51.7718 44.4964 48.8978 40.6962 45.9129 37.0856C43.1577 33.7594 40.9962 31.1364 37.8055 28.1105C34.4327 24.9186 30.7115 22.0191 26.737 19.5067C26.262 19.2065 26.1195 18.5744 26.4203 18.1004C26.7212 17.6264 27.3546 17.4841 27.8296 17.7844C31.915 20.3679 35.747 23.3464 39.2148 26.6331C42.4926 29.7459 44.7016 32.4084 47.4885 35.782C50.5208 39.4479 53.4265 43.2876 56.1263 47.2063L56.2134 47.3327C56.4351 47.6646 56.9577 48.4388 57.7652 49.3C58.0819 49.6397 58.4224 49.9636 58.7708 50.2639C59.4437 50.6273 60.1563 50.9433 60.8768 51.204C61.7556 51.5201 62.4286 51.6781 62.6899 51.7413C65.2868 52.3496 70.9319 54.1589 75.5794 56.0471C78.2079 57.1137 80.1318 58.0381 82.1983 59.6182C82.8238 60.1002 83.4255 60.6137 83.9955 61.143C84.4072 61.5302 84.4231 62.1701 84.0351 62.581C83.8372 62.7943 83.568 62.897 83.2909 62.897H83.283Z" fill="#408F95"/>
<path d="M65.0256 81.2738C64.6614 81.2738 64.3051 81.0763 64.123 80.7286L58.3829 69.8811C57.4091 67.7874 56.5223 65.6858 55.7227 63.5764C55.121 61.9962 54.5588 60.3766 54.0521 58.7491C53.8859 58.2118 54.1788 57.643 54.7172 57.4771C55.2556 57.3112 55.8256 57.6035 55.9919 58.1407C56.4907 59.7287 57.0449 61.3168 57.6308 62.8574C58.4146 64.9195 59.2776 66.9815 60.2118 68.9804L65.9282 79.7806C66.1895 80.2783 65.9995 80.8945 65.5007 81.1553C65.3502 81.2343 65.184 81.2738 65.0256 81.2738Z" fill="#408F95"/>
<path d="M65.0175 81.2737C64.4712 81.2737 64.0199 80.8391 63.9962 80.2861C63.8932 77.1021 64.3049 74.0051 65.2154 71.0739C65.9834 68.6168 66.5852 66.6733 68.3745 64.9193C70.3934 62.9284 72.7053 62.3753 75.6347 61.6722L75.8881 61.609C78.287 61.0322 80.7889 60.7794 83.3146 60.8663C83.8767 60.8821 84.3201 61.3562 84.2963 61.9171C84.2805 62.478 83.8213 62.9284 83.2433 62.8968C80.8998 62.8178 78.5879 63.0469 76.3631 63.5841L76.1098 63.6473C73.3862 64.3031 71.4227 64.7771 69.7996 66.3731C68.3745 67.7715 67.8915 69.3279 67.1631 71.6823C66.316 74.3922 65.9359 77.268 66.0389 80.2229C66.0547 80.7838 65.6192 81.2579 65.0492 81.2737C65.0413 81.2737 65.0254 81.2737 65.0175 81.2737Z" fill="#408F95"/>
<path d="M21.9233 34.1701C20.5852 34.1701 18.6771 33.9884 16.7295 32.7717C14.3067 31.2627 13.23 29.0742 12.8024 27.9049C12.6124 27.3756 12.8816 26.7909 13.4121 26.6013C13.9425 26.4117 14.5284 26.6803 14.7184 27.2097C15.0589 28.134 15.906 29.8643 17.8141 31.0494C19.7143 32.2345 21.5353 32.1634 22.7387 32.116C22.9129 32.116 23.0554 32.1002 23.1742 32.0844C22.8179 31.6498 22.1291 31.002 21.0998 30.1487C19.3818 28.7266 17.4262 27.5099 15.2727 26.5302C14.758 26.2932 14.5363 25.6927 14.7739 25.1792C15.0035 24.6657 15.6131 24.4444 16.1277 24.6815C18.4396 25.7402 20.5535 27.0517 22.4062 28.5844C24.3935 30.2277 25.9849 31.7051 25.3356 33.1035C24.9398 33.9568 23.8472 34.1069 22.8179 34.1464C22.5646 34.1543 22.2637 34.1701 21.9312 34.1701H21.9233Z" fill="#408F95"/>
<path d="M8.09956 28.6793C8.05205 28.6793 8.01247 28.6793 7.96496 28.6793C7.40283 28.6793 6.95154 28.2132 6.95154 27.6522C6.95154 27.0913 7.41075 26.641 7.97288 26.641C8.01247 26.641 8.05997 26.641 8.09956 26.641C10.0947 26.641 12.0028 26.2301 13.7684 25.4085C14.7185 24.966 15.6211 24.4051 16.4524 23.7493C16.8958 23.3938 17.5371 23.4649 17.8854 23.9073C18.2338 24.3498 18.1705 24.9897 17.7271 25.3374C16.7691 26.1037 15.7319 26.7437 14.6314 27.2572C12.5966 28.1974 10.4035 28.6793 8.10748 28.6793H8.09956Z" fill="#408F95"/>
<path d="M9.485 17.705C9.04954 17.705 8.60617 17.5628 8.24197 17.2626C7.83026 16.9307 7.57691 16.4567 7.52148 15.9353C7.46606 15.4138 7.62441 14.9003 7.95694 14.4894C8.28947 14.0786 8.76451 13.8258 9.28706 13.7705C9.80961 13.7152 10.3242 13.8653 10.7359 14.205C11.1476 14.5368 11.401 15.0109 11.4564 15.5323C11.5118 16.0538 11.3535 16.5673 11.021 16.9781C10.633 17.4601 10.063 17.705 9.485 17.705ZM9.485 15.6745C9.485 15.6745 9.44541 15.6745 9.43749 15.6982C9.42166 15.7219 9.42166 15.7693 9.44541 15.7851C9.46916 15.8088 9.51666 15.8009 9.5325 15.7772C9.54833 15.7535 9.54833 15.7061 9.52458 15.6903C9.51666 15.6824 9.50083 15.6745 9.485 15.6745Z" fill="#408F95"/>
<path d="M23.3959 49.2207C22.3429 49.2207 21.187 48.6123 20.7594 48.3595C19.8648 47.8381 19.0018 47.2534 18.1863 46.6135C17.0699 45.7365 16.0248 44.741 15.0906 43.6665C11.7019 39.7557 10.1185 37.1564 7.49781 32.8348C7.20487 32.3528 7.36321 31.7287 7.83826 31.4363C8.32122 31.144 8.94669 31.302 9.23963 31.7761C11.892 36.1451 13.3567 38.5548 16.6345 42.3313C17.4816 43.311 18.4317 44.2117 19.4451 45.0096C20.1815 45.5943 20.9732 46.1236 21.7887 46.5977C22.2954 46.89 22.8179 47.0796 23.1584 47.1507C23.0792 46.6214 22.7071 45.4837 21.6541 43.5559C21.3849 43.0661 21.567 42.4419 22.0658 42.1733C22.5567 41.9047 23.1821 42.0864 23.4513 42.5841C25.8186 46.9374 25.3753 48.1699 24.631 48.8098C24.2827 49.1022 23.8551 49.2128 23.4038 49.2128L23.3959 49.2207Z" fill="#408F95"/>
<path d="M43.4032 60.6766C43.2844 60.6766 43.1657 60.6529 43.0469 60.6133C40.355 59.6021 37.8927 58.1405 35.7312 56.268C33.0552 53.961 30.8779 51.0141 29.429 47.7669C29.1994 47.2534 29.429 46.6529 29.9436 46.4238C30.4583 46.1947 31.06 46.4238 31.2896 46.9374C32.6197 49.9238 34.6149 52.6179 37.0614 54.7274C38.7953 56.2285 40.7429 57.4373 42.8648 58.3459C43.134 57.6111 43.4269 56.5524 43.3161 55.5727C43.2765 55.2251 43.2132 54.6958 42.9044 54.1032C42.8094 53.9294 42.7302 53.8188 42.5481 53.5502L42.3977 53.329C41.9701 52.6969 41.6297 52.1755 41.408 51.8278C41.1071 51.3538 41.2417 50.7218 41.7168 50.4215C42.1918 50.1213 42.8173 50.2556 43.1261 50.7297C43.3398 51.0694 43.6724 51.575 44.092 52.1913L44.2424 52.4125C44.4879 52.7759 44.5908 52.926 44.7096 53.1631C45.2004 54.0874 45.2954 54.9328 45.3429 55.3436C45.5805 57.4057 44.6225 59.5152 44.3216 60.1156C44.1474 60.4711 43.7832 60.6766 43.4111 60.6766H43.4032Z" fill="#408F95"/>
<path d="M54.0044 45.2862C53.8302 45.2862 53.656 45.2467 53.4977 45.1519C52.7218 44.7095 51.9221 44.1881 51.0512 43.5718C50.592 43.2479 50.4891 42.6079 50.8137 42.1497C51.1383 41.6914 51.7796 41.5887 52.2388 41.9127C53.0464 42.4894 53.7906 42.9714 54.5111 43.3822C55.002 43.6587 55.1683 44.2829 54.8912 44.7727C54.7011 45.0966 54.3607 45.2862 54.0044 45.2862Z" fill="#408F95"/>
<path d="M58.0187 46.8587C56.7044 46.8587 55.113 46.2661 53.4266 45.1047C52.9595 44.7887 52.8486 44.1488 53.1653 43.6905C53.482 43.2244 54.1233 43.1138 54.5825 43.4298C56.744 44.9151 58.3037 45.0652 58.8342 44.5675C59.3251 44.1093 59.3092 42.6713 58.0979 40.5935C57.8128 40.1115 57.9791 39.4874 58.47 39.203C58.9529 38.9185 59.5784 39.0845 59.8634 39.5743C61.4786 42.3553 61.6132 44.7808 60.2197 46.0607C59.6418 46.5901 58.8896 46.8587 58.0187 46.8587Z" fill="#408F95"/>
<path d="M57.0844 38.8078C56.7993 38.8078 56.5143 38.6892 56.3085 38.4522C54.7883 36.6904 53.1811 34.9838 51.5105 33.38C45.5725 27.6521 38.6685 22.8959 30.9966 19.23C30.4899 18.9851 30.2761 18.3767 30.5136 17.8711C30.7591 17.3654 31.3608 17.1521 31.8754 17.3891C39.7453 21.1419 46.8313 26.0324 52.9277 31.9105C54.6379 33.5617 56.3005 35.3157 57.8523 37.1249C58.2165 37.5516 58.169 38.1915 57.7415 38.5628C57.5515 38.7288 57.314 38.8078 57.0764 38.8078H57.0844Z" fill="#408F95"/>
<path d="M28.9698 18.2663C28.851 18.2663 28.7243 18.2426 28.6056 18.1952C28.4076 18.1162 28.1226 18.0135 27.7822 17.8949C26.3333 17.3814 24.8448 16.9548 23.3484 16.6229C21.7808 16.2753 20.1815 16.0304 18.5822 15.8882C18.02 15.8408 17.6083 15.343 17.6558 14.7821C17.7033 14.2212 18.1942 13.8103 18.7643 13.8577C20.4507 14.0078 22.1371 14.2686 23.7918 14.632C25.3674 14.9796 26.935 15.43 28.4631 15.9751C28.8193 16.1015 29.1202 16.2121 29.334 16.299C29.8565 16.4965 30.1257 17.0891 29.9199 17.6105C29.7615 18.0135 29.3815 18.2663 28.9698 18.2663Z" fill="#408F95"/>
<path d="M39.1198 22.6825C39.0327 22.6825 38.9456 22.6588 38.8665 22.6193C38.241 22.3032 37.5918 22.0504 36.9188 21.8608C36.0558 21.6238 35.1611 21.5053 34.2823 21.4974C34.0448 21.4974 33.8468 21.4974 33.7202 21.5132C33.3955 21.529 33.1422 21.292 33.1264 20.9838C33.1105 20.6757 33.348 20.4071 33.6568 20.3913C33.8073 20.3834 34.0289 20.3755 34.2902 20.3755C35.272 20.3755 36.2616 20.5098 37.2196 20.7784C37.9639 20.9838 38.6923 21.2683 39.3811 21.6159C39.6582 21.7581 39.769 22.0978 39.6265 22.3664C39.5236 22.564 39.3336 22.6746 39.1277 22.6746L39.1198 22.6825Z" fill="#408F95"/>
<path d="M43.3793 25.898C43.316 25.898 43.2527 25.8901 43.1893 25.8664C42.5243 25.6294 41.8434 25.424 41.1466 25.2423C40.252 25.0132 39.3494 24.8472 38.4626 24.7287C38.2251 24.6971 38.0351 24.6813 37.9005 24.6655C37.5917 24.6339 37.3621 24.3653 37.3938 24.0572C37.4255 23.7491 37.7026 23.5278 38.0034 23.5515C38.1459 23.5673 38.3518 23.5831 38.5972 23.6147C39.5236 23.7333 40.4737 23.915 41.4158 24.152C42.1442 24.3337 42.8647 24.5549 43.5614 24.8077C43.8544 24.9105 44.0048 25.2344 43.9019 25.5267C43.8227 25.7558 43.601 25.898 43.3714 25.898H43.3793Z" fill="#408F95"/>
<path d="M48.6444 30.0225C48.5731 30.0225 48.5019 30.0067 48.4227 29.9751C47.7735 29.6986 47.1005 29.4773 46.4196 29.2956C45.5329 29.0665 44.6382 28.9164 43.7594 28.8532C43.5219 28.8374 43.3318 28.8295 43.1972 28.8216C42.8885 28.8137 42.643 28.553 42.6509 28.2448C42.6589 27.9367 42.9122 27.6997 43.2289 27.6997C43.3714 27.6997 43.5852 27.7155 43.8386 27.7313C44.7886 27.8024 45.7546 27.9604 46.7046 28.2132C47.433 28.4029 48.1614 28.6478 48.8582 28.948C49.1432 29.0665 49.2778 29.3983 49.159 29.6828C49.0719 29.8961 48.8582 30.0225 48.6444 30.0225Z" fill="#408F95"/>
<path d="M39.9511 53.811C39.8007 53.811 39.6582 53.7557 39.5473 53.6372L36.3883 50.3505C36.1745 50.1293 36.1824 49.7738 36.4041 49.5604C36.6258 49.3471 36.9821 49.355 37.1959 49.5762L40.3549 52.8629C40.5687 53.0841 40.5608 53.4397 40.3391 53.653C40.2282 53.7557 40.0936 53.811 39.9511 53.811Z" fill="#408F95"/>
<path d="M63.5291 71.1292C63.1808 71.1292 62.8562 70.9159 62.7374 70.5683C62.199 69.0435 61.914 67.4712 61.8744 65.8832C61.8269 63.7579 61.7715 61.7591 63.1649 60.2738C64.5821 58.7648 66.6328 58.7094 68.81 58.6462C70.5914 58.5988 72.357 58.8517 74.0751 59.3968C74.5185 59.539 74.7639 60.013 74.6214 60.4555C74.4789 60.8979 74.0038 61.1428 73.5605 61.0006C72.0324 60.5108 70.441 60.2896 68.8575 60.3291C66.8861 60.3844 65.3343 60.4239 64.3921 61.4273C63.4737 62.4069 63.5133 63.9239 63.5529 65.8437C63.5846 67.2579 63.8458 68.6642 64.3209 70.0153C64.4713 70.4498 64.2417 70.9317 63.8062 71.0818C63.7112 71.1134 63.6162 71.1292 63.5291 71.1292Z" fill="#408F95"/>
</g>
<defs>
<clipPath id="clip0_131_1306">
<rect width="437" height="201" fill="white"/>
</clipPath>
</defs>
</svg>
