<svg width="194" height="181" viewBox="0 0 194 181" fill="none" xmlns="http://www.w3.org/2000/svg">
<rect width="194" height="181" fill="#1E1E1E"/>
<g clip-path="url(#clip0_0_1)">
<rect width="1440" height="7491" transform="translate(-1006 -1626)" fill="white"/>
<g clip-path="url(#clip1_0_1)">
<path d="M27.068 177.139C26.5157 177.139 25.9634 177.086 25.4111 176.957C23.1352 176.428 21.2307 174.542 20.6688 172.265C20.1118 169.994 20.9212 167.435 22.6876 165.903C23.2638 165.402 23.9827 164.968 24.8731 164.571L24.9207 164.552C26.8919 163.665 28.7202 163.426 29.9106 163.383C30.8628 163.345 31.6532 163.416 32.4055 163.865C32.6578 164.013 33.4244 164.471 33.7101 165.369C33.8196 165.712 33.8148 166.027 33.8101 166.595C33.8053 166.972 33.7815 167.201 33.7577 167.388C33.7387 167.559 33.7291 167.66 33.7339 167.827C33.7339 167.879 33.772 168.371 33.9862 168.805C34.1386 169.111 34.31 169.244 34.8338 169.621C35.2004 169.884 35.7003 170.242 36.3669 170.829C36.6383 171.067 36.9811 171.363 37.1763 171.803C37.6096 172.771 37.1002 173.788 36.5288 174.366C35.6765 175.229 34.5052 175.602 33.372 175.912C32.4674 176.16 31.5342 176.399 30.6105 176.618C29.463 176.89 28.2679 177.143 27.0633 177.143L27.068 177.139ZM30.2962 164.6C30.1915 164.6 30.0772 164.6 29.9582 164.605C28.8774 164.643 27.2157 164.858 25.4254 165.664L25.373 165.688C24.5922 166.032 23.978 166.404 23.4923 166.829C22.0639 168.065 21.4068 170.132 21.8592 171.97C22.3115 173.807 23.8494 175.33 25.6873 175.759C27.1776 176.108 28.7964 175.783 30.3296 175.42C31.2437 175.206 32.1579 174.972 33.053 174.724C34.0624 174.447 35.0195 174.146 35.6575 173.502C35.967 173.187 36.2288 172.676 36.0574 172.304C35.9717 172.113 35.7622 171.927 35.5622 171.75C34.9385 171.206 34.4862 170.877 34.1243 170.614C33.5815 170.223 33.1911 169.941 32.8959 169.344C32.5864 168.719 32.5293 168.07 32.5198 167.889C32.5055 167.617 32.5245 167.435 32.5483 167.244C32.5674 167.077 32.5864 166.886 32.5912 166.571C32.5959 166.085 32.5959 165.884 32.5531 165.736C32.4103 165.283 31.9579 165.015 31.7913 164.915C31.4151 164.691 30.9914 164.6 30.3057 164.6H30.2962Z" fill="#408F95"/>
<path d="M166.965 181C162.79 181 157.352 180.356 148.787 179.334C147.834 179.22 147.491 179.172 147.196 179.134C146.92 179.096 146.682 179.062 146.006 178.986C144.825 178.852 143.459 178.709 141.973 178.556C135.331 177.869 126.232 176.929 122.18 175.277C120.742 174.69 119.866 173.993 119.414 173.082C119.262 172.771 119.195 172.538 118.705 170.294C118.509 169.392 118.409 168.944 118.39 168.848C118.067 167.158 118.49 164.328 120.171 161.798C121.047 160.481 121.771 160.018 122.471 159.569C123.166 159.126 123.818 158.706 124.756 157.35C124.923 157.107 125.075 156.873 125.223 156.644C125.761 155.804 126.318 154.935 127.442 154.109C128.113 153.613 128.589 153.422 128.97 153.269C129.26 153.15 129.475 153.069 129.727 152.873C130.594 152.21 130.684 151.269 130.77 149.661C130.817 148.735 130.874 147.685 131.189 146.587C131.598 145.155 132.946 144.014 134.983 142.287C136.283 141.189 137.897 139.819 139.764 137.972C141.445 136.301 143.354 134.411 145.801 133.509C149.944 131.977 154.191 133.6 158.3 135.165C159.428 135.595 160.595 136.039 161.723 136.402C165.042 137.466 168.594 137.905 172.031 138.335C175.183 138.726 178.445 139.132 181.568 140.015C184.715 140.902 186.834 142.12 188.239 143.843C189.672 145.599 190.281 147.842 190.819 149.818L192.9 157.445C193.872 161.011 194.686 164.753 193.081 167.927C192.372 169.335 191.486 170.247 190.791 170.881C181.868 179.086 171.55 180.666 171.117 180.728C169.836 180.914 168.479 181 166.956 181H166.965ZM149.348 134.13C148.291 134.13 147.253 134.287 146.239 134.664C144.04 135.476 142.235 137.265 140.64 138.845C138.74 140.731 137.107 142.115 135.793 143.227C133.926 144.811 132.689 145.857 132.384 146.926C132.108 147.89 132.06 148.826 132.012 149.728C131.927 151.312 131.851 152.806 130.489 153.851C130.098 154.152 129.765 154.286 129.441 154.415C129.089 154.558 128.727 154.701 128.184 155.102C127.242 155.799 126.789 156.5 126.27 157.317C126.113 157.56 125.956 157.808 125.78 158.061C124.699 159.622 123.875 160.147 123.147 160.615C122.499 161.03 121.942 161.388 121.209 162.49C119.728 164.715 119.343 167.23 119.609 168.624C119.628 168.719 119.723 169.158 119.919 170.041C120.376 172.132 120.447 172.375 120.528 172.547C120.723 172.938 121.152 173.535 122.652 174.146C126.542 175.731 135.536 176.661 142.106 177.339C143.592 177.492 144.968 177.635 146.154 177.773C146.844 177.855 147.087 177.888 147.368 177.926C147.658 177.964 147.996 178.012 148.939 178.127C160.518 179.506 166.332 180.193 170.96 179.525C171.065 179.511 181.349 177.931 189.982 169.989C190.596 169.421 191.386 168.614 192.005 167.383C193.414 164.595 192.681 161.25 191.734 157.78L189.653 150.152C189.148 148.291 188.572 146.186 187.306 144.63C186.068 143.112 184.144 142.024 181.254 141.208C178.221 140.349 175.007 139.953 171.898 139.566C168.408 139.132 164.794 138.683 161.366 137.585C160.209 137.213 159.023 136.764 157.881 136.325C155.052 135.246 152.153 134.144 149.353 134.144L149.348 134.13Z" fill="#408F95"/>
<path d="M51.9316 167.75C49.7938 167.75 47.675 167.383 46.1847 165.922C45.9609 165.703 45.7657 165.478 45.561 165.235C45.1563 164.758 44.6944 164.218 43.8374 163.564C43.0042 162.93 42.4042 162.643 41.871 162.395C41.2329 162.094 40.633 161.808 39.9712 161.049C39.4808 160.486 37.9429 158.496 38.619 156.329C38.8999 155.431 39.4903 154.711 40.0331 154.119C41.99 151.99 44.4516 150.334 47.1608 149.331C47.2989 149.279 47.4417 149.226 47.5845 149.179C48.3844 148.892 49.1415 148.62 49.6843 148.105C50.0652 147.747 50.3413 147.265 50.6318 146.749C50.708 146.616 50.7841 146.482 50.8603 146.353C53.0172 142.735 56.9548 140.239 61.1448 139.848C65.33 139.451 69.6675 141.165 72.4577 144.32C73.2576 145.131 73.8432 146.076 74.167 147.098C74.5384 148.272 74.4289 149.121 74.3432 149.799C74.2765 150.329 74.2241 150.716 74.386 151.169C74.6812 152 75.3288 152.281 77.1428 152.978C78.0427 153.322 79.1616 153.746 80.5234 154.4C82.4469 155.326 85.1228 156.863 86.2131 159.56C86.9607 161.407 86.675 163.493 85.5132 164.748C83.8991 166.495 81.1899 166.361 79.3949 166.266C73.6575 165.975 67.5059 166.443 55.7883 167.497L55.3217 167.54C54.2504 167.641 53.0839 167.746 51.9269 167.746L51.9316 167.75ZM62.3494 141.022C61.9875 141.022 61.6257 141.041 61.2638 141.074C57.4595 141.432 53.879 143.699 51.9173 146.988C51.8412 147.112 51.7697 147.241 51.6983 147.365C51.3746 147.928 51.0413 148.515 50.527 148.997C49.7938 149.689 48.8796 150.019 47.9988 150.334C47.8607 150.382 47.7226 150.434 47.5893 150.482C45.0658 151.422 42.7661 152.964 40.9377 154.949C40.4854 155.441 39.9998 156.028 39.7903 156.696C39.2903 158.29 40.6187 159.923 40.8901 160.233C41.3901 160.806 41.79 160.997 42.3947 161.283C42.9518 161.545 43.6469 161.875 44.5801 162.591C45.5419 163.326 46.0704 163.946 46.4942 164.443C46.6894 164.672 46.8561 164.867 47.0418 165.049C48.9368 166.905 52.2744 166.595 55.2169 166.323L55.6883 166.28C67.4678 165.216 73.6528 164.748 79.4711 165.044C81.5423 165.154 83.4944 165.144 84.6276 163.918C85.6037 162.858 85.5656 161.202 85.0895 160.023C84.38 158.271 82.7659 156.839 80.0044 155.512C78.6902 154.882 77.5951 154.462 76.7191 154.128C74.9288 153.446 73.7432 152.992 73.2433 151.589C72.9814 150.854 73.0624 150.238 73.1385 149.646C73.2195 149.031 73.3004 148.391 73.01 147.475C72.7434 146.64 72.2625 145.862 71.5768 145.165C69.2628 142.549 65.8156 141.027 62.3589 141.027L62.3494 141.022Z" fill="#408F95"/>
<path d="M147.277 124.56C147.101 124.56 146.925 124.545 146.758 124.512C145.435 124.273 144.406 123.357 143.578 122.622L136.307 116.159C135.798 115.706 135.217 115.19 134.574 115.038C133.679 114.823 132.884 115.133 132.541 115.267C131.798 115.558 130.579 116.021 128.951 116.641C126.227 117.677 122.499 119.099 118.005 120.842C117.69 120.961 117.333 120.808 117.21 120.488C117.086 120.173 117.243 119.815 117.562 119.691C122.061 117.949 125.789 116.527 128.518 115.486C130.141 114.866 131.36 114.403 132.089 114.121C132.508 113.959 133.598 113.534 134.86 113.835C135.802 114.059 136.531 114.708 137.121 115.233L144.392 121.696C145.297 122.503 146.063 123.133 146.977 123.295C147.463 123.381 148.025 123.252 148.415 122.961C148.596 122.822 148.825 122.589 148.858 122.25C148.944 121.462 148.087 120.765 147.153 120.126C144.335 118.207 141.768 115.93 139.516 113.362C139.373 113.2 139.045 112.823 139.116 112.317C139.212 111.673 139.888 111.434 140.111 111.353C141.178 110.971 146.711 110.298 149.039 110.026C149.377 109.988 149.682 110.227 149.72 110.565C149.758 110.904 149.52 111.21 149.182 111.248C145.673 111.658 141.302 112.236 140.53 112.508C140.492 112.522 140.459 112.532 140.43 112.546C140.43 112.546 140.43 112.546 140.435 112.551C142.616 115.042 145.106 117.248 147.839 119.109C148.682 119.682 150.253 120.751 150.077 122.383C150.01 122.994 149.682 123.548 149.148 123.944C148.629 124.335 147.949 124.55 147.282 124.55L147.277 124.56Z" fill="#408F95"/>
<path d="M170.774 115.801C170.117 115.801 169.27 115.596 168.179 115.047C163.08 112.47 157.371 110.943 151.667 110.623C151.329 110.604 151.072 110.313 151.091 109.974C151.11 109.635 151.4 109.363 151.738 109.396C157.609 109.725 163.485 111.301 168.736 113.95C169.741 114.455 171.05 114.918 171.588 114.241C171.984 113.744 171.698 112.857 171.56 112.499C170.784 110.503 169.041 108.761 166.66 107.597C164.456 106.518 161.956 106.022 159.59 105.602C158.666 105.439 157.623 105.253 156.795 104.585C155.876 103.85 155.4 102.375 156.147 101.349C156.19 101.292 156.247 101.239 156.309 101.196C157.557 100.385 158.857 99.6832 160.18 99.1056C160.671 98.8908 161.109 98.7142 161.504 98.5615C162.751 98.0651 163.308 97.8265 163.542 97.2633C163.761 96.7335 163.685 96.0605 163.361 95.693C163.032 95.3207 162.399 95.1823 161.437 95.2682C159.014 95.4877 157.209 96.5569 153.672 98.7715C153.138 99.1056 151.619 100.055 149.334 101.478C149.048 101.654 148.667 101.568 148.491 101.282C148.31 100.996 148.401 100.614 148.686 100.437C150.972 99.0149 152.491 98.0651 153.024 97.731C156.628 95.4782 158.633 94.2897 161.328 94.0463C162.709 93.9222 163.675 94.1943 164.28 94.8816C164.913 95.5975 165.075 96.7717 164.675 97.7358C164.232 98.8002 163.28 99.1772 161.956 99.7022C161.575 99.855 161.147 100.022 160.675 100.232C159.457 100.767 158.252 101.416 157.09 102.16C156.857 102.599 157.128 103.277 157.566 103.626C158.152 104.093 158.995 104.246 159.809 104.389C162.266 104.824 164.861 105.344 167.208 106.494C169.87 107.797 171.822 109.768 172.712 112.055C173.179 113.248 173.122 114.298 172.56 115.009C172.226 115.429 171.679 115.806 170.788 115.806L170.774 115.801Z" fill="#408F95"/>
<path d="M111.948 114.298C111.572 114.298 111.205 114.265 110.844 114.203C110.62 114.164 110.434 114.002 110.367 113.783C110.296 113.563 110.353 113.324 110.515 113.167L113.934 109.692C114.172 109.449 114.557 109.449 114.8 109.687C115.043 109.926 115.043 110.313 114.805 110.556L112.348 113.052C113.519 112.971 114.81 112.522 116.248 111.702C116.871 111.348 117.49 110.943 118.095 110.556C119.128 109.888 120.2 109.196 121.361 108.68C123.771 107.606 125.737 107.253 126.794 107.062C130.56 106.38 137.369 104.418 147.025 101.234C147.349 101.129 147.691 101.306 147.796 101.626C147.901 101.946 147.73 102.294 147.406 102.399C137.693 105.606 130.832 107.582 127.008 108.27C125.932 108.465 124.132 108.79 121.857 109.802C120.78 110.279 119.8 110.914 118.757 111.587C118.143 111.983 117.505 112.394 116.852 112.766C115.057 113.787 113.443 114.293 111.948 114.293V114.298Z" fill="#408F95"/>
<path d="M115.738 108.957C115.633 108.957 115.524 108.928 115.429 108.871C115.138 108.699 115.038 108.322 115.21 108.031C116.695 105.501 118.766 103.301 121.204 101.669C121.628 101.382 122.066 101.115 122.499 100.852C122.975 100.561 123.471 100.256 123.932 99.9361C126.051 98.4803 127.799 96.5043 128.989 94.2229C129.056 94.094 129.165 93.9985 129.294 93.9413L129.351 93.9174C131.141 93.1633 133.845 92.0273 135.793 91.9414C137.083 91.8889 138.373 91.9891 139.621 92.0846C140.349 92.1418 141.102 92.1991 141.835 92.2278C146.687 92.3996 151.658 91.1347 155.838 88.6624C156.128 88.4905 156.505 88.586 156.676 88.8819C156.847 89.1731 156.752 89.5501 156.457 89.722C152.077 92.3089 146.868 93.6358 141.787 93.4544C141.026 93.4258 140.264 93.3685 139.526 93.3112C138.316 93.2158 137.064 93.1203 135.845 93.1728C134.169 93.2444 131.589 94.3135 129.97 94.9913C128.689 97.3682 126.846 99.4254 124.623 100.953C124.132 101.292 123.628 101.602 123.133 101.903C122.709 102.16 122.29 102.418 121.88 102.695C119.6 104.222 117.657 106.284 116.262 108.656C116.148 108.852 115.943 108.957 115.733 108.957H115.738Z" fill="#408F95"/>
<path d="M157.562 88.061C157.428 88.061 157.295 88.018 157.181 87.9273C156.914 87.7173 156.871 87.3307 157.085 87.0634C158.709 85.0206 160.195 82.8346 161.504 80.5674C162.028 79.6558 162.609 78.5914 162.837 77.4793C163.256 75.4699 162.475 73.2409 160.895 71.9331C160.642 71.7231 160.542 71.704 160.509 71.7136C160.471 71.7136 160.328 71.7756 160.099 72.3675C158.833 75.6322 156.995 78.5962 154.629 81.1688C154.21 81.627 153.71 82.1425 153.072 82.5005C152.315 82.9205 151.467 83.0637 150.72 83.1878L143.816 84.3285C143.235 84.424 142.511 84.5433 141.802 84.3476C141.035 84.1328 140.264 83.4312 140.278 82.51C140.288 81.7654 140.807 81.1879 141.116 80.8442L146.144 75.2742C148.563 72.5966 151.062 69.8235 154.029 67.6041C154.843 66.9979 155.69 66.4299 156.509 65.881C157.019 65.5422 157.524 65.2033 158.028 64.8501C160.495 63.127 161.223 62.2536 161.771 61.1558C162.247 60.2012 162.304 59.4996 162.413 58.0963C162.461 57.5236 162.399 57.3852 162.361 57.3518C162.323 57.3279 162.104 57.2802 161.647 57.4186C160.333 57.8147 159.147 59.0462 158.004 60.2346C157.624 60.6308 157.224 61.046 156.828 61.4183C155.729 62.454 154.462 63.3609 153.062 64.1055C152.762 64.263 152.391 64.1485 152.234 63.8525C152.077 63.5518 152.186 63.1795 152.486 63.022C153.791 62.3252 154.971 61.4851 155.99 60.5258C156.367 60.1726 156.733 59.7907 157.124 59.385C158.376 58.082 159.671 56.7361 161.295 56.2492C162.109 56.001 162.732 56.0631 163.156 56.421C163.737 56.9174 163.67 57.7527 163.637 58.2014C163.518 59.6619 163.447 60.5401 162.866 61.7095C162.242 62.9648 161.394 64.0005 158.728 65.8619C158.219 66.2151 157.704 66.5588 157.19 66.9072C156.381 67.4466 155.548 68.005 154.762 68.5921C151.891 70.7447 149.429 73.4653 147.053 76.1047L142.025 81.6747C141.764 81.9659 141.511 82.2714 141.506 82.5291C141.506 82.7821 141.787 83.0684 142.135 83.1687C142.583 83.2928 143.106 83.2069 143.616 83.1209L150.52 81.9802C151.201 81.8657 151.905 81.7511 152.477 81.4313C152.957 81.164 153.376 80.7297 153.729 80.3431C155.957 77.9137 157.766 75.0021 158.957 71.9284C159.114 71.5274 159.476 70.5919 160.38 70.4965C160.933 70.4392 161.385 70.7495 161.675 70.9929C163.599 72.5823 164.546 75.2933 164.037 77.7418C163.766 79.0305 163.137 80.1999 162.566 81.1927C161.228 83.5123 159.709 85.7508 158.043 87.8414C157.923 87.9941 157.743 88.0705 157.562 88.0705V88.061Z" fill="#408F95"/>
<path d="M150.958 64.5542C150.901 64.5542 150.843 64.5447 150.786 64.5304C149.329 64.1104 148.296 62.5878 148.029 60.4447C147.468 55.9916 150.886 52.0062 151.281 51.567C151.624 51.1852 152.191 50.5981 153.324 49.4335L153.648 49.0994C154.962 47.7487 155.562 47.133 156.005 46.0686C156.333 45.2763 156.414 44.6988 156.367 44.4983C156.224 44.4697 155.914 44.441 155.662 44.4219C155.571 44.4124 155.471 44.4028 155.367 44.3885C155.195 44.3694 154.876 44.3312 154.781 44.3503C153.791 44.6988 152.848 45.2763 152.077 46.0065C151.829 46.2404 151.443 46.2309 151.21 45.9827C150.977 45.7345 150.991 45.3479 151.234 45.114C152.134 44.2644 153.224 43.5962 154.391 43.1857C154.71 43.0712 155.119 43.1189 155.51 43.1666C155.6 43.1762 155.686 43.1857 155.762 43.1953C156.476 43.2573 156.871 43.2907 157.166 43.5437C157.9 44.1785 157.552 45.5197 157.128 46.5363C156.595 47.8203 155.857 48.5744 154.519 49.9538L154.195 50.2879C153.076 51.4382 152.515 52.0205 152.191 52.3832C152.048 52.5407 148.739 56.3114 149.244 60.2872C149.32 60.8982 149.686 62.9314 151.124 63.3467C151.448 63.4421 151.639 63.781 151.543 64.1056C151.467 64.3776 151.22 64.5495 150.953 64.5495L150.958 64.5542Z" fill="#408F95"/>
<path d="M140.064 67.3321C139.983 67.3321 139.897 67.313 139.816 67.2796C139.507 67.1412 139.369 66.7784 139.502 66.4682C139.968 65.4038 140.354 64.2965 140.645 63.1748C140.987 61.8432 141.206 60.4686 141.292 59.094C141.292 59.0367 141.306 58.9842 141.325 58.9317C141.802 57.5475 142.387 56.192 143.068 54.9033C144.658 51.8916 146.777 49.1758 149.363 46.8418C149.615 46.6175 150.001 46.6366 150.229 46.8895C150.458 47.1425 150.434 47.5291 150.182 47.7582C147.701 49.9967 145.673 52.5932 144.149 55.4808C143.511 56.6884 142.959 57.9628 142.506 59.2562C142.411 60.6834 142.187 62.1057 141.825 63.4851C141.516 64.6735 141.111 65.8429 140.616 66.9646C140.516 67.1937 140.292 67.3321 140.054 67.3321H140.064Z" fill="#408F95"/>
<path d="M123.899 89.1158C123.709 89.1158 123.518 89.0251 123.399 88.8581C123.204 88.5812 123.271 88.1994 123.547 88.0037C126.88 85.6363 129.855 82.8059 132.388 79.589C134.96 76.3243 137.04 72.7064 138.569 68.8403C138.692 68.5253 139.05 68.3678 139.364 68.4966C139.678 68.6207 139.83 68.9787 139.707 69.2937C138.131 73.2744 135.993 76.9925 133.35 80.3527C130.746 83.6603 127.684 86.5718 124.256 89.0108C124.147 89.0872 124.023 89.1253 123.904 89.1253L123.899 89.1158Z" fill="#408F95"/>
<path d="M105.339 105.091C105.263 105.091 105.187 105.091 105.111 105.077C104.268 104.967 103.554 104.27 102.982 103C102.844 102.69 102.983 102.327 103.292 102.189C103.601 102.051 103.963 102.189 104.101 102.499C104.473 103.325 104.882 103.807 105.263 103.86C105.53 103.898 106.111 103.75 107.049 102.404C108.691 100.056 113.524 95.8076 121.847 89.3927C122.118 89.1875 122.499 89.2352 122.709 89.5073C122.913 89.7746 122.866 90.1612 122.594 90.3712C114.486 96.6238 109.601 100.9 108.072 103.091C107.706 103.616 106.668 105.101 105.339 105.101V105.091Z" fill="#408F95"/>
<path d="M103.073 101.693C102.764 101.693 102.497 101.459 102.464 101.144C102.268 99.2728 102.916 97.3397 104.197 95.9603L104.359 95.7885C104.573 95.5689 104.773 95.3589 104.854 95.1394C105.025 94.6907 104.754 94.223 104.297 93.4975C103.964 92.9677 103.583 92.3663 103.468 91.6837C103.278 90.543 103.854 89.8032 104.654 88.7818C104.921 88.4381 105.225 88.0515 105.549 87.5886C107.139 85.3214 107.934 83.3359 108.853 81.0448C109.391 79.7036 109.663 78.7729 109.877 78.0236C110.21 76.8733 110.448 76.0475 111.358 74.8161C112.477 73.3031 113.805 72.0621 113.862 72.0096C114.324 71.5801 114.748 71.2269 115.124 70.9166C115.953 70.2293 116.495 69.7759 116.691 69.1506L116.714 69.079C116.791 68.8213 116.995 68.1435 117.357 67.2892C117.467 67.0267 117.562 66.8167 117.624 66.6878C117.767 66.3823 118.133 66.2487 118.438 66.3919C118.743 66.5351 118.876 66.9026 118.733 67.208C118.676 67.3274 118.586 67.523 118.486 67.7665C118.152 68.5636 117.957 69.1984 117.886 69.437L117.862 69.5229C117.557 70.4918 116.829 71.098 115.91 71.8664C115.548 72.1671 115.138 72.5108 114.7 72.9165C114.686 72.926 113.396 74.1336 112.348 75.5512C111.572 76.606 111.377 77.2694 111.058 78.372C110.834 79.1452 110.553 80.1046 109.996 81.503C109.087 83.7702 108.225 85.9132 106.554 88.2997C106.211 88.7913 105.897 89.1923 105.62 89.5455C104.849 90.5382 104.582 90.9105 104.678 91.4881C104.749 91.9224 105.03 92.3711 105.33 92.8436C105.83 93.6359 106.397 94.5332 106.001 95.5785C105.83 96.0319 105.516 96.3565 105.24 96.6428L105.092 96.8004C104.054 97.9172 103.525 99.4971 103.683 101.015C103.716 101.354 103.473 101.654 103.135 101.688C103.111 101.688 103.092 101.688 103.068 101.688L103.073 101.693Z" fill="#408F95"/>
<path d="M120.033 66.8357C119.762 66.8357 119.514 66.6543 119.443 66.3823C119.352 66.0529 119.547 65.7188 119.876 65.6281C121.595 65.1604 123.194 64.7165 124.699 64.3013C126.266 63.8669 127.722 63.466 129.099 63.0937C129.641 62.9457 131.298 62.4971 132.174 61.2561C132.55 60.7215 132.727 60.0486 132.655 59.3994C132.065 59.5426 130.046 60.2586 128.822 60.6881C128.189 60.9125 127.67 61.0938 127.437 61.1702C126.227 61.5616 124.889 61.6379 123.452 61.385C123.118 61.3277 122.895 61.0079 122.952 60.6738C123.009 60.3397 123.333 60.1154 123.661 60.1726C124.899 60.3874 126.037 60.3302 127.056 60.0008C127.284 59.9245 127.794 59.7479 128.413 59.5283C130.322 58.8553 131.946 58.2873 132.479 58.1776C132.903 58.0916 133.25 58.1632 133.503 58.3828C133.784 58.6262 133.836 58.9746 133.855 59.1083C134.003 60.1011 133.755 61.1463 133.174 61.9673C132.041 63.571 130.065 64.1056 129.418 64.2822C128.046 64.6545 126.585 65.0554 125.023 65.4897C123.518 65.905 121.914 66.3489 120.195 66.8166C120.142 66.8309 120.085 66.8405 120.033 66.8405V66.8357Z" fill="#408F95"/>
<path d="M111.205 63.0889C111.053 63.0889 110.901 63.0317 110.782 62.9171C110.539 62.6832 110.529 62.2919 110.767 62.0484C115.681 56.9318 117.733 52.9369 116.867 50.1686L116.79 49.9299C116.538 49.1424 116.014 47.4957 115.548 45.1713C115.11 43.0091 115.352 41.1429 116.243 39.7778C116.8 38.9139 117.828 38.2171 118.857 38.5941C119.947 38.9951 120.185 40.3124 120.29 40.8708C120.666 42.9662 121.047 45.0567 121.433 47.1473C121.561 47.8584 121.756 48.2498 122.009 48.3166C122.261 48.3787 122.628 48.1305 122.885 47.9348C125.851 45.682 127.903 42.3695 129.884 39.1621L130.355 38.4032C130.612 37.988 130.903 37.5202 131.303 37.1193C131.708 36.7136 132.169 36.4224 132.612 36.1408L135.736 34.1744C137.116 33.3057 138.545 32.4036 140.116 31.7879C141.535 31.2295 142.659 31.2008 143.549 31.702C144.063 31.9931 144.425 32.4227 144.777 32.8714C145.587 33.9071 146.382 35.1528 146.12 36.5322C145.825 38.0834 144.311 38.9855 143.311 39.5821C140.821 41.0618 138.402 42.7275 136.121 44.5269C135.402 45.0949 134.622 45.7727 134.512 46.5984C134.502 46.6747 134.498 46.7559 134.488 46.8323C134.46 47.1807 134.426 47.658 134.079 48.0303C133.864 48.2641 133.603 48.3739 133.393 48.4646C131.927 49.0899 130.603 50.0301 129.546 51.1852C128.979 51.8057 128.47 52.5073 127.975 53.1851C127.194 54.2542 126.646 55.0036 126.251 55.5334C125.761 56.2016 125.513 56.5357 125.408 56.698C124.937 57.4473 124.499 58.2396 124.104 59.051C123.956 59.3565 123.59 59.4806 123.285 59.3326C122.98 59.1847 122.856 58.8171 123.004 58.5117C123.418 57.6621 123.88 56.8316 124.37 56.0441C124.499 55.8436 124.723 55.5381 125.266 54.7983C125.656 54.2685 126.204 53.5239 126.984 52.4548C127.499 51.7484 128.032 51.0181 128.646 50.3499C129.822 49.0612 131.293 48.0207 132.893 47.3382C133.017 47.2857 133.141 47.2332 133.179 47.1902C133.236 47.1282 133.25 46.9086 133.265 46.732C133.274 46.6318 133.279 46.5268 133.293 46.4313C133.455 45.2095 134.383 44.3312 135.36 43.558C137.683 41.7252 140.145 40.0308 142.682 38.5225C143.758 37.883 144.739 37.2291 144.915 36.2983C145.087 35.401 144.454 34.4417 143.811 33.6255C143.525 33.2627 143.263 32.9477 142.944 32.7664C142.397 32.4561 141.616 32.5086 140.559 32.9239C139.097 33.5014 137.716 34.3701 136.383 35.2101L133.26 37.1766C132.874 37.42 132.469 37.673 132.165 37.9784C131.865 38.2839 131.622 38.6705 131.389 39.0476L130.922 39.8017C128.879 43.1046 126.765 46.522 123.618 48.9085C123.123 49.2856 122.456 49.696 121.699 49.5003C120.557 49.2092 120.314 47.868 120.219 47.3621C119.838 45.2715 119.457 43.1762 119.076 41.0808C118.976 40.532 118.814 39.8781 118.428 39.7349C118.052 39.5965 117.552 39.9926 117.266 40.4365C116.367 41.8159 116.486 43.6344 116.748 44.9183C117.205 47.1759 117.695 48.7176 117.957 49.5433L118.033 49.7867C119.057 53.061 116.971 57.3471 111.648 62.8885C111.529 63.0126 111.367 63.0746 111.205 63.0746V63.0889Z" fill="#408F95"/>
<path d="M93.2172 91.8459C92.9554 91.8459 92.7125 91.6741 92.6316 91.4068C92.5316 91.0823 92.7173 90.7386 93.0411 90.6384C94.3266 90.247 95.2789 89.617 95.8693 88.7578C96.3216 88.0992 96.4026 87.4691 96.5073 86.672C96.574 86.1661 96.6454 85.5934 96.8311 84.9681C97.3977 83.078 98.5166 81.4552 99.6022 79.8849L100.007 79.2931C101.873 76.5629 103.545 73.6753 104.973 70.7017C105.435 69.7424 105.849 68.7973 105.849 67.8332C105.849 66.3679 104.878 65.0267 103.94 63.7332L103.74 63.4564C102.687 61.9911 101.55 60.0485 102.097 58.0295C102.483 56.6072 103.597 55.6097 104.706 54.7123C105.573 54.0107 106.949 53.3998 107.958 53.9821C108.753 54.4403 109.011 55.4617 108.987 56.192C108.963 57.0081 108.596 57.4568 108.296 57.8195C108.077 58.0868 107.901 58.3016 107.83 58.6787C107.687 59.4519 108.134 60.249 108.953 61.6952C109.22 62.1725 109.525 62.6354 109.853 63.0746C110.058 63.3466 110.001 63.7332 109.729 63.9337C109.458 64.1389 109.072 64.0817 108.872 63.8096C108.511 63.3275 108.182 62.8216 107.887 62.3013C106.992 60.7119 106.397 59.6667 106.625 58.4496C106.754 57.767 107.082 57.3613 107.344 57.0415C107.592 56.7361 107.744 56.5499 107.754 56.1585C107.768 55.7433 107.62 55.2135 107.335 55.0464C106.935 54.8126 106.068 55.1801 105.468 55.6669C104.516 56.4401 103.564 57.2802 103.273 58.3493C102.864 59.8671 103.835 61.4899 104.73 62.7357L104.925 63.0077C105.925 64.3967 107.063 65.967 107.068 67.8284C107.068 69.0551 106.577 70.1815 106.068 71.2363C104.611 74.2671 102.907 77.212 101.007 79.9899L100.597 80.5865C99.5688 82.0757 98.5023 83.6174 97.9928 85.3213C97.8357 85.8511 97.7691 86.3475 97.7119 86.8248C97.6024 87.6696 97.4929 88.5478 96.8692 89.4499C96.1169 90.5429 94.9456 91.3352 93.3886 91.8125C93.3315 91.8316 93.2696 91.8412 93.2125 91.8412L93.2172 91.8459Z" fill="#408F95"/>
<path d="M88.5606 89.9702C88.5225 89.9702 88.4844 89.9702 88.4463 89.9606C88.113 89.8986 87.894 89.574 87.9607 89.2447C88.9558 83.9896 88.9701 78.663 87.994 73.4032C87.9369 73.093 87.875 72.778 87.8131 72.4677C87.3655 70.1672 86.9037 67.7902 87.6131 65.4945C88.2368 63.4803 89.6557 61.9147 91.0222 60.4017C91.3364 60.0581 91.6459 59.7096 91.9507 59.3612C94.5408 56.3638 96.4691 52.7936 98.3308 49.338C104.059 38.7325 111.186 25.5305 110.482 11.9228C110.448 11.2594 110.377 10.5196 109.953 10.1091C109.682 9.84179 109.325 9.79884 109.077 9.80838C108.553 9.82747 107.987 10.1043 107.634 10.5052C106.93 11.3119 106.716 12.5099 106.53 13.5695C106.473 13.9036 106.154 14.1231 105.82 14.0659C105.487 14.0086 105.263 13.6888 105.325 13.3547C105.53 12.1996 105.787 10.7677 106.716 9.6986C107.287 9.04471 108.172 8.61514 109.03 8.58173C109.725 8.54355 110.353 8.7822 110.81 9.22608C111.515 9.91339 111.658 10.8966 111.705 11.856C112.429 25.8121 105.211 39.1811 99.4116 49.9203C97.5166 53.4332 95.555 57.0606 92.8791 60.1631C92.5696 60.521 92.2506 60.8695 91.9316 61.2227C90.5937 62.7023 89.3319 64.096 88.7844 65.8524C88.1654 67.8571 88.5987 70.0765 89.0177 72.2291C89.0796 72.5489 89.1415 72.8639 89.1986 73.1789C90.1985 78.5867 90.189 84.0708 89.1605 89.4738C89.1034 89.7697 88.8463 89.9749 88.5606 89.9749V89.9702Z" fill="#408F95"/>
<path d="M96.3214 34.3223C95.9977 34.3223 95.6644 34.2698 95.3216 34.1648C95.1978 34.1266 95.0835 34.0454 95.0073 33.9404L93.4694 31.8451C93.2694 31.5731 93.3266 31.1864 93.598 30.986C93.8694 30.7855 94.255 30.8428 94.455 31.1149L95.8643 33.0384C96.231 33.1195 96.5595 33.1099 96.8452 32.9954C97.1356 32.8808 97.3737 32.6565 98.1117 31.6017L98.3545 31.2533C98.8259 30.5851 99.083 30.2175 99.2973 29.8214C100.497 27.5685 101.74 25.2346 102.63 22.8147C103.116 21.4973 103.511 20.118 103.892 18.7863L104.887 15.3068C104.982 14.9823 105.32 14.7913 105.644 14.8868C105.968 14.9823 106.158 15.3211 106.063 15.6457L105.068 19.1252C104.682 20.4759 104.282 21.8744 103.778 23.2395C102.854 25.7405 101.597 28.1079 100.378 30.3989C100.13 30.8619 99.84 31.2771 99.3544 31.9644L99.1116 32.3081C98.2974 33.4679 97.9212 33.8927 97.288 34.1409C96.9833 34.2602 96.6547 34.3175 96.3167 34.3175L96.3214 34.3223Z" fill="#408F95"/>
<path d="M83.7278 32.69C82.4042 32.69 81.19 30.7044 79.7664 28.1318L79.5236 27.6975C78.5094 25.8838 78.0523 25.2871 77.5667 24.6571C77.0524 23.9841 76.5144 23.292 75.3431 21.2158C74.4908 19.7171 73.81 18.29 73.1482 16.9106C72.2768 15.0921 71.4531 13.3738 70.3199 11.6174C69.4676 10.2953 68.4773 9.01613 67.387 7.80857C67.1584 7.55561 67.1775 7.169 67.4298 6.93989C67.6822 6.71079 68.0678 6.72988 68.2964 6.98285C69.4343 8.23814 70.4628 9.57456 71.3531 10.9492C72.5292 12.7677 73.3672 14.5193 74.2575 16.376C74.9098 17.7363 75.5812 19.1443 76.4097 20.6049C77.5428 22.6 78.0475 23.2634 78.538 23.903C79.0522 24.5712 79.5331 25.2012 80.5949 27.0913L80.8377 27.5304C82.328 30.2128 83.304 31.5445 83.7516 31.4586C83.8183 31.4442 84.0754 31.3536 84.3182 31.1626C84.7229 30.8476 84.8848 30.4133 84.9753 30.1794C85.8228 27.9266 85.9371 27.0293 85.9371 27.0197C86.1608 25.0008 86.318 22.2277 86.3846 19.2207C86.4227 17.66 86.4751 17.0633 86.5417 16.3665C86.6084 15.641 86.6846 14.82 86.7703 12.739L86.8179 11.4933C86.9893 7.23582 87.0084 6.68693 87.375 5.11663C88.0035 2.41513 90.2413 -0.291133 93.1314 0.0191094C94.3217 0.138433 94.9169 0.649139 95.2073 1.05961C95.8073 1.89965 95.6025 2.83515 95.3407 4.01885C95.2978 4.21454 95.2502 4.41977 95.2073 4.63456C95.0645 5.32664 95.0074 6.02349 94.9455 6.76329C94.8931 7.36946 94.8407 7.99472 94.7407 8.61043C93.698 14.9537 93.5123 19.0775 93.5123 19.1157C93.3647 22.5952 93.4933 26.1224 93.8885 29.5971C93.9266 29.936 93.6837 30.2367 93.3504 30.2796C93.0124 30.3131 92.7124 30.0744 92.6696 29.7403C92.2649 26.1988 92.1363 22.6047 92.2839 19.0632C92.2839 19.0202 92.4743 14.8248 93.5266 8.40996C93.6218 7.83721 93.6694 7.26445 93.7218 6.65352C93.7837 5.90894 93.8504 5.14049 94.0075 4.38159C94.0551 4.15726 94.098 3.94725 94.1456 3.74679C94.3741 2.70628 94.4836 2.14307 94.2122 1.76601C94.0694 1.56555 93.7456 1.30781 93.0267 1.23621C90.8888 1.00711 89.0891 3.16926 88.5701 5.38868C88.232 6.84443 88.213 7.28832 88.0416 11.5315L87.9939 12.7772C87.9082 14.8869 87.8273 15.7651 87.7606 16.4715C87.694 17.1731 87.6464 17.7268 87.6083 19.1968C87.5416 22.2802 87.3797 25.0867 87.1512 27.1486C87.1417 27.2488 87.0179 28.2034 86.118 30.5994C86.0085 30.8954 85.7466 31.5922 85.0657 32.122C84.7277 32.3893 84.2944 32.5993 83.9659 32.6566C83.8849 32.6709 83.804 32.6804 83.7278 32.6804V32.69Z" fill="#408F95"/>
<path d="M78.338 52.6552C78.2095 52.6552 78.0857 52.6552 77.9666 52.6457C77.6286 52.6313 77.3667 52.345 77.381 52.0061C77.3953 51.6672 77.681 51.3951 78.019 51.419C79.3093 51.4763 80.2426 51.1947 80.5996 50.6506C80.9329 50.1446 80.7996 49.4001 80.0045 47.3429L77.0525 39.7014C76.4287 38.0834 75.7812 36.4081 74.8813 34.9237C74.5766 34.4225 74.3385 34.0884 74.11 33.7638L73.929 33.5109C72.6578 31.6924 71.9245 30.1937 70.4628 27.2058L70.4009 27.0817C69.4534 25.1439 68.4535 23.1918 67.487 21.3017C66.8966 20.1514 66.3109 19.0011 65.73 17.8508C65.4777 17.3497 64.8873 16.1803 63.8303 14.7532C63.6779 14.5527 63.6113 14.462 63.5398 14.3809C63.4684 14.2902 63.397 14.2091 63.2589 14.0181C62.221 12.6244 61.0497 11.0494 60.9354 9.10676C60.8925 8.41469 60.8116 6.9828 61.8258 5.9232C62.8447 4.85883 64.5683 4.59155 66.3204 5.22635C66.6395 5.3409 66.8061 5.6941 66.6871 6.01389C66.5728 6.33368 66.2205 6.49596 65.9015 6.38141C64.6254 5.9232 63.3732 6.07594 62.7066 6.77279C62.0638 7.44578 62.121 8.48151 62.1543 9.03517C62.2495 10.6102 63.2589 11.9658 64.235 13.2783C64.3588 13.4454 64.4207 13.5217 64.4873 13.6029C64.5635 13.6983 64.6397 13.7938 64.8111 14.0181C65.9348 15.5312 66.5823 16.8151 66.8252 17.2972C67.406 18.4474 67.9917 19.5977 68.5821 20.7432C69.5534 22.6381 70.5533 24.595 71.5055 26.5424L71.5674 26.6665C73.0434 29.6877 73.7195 31.0671 74.9337 32.8045L75.1051 33.0479C75.3384 33.3725 75.6003 33.7448 75.9288 34.2841C76.8858 35.8639 77.5524 37.587 78.1952 39.2575L81.1472 46.899C81.9281 48.918 82.3471 50.221 81.6233 51.3235C80.9187 52.3975 79.5141 52.6504 78.338 52.6504V52.6552Z" fill="#408F95"/>
<path d="M80.114 97.9363C80.0902 97.9363 80.0663 97.9363 80.0378 97.9363C79.6997 97.8933 79.4617 97.5879 79.5045 97.2538C80.3092 90.5239 79.1046 84.2093 77.8285 77.5224C77.6428 76.5582 77.4571 75.5845 77.2762 74.6013C77.0667 73.556 77.1381 72.4153 77.2048 71.3128C77.2334 70.8259 77.2619 70.3677 77.2667 69.9381C77.181 69.5754 77.1191 69.227 77.062 68.8833C76.9382 68.1483 76.8286 67.5087 76.5049 67.0266C76.4906 67.0075 76.4763 66.9837 76.4668 66.9598C75.9002 65.8191 74.986 64.9504 74.1099 64.1056C73.2957 63.3276 72.453 62.5162 71.8721 61.4996C70.9341 59.619 70.0866 57.6048 69.5295 55.9343C68.0583 52.8128 65.8633 50.2783 63.5398 47.5959C62.3019 46.1641 61.0163 44.6844 59.8069 43.0664C59.0023 41.8588 59.9688 40.9568 60.4878 40.4699C60.5687 40.3935 60.6544 40.3172 60.7306 40.2408C61.5162 39.4533 62.6447 39.1764 63.6636 39.5153C65.5253 40.0499 67.1346 41.3386 68.5535 43.4578C68.663 43.5532 68.8344 43.6678 69.001 43.7776C69.2391 43.9351 69.4819 44.1021 69.6724 44.2883C69.6914 44.3074 69.7057 44.3265 69.7248 44.3456C70.9246 45.892 72.2102 47.2093 73.5671 48.603C74.4289 49.4908 75.3241 50.4072 76.1859 51.3809C76.4097 51.6339 76.3858 52.0252 76.1335 52.2496C75.8811 52.4739 75.4907 52.45 75.2669 52.1971C74.4242 51.2425 73.5433 50.3356 72.6863 49.4622C71.3769 48.1162 70.02 46.7225 68.782 45.1379C68.6773 45.0424 68.4963 44.9183 68.3202 44.8038C68.0821 44.6463 67.8393 44.4792 67.6488 44.2931C67.6203 44.2644 67.5964 44.231 67.5726 44.1976C66.2918 42.2741 64.9349 41.1572 63.3017 40.6895C62.6875 40.4842 62.059 40.6465 61.5972 41.1095C61.5115 41.1954 61.4163 41.2813 61.3258 41.372C60.6402 42.0164 60.6544 42.1261 60.8116 42.36C61.9781 43.916 63.2446 45.3765 64.4683 46.7941C66.8584 49.5528 69.1153 52.1589 70.658 55.4474C70.6675 55.4713 70.677 55.4904 70.6865 55.5143C71.2246 57.1418 72.0578 59.1131 72.9577 60.9268C73.4338 61.7621 74.1766 62.4732 74.9622 63.2274C75.9097 64.1342 76.8905 65.0745 77.5524 66.3871C78.0047 67.0839 78.1428 67.8953 78.2761 68.6876C78.3332 69.0313 78.3951 69.3845 78.4808 69.7281C78.4951 69.7759 78.4999 69.8284 78.4999 69.8761C78.4999 70.3677 78.4665 70.8927 78.438 71.3987C78.3761 72.4248 78.3094 73.4844 78.4904 74.377C78.6713 75.365 78.857 76.3339 79.0427 77.298C80.3377 84.0804 81.5614 90.4857 80.7329 97.4065C80.6948 97.7167 80.433 97.9458 80.1235 97.9458L80.114 97.9363Z" fill="#408F95"/>
<path d="M53.9268 69.7425C53.8316 69.7425 53.7364 69.7186 53.6459 69.6709C53.3459 69.5134 53.2317 69.1411 53.384 68.8404C55.5742 64.6306 56.7408 59.9913 56.755 55.414C56.7598 53.2328 56.5122 51.0468 56.017 48.9037C52.2366 47.1043 50.3844 45.2811 50.3654 43.3385C50.3606 42.6034 50.6177 41.9257 50.8653 41.267C51.2129 40.3458 51.4033 39.754 51.1129 39.2433C50.97 38.9951 50.7891 38.8901 50.5368 38.7469C50.3987 38.6657 50.2368 38.5751 50.0844 38.451C48.0799 36.8759 49.2703 32.647 50.3225 28.9194L50.4796 28.3705C52.8412 19.9319 52.508 16.7388 52.2889 14.6244C52.2366 14.1089 52.1889 13.665 52.1889 13.2211C52.1889 12.4622 51.908 11.4504 51.4414 11.0637C51.2986 10.9444 51.151 10.9015 50.9796 10.9206L47.3848 12.8106C47.0848 12.9682 46.7134 12.8488 46.5563 12.5529C46.3992 12.2522 46.5134 11.8799 46.8134 11.7224L50.4987 9.78937C50.551 9.76073 50.6034 9.74164 50.6653 9.73209C51.2367 9.61754 51.7747 9.75118 52.2223 10.1187C53.165 10.8919 53.4174 12.4384 53.4174 13.2259C53.4174 13.6077 53.4602 14.023 53.5126 14.5003C53.7459 16.7054 54.0935 20.0464 51.6652 28.7094L51.5081 29.263C50.6558 32.2843 49.4893 36.4272 50.8463 37.4964C50.9367 37.568 51.0367 37.6252 51.1605 37.6968C51.4795 37.883 51.8795 38.1121 52.1842 38.6467C52.7841 39.7015 52.3794 40.7706 52.0175 41.7204C51.7985 42.2932 51.5938 42.8373 51.5985 43.3432C51.6128 44.7704 53.4126 46.355 56.8074 47.9348C56.9788 48.0112 57.1026 48.1639 57.1455 48.3453C57.7121 50.6745 57.993 53.061 57.9835 55.4379C57.9692 60.2109 56.7551 65.0459 54.4744 69.4274C54.3649 69.6375 54.1506 69.7568 53.9316 69.7568L53.9268 69.7425Z" fill="#408F95"/>
<path d="M43.909 28.7713C43.7138 28.7713 43.5186 28.6759 43.3995 28.504C43.2091 28.2224 43.2805 27.8406 43.5614 27.6497C43.9899 27.3585 44.1613 26.6855 44.2946 26.0173L45.4659 20.285C45.6469 19.402 45.8326 18.4904 45.804 17.6074C45.7945 17.3115 45.7611 17.0012 45.723 16.6814C45.6231 15.7793 45.5135 14.7579 45.9659 13.8272C46.1135 13.5217 46.4801 13.3976 46.7848 13.5456C47.0895 13.6936 47.2133 14.0611 47.0657 14.3665C46.7658 14.9775 46.8515 15.7411 46.9372 16.5478C46.9753 16.8819 47.0086 17.2255 47.0229 17.5644C47.0562 18.5906 46.8562 19.5738 46.661 20.5284L45.4897 26.2607C45.3517 26.9337 45.1184 28.0649 44.2423 28.6615C44.1375 28.7331 44.0185 28.7665 43.8995 28.7665L43.909 28.7713Z" fill="#408F95"/>
<path d="M38.2143 32.6374C38.0429 32.6374 37.8715 32.5658 37.7524 32.4226C37.5286 32.1601 37.1906 31.7687 36.7954 31.2819C35.4765 29.6543 34.8718 28.9145 34.6147 28.2415C33.9243 26.466 34.3243 24.7764 34.4719 24.1416C34.5671 23.7311 34.6861 23.2967 34.929 22.8958C35.5337 21.9126 36.6335 21.5355 37.7096 21.2348C38.2095 21.0964 38.9666 20.8816 39.676 21.2062C40.6473 21.6548 40.8759 22.7669 41.0377 23.5783L41.0711 23.7311C41.2996 24.8384 41.771 25.9028 42.4328 26.8144C42.6328 27.0865 42.5709 27.4731 42.2995 27.6735C42.0281 27.874 41.6424 27.812 41.4424 27.5399C40.6806 26.4898 40.1378 25.2584 39.8712 23.984L39.8379 23.8265C39.7093 23.1822 39.5713 22.514 39.1665 22.3278C38.8904 22.199 38.4761 22.2992 38.0429 22.4233C37.1668 22.6667 36.3478 22.9388 35.9765 23.5449C35.8289 23.7884 35.7479 24.1034 35.667 24.4279C35.4527 25.3348 35.2718 26.5423 35.7574 27.7976C35.9479 28.2892 36.5859 29.0768 37.7429 30.5039C38.1333 30.9812 38.4571 31.3678 38.6761 31.6208C38.8951 31.8785 38.8713 32.2651 38.6142 32.4894C38.5 32.5897 38.3571 32.6374 38.2143 32.6374Z" fill="#408F95"/>
<path d="M43.8421 76.1525C43.7183 76.1525 43.5898 76.1143 43.4803 76.0332C40.5711 73.8949 38.5523 71.623 37.4763 69.2747L37.4001 69.1076C37.162 68.5778 36.7668 67.6996 36.0288 66.64C35.1956 65.4467 34.1624 64.3872 32.9673 63.4803C32.7007 63.2798 32.6435 62.898 32.8435 62.6259C33.4672 61.7764 34.1481 60.9793 34.8623 60.2585C35.0004 60.1201 35.1384 59.9865 35.267 59.8576C35.8146 59.3278 36.2431 58.9078 36.6192 58.2109C36.8382 57.8052 37.0049 57.3661 37.1144 56.9079C37.1953 56.5786 37.5239 56.3734 37.8524 56.4545C38.1809 56.5356 38.3857 56.865 38.3047 57.1943C38.1714 57.7575 37.9619 58.2969 37.6953 58.7932C37.2334 59.6524 36.6906 60.1774 36.1193 60.7358C35.9955 60.8599 35.8622 60.984 35.7289 61.1225C35.1908 61.6666 34.6718 62.2536 34.1862 62.8789C35.2813 63.7762 36.2383 64.8024 37.0335 65.9336C37.8429 67.0886 38.2809 68.0719 38.519 68.6017L38.5904 68.764C39.576 70.9213 41.4615 73.031 44.204 75.0452C44.4754 75.2456 44.5373 75.6322 44.3373 75.9043C44.2183 76.0666 44.0326 76.1573 43.8421 76.1573V76.1525Z" fill="#408F95"/>
<path d="M43.8423 76.1525C43.7804 76.1525 43.7185 76.143 43.6566 76.1239C43.3328 76.0189 43.1567 75.6752 43.2614 75.3507C44.1375 72.611 45.2278 70.172 46.3848 67.5898C47.0657 66.0673 47.7704 64.4922 48.4227 62.8551C50.0939 58.6692 50.0082 56.8889 49.294 55.2327C48.3418 53.0276 46.1706 51.8248 44.5136 51.2043C44.1946 51.085 44.0375 50.7318 44.1518 50.412C44.2708 50.0922 44.6232 49.9347 44.9422 50.0492C46.8229 50.7509 49.294 52.1398 50.4177 54.741C51.3842 56.9891 51.1557 59.3088 49.5606 63.3037C48.8988 64.9647 48.1894 66.5493 47.5038 68.0862C46.361 70.6398 45.285 73.0501 44.4279 75.723C44.3422 75.9855 44.1042 76.1477 43.8423 76.1477V76.1525Z" fill="#408F95"/>
<path d="M40.9711 46.4217C40.8663 46.4217 40.7663 46.3979 40.6711 46.3406C40.3759 46.1735 40.2759 45.7965 40.4426 45.5053C41.0853 44.3694 41.8281 42.5318 41.7091 40.2169C41.5424 36.9761 39.7426 34.7614 38.9761 33.9595C38.7428 33.7161 38.7523 33.3247 38.9951 33.0909C39.2379 32.857 39.6284 32.8665 39.8617 33.11C40.7235 34.012 42.747 36.4988 42.9327 40.1548C43.066 42.7656 42.2328 44.8371 41.5091 46.1115C41.3948 46.312 41.1901 46.4217 40.9758 46.4217H40.9711Z" fill="#408F95"/>
<path d="M28.8726 56.3304C27.3966 56.3304 25.9824 55.7576 25.054 54.7362C24.216 53.815 23.7208 52.555 23.4923 50.7699C22.9542 46.5411 23.9875 42.3361 24.9826 38.2695L25.0111 38.155C25.1397 37.6347 25.2444 37.0954 25.0397 36.7708C24.9159 36.5799 24.6493 36.4224 24.2827 36.3317C22.4257 35.8735 20.4784 37.3483 19.6689 39.038C18.7548 40.9424 18.7643 43.2429 18.7738 45.2762C18.7738 45.6962 18.7976 46.0733 18.8167 46.4504C18.8595 47.214 18.9024 48.0063 18.7881 49.1375C18.6786 50.2258 18.4738 51.314 18.1691 52.3736C18.0739 52.6982 17.7311 52.8891 17.4121 52.7936C17.0883 52.6982 16.8978 52.3593 16.9931 52.0347C17.2787 51.0467 17.4692 50.0301 17.5692 49.0134C17.6739 47.9777 17.6311 47.2665 17.593 46.5124C17.5692 46.121 17.5501 45.7249 17.5454 45.2762C17.5311 43.1141 17.5216 40.6608 18.5595 38.4986C19.5689 36.3938 22.021 34.5037 24.5731 35.1337C25.2587 35.3007 25.7777 35.6396 26.0729 36.1074C26.5395 36.8424 26.3824 37.7015 26.2015 38.4461L26.1729 38.5607C25.2016 42.5175 24.2017 46.6126 24.7112 50.6124C24.9064 52.135 25.3016 53.1802 25.9586 53.9057C26.8633 54.8985 28.4012 55.3185 29.8724 54.9844C31.2056 54.6789 32.4816 53.7912 33.4625 52.4786L33.5149 52.407C33.872 51.9297 34.31 51.3379 35.0623 51.2138C35.7812 51.0945 36.2002 51.6433 36.4526 51.9679C36.5097 52.0443 36.5954 52.154 36.6526 52.2113C36.8478 52.135 37.7096 51.5717 39.6998 47.3429C39.8426 47.0374 40.2093 46.9038 40.514 47.047C40.8187 47.1902 40.952 47.5577 40.8092 47.8632C38.3476 53.0991 37.2144 53.6289 36.3574 53.4141C35.9384 53.3091 35.686 52.9798 35.4813 52.7125C35.4099 52.6218 35.3003 52.4786 35.2385 52.4261C34.9861 52.4882 34.7433 52.8175 34.5052 53.1373L34.4481 53.2136C33.2911 54.7553 31.7674 55.8101 30.1486 56.1776C29.7296 56.2731 29.3011 56.3208 28.8773 56.3208L28.8726 56.3304Z" fill="#408F95"/>
<path d="M20.9071 60.6357C20.9071 60.6357 20.8785 60.6357 20.8642 60.6357C19.3787 60.5259 17.8693 60.4543 16.3743 60.4161C15.5982 60.397 14.9649 60.3922 14.4221 60.3875C12.8223 60.3731 11.9415 60.3636 10.6512 60.039C8.84188 59.5856 7.44205 58.8935 6.37075 57.9151C5.02806 56.6884 4.29482 55.0036 4.40909 53.4094C4.47099 52.5264 4.93284 51.6482 5.58514 51.1709C6.05175 50.832 6.5993 50.7175 7.12304 50.8463C7.54204 50.9513 7.86581 51.19 8.15149 51.4L8.2848 51.5002C10.0322 52.7603 12.4795 52.956 14.4126 52.9894C15.0078 52.9989 15.622 52.9703 16.2314 52.9035C16.5695 52.8605 16.8695 53.1087 16.9076 53.4476C16.9456 53.7865 16.7028 54.0872 16.3648 54.1253C15.7077 54.1969 15.0411 54.2304 14.3936 54.216C12.2796 54.1826 9.59893 53.9535 7.57061 52.4978L7.42301 52.388C7.21351 52.2305 7.01353 52.0825 6.82784 52.0396C6.65167 51.9966 6.48026 52.0396 6.3041 52.1637C5.95176 52.4214 5.66608 52.9798 5.63275 53.4905C5.54705 54.7172 6.13269 56.0298 7.19922 57.0034C8.1134 57.8387 9.34182 58.4401 10.9511 58.841C12.1034 59.1274 12.8366 59.137 14.4364 59.1513C14.984 59.156 15.6268 59.1608 16.4076 59.1799C17.9217 59.2181 19.4501 59.2897 20.9547 59.3995C21.2927 59.4233 21.5451 59.7193 21.5213 60.0581C21.4975 60.3827 21.2308 60.6261 20.9118 60.6261L20.9071 60.6357Z" fill="#408F95"/>
<path d="M54.7695 95.693C54.6267 95.693 54.4886 95.6453 54.3743 95.545C49.2035 91.1348 43.8994 88.6338 38.6096 88.104C38.1001 88.0515 37.6097 88.1708 36.9336 88.3379C35.3291 88.7292 32.9008 89.3259 27.5776 88.0897C23.302 87.1017 20.1214 87.0969 16.9408 88.0801C16.9218 88.0849 16.9027 88.0897 16.8789 88.0944C15.0887 88.4524 13.4841 88.0085 12.789 86.9633C12.3033 86.1184 12.4176 85.4932 12.589 85.1066C13.1746 83.8179 15.2744 83.4026 16.5314 83.1497H16.5409C16.798 82.9778 17.236 82.4528 17.3122 81.9994C17.3455 81.7989 17.2932 81.6844 17.2265 81.6032C16.0029 80.8061 14.6078 80.4529 13.127 80.0759C12.6509 79.9566 12.17 79.8325 11.6891 79.6988C11.6701 79.694 11.651 79.6845 11.632 79.6797C6.8754 77.7705 2.40929 75.6943 0.0762386 71.308C0.00481879 71.1743 -0.0142265 71.0168 0.0238641 70.8688C0.266691 69.8999 0.83805 69.2031 1.67604 68.8547C2.93303 68.3344 4.52807 68.721 5.547 69.332C6.69923 69.9047 7.79434 70.5538 8.85135 71.1791C10.3988 72.0955 11.8653 72.9546 13.5317 73.6228C13.546 73.6276 13.5651 73.6372 13.5793 73.6419C13.7984 73.7517 14.0555 73.7804 14.2174 73.7135C14.284 73.6849 14.384 73.6228 14.4507 73.4176C14.6125 72.8401 14.6459 72.1766 14.6744 71.5275C14.7411 70.1195 14.8125 68.5253 16.4552 67.5851C17.9026 66.8596 19.731 66.9216 20.4785 68.4203C21.3974 69.9524 20.6737 71.7184 20.0928 73.136L20.0071 73.346C21.1784 76.7969 24.6066 78.434 27.3824 79.7513C31.0058 80.9398 34.972 80.3861 38.5906 79.737C37.4526 78.5867 36.3146 77.4269 35.1767 76.2575C30.5725 71.5275 25.9731 66.6591 21.5069 61.7811C21.2784 61.5329 21.2927 61.1416 21.545 60.9125C21.7926 60.6834 22.1831 60.6977 22.4116 60.9506C26.8729 65.8191 31.4629 70.6779 36.0575 75.3984C37.4669 76.8494 38.8762 78.2812 40.2856 79.7036C40.4475 79.8659 40.5046 80.1045 40.438 80.3193C40.3713 80.5389 40.1856 80.6964 39.9618 80.7393C35.8957 81.4887 31.2867 82.3335 26.9682 80.9064C26.9444 80.8968 26.9206 80.8873 26.8968 80.8777C23.8448 79.4315 20.0405 77.6274 18.7739 73.5035C18.7311 73.3699 18.7406 73.2267 18.793 73.093L18.9644 72.6683C19.4929 71.3843 20.0357 70.0574 19.412 69.0122C18.9834 68.1578 17.8883 68.2437 17.0408 68.6685C16.0648 69.2269 15.9743 70.1434 15.9029 71.5848C15.8695 72.3007 15.8362 73.0405 15.622 73.7756C15.4029 74.4295 14.9935 74.7159 14.684 74.8399C14.1983 75.0404 13.5889 75.007 13.0508 74.7445C11.3082 74.0429 9.80838 73.1599 8.22762 72.2244C7.18489 71.6087 6.10883 70.9739 4.95659 70.3963C4.1805 69.9334 2.99969 69.6183 2.14265 69.9763C1.72366 70.1481 1.44274 70.4631 1.27609 70.9309C3.44725 74.8018 7.61341 76.73 12.0557 78.5104C12.5128 78.6392 12.9699 78.7585 13.427 78.8731C14.9649 79.2597 16.5504 79.6606 17.9645 80.6057C17.9978 80.6295 18.0312 80.6534 18.0597 80.682C18.4502 81.0734 18.6168 81.608 18.5264 82.1807C18.374 83.1306 17.5646 84.004 17.0361 84.2665C16.9884 84.2904 16.9361 84.3095 16.8837 84.319L16.779 84.3381C15.96 84.5004 14.0364 84.887 13.7127 85.5982C13.6841 85.665 13.5936 85.8655 13.8365 86.2998C14.2174 86.8678 15.3648 87.1208 16.6123 86.8773C20.8784 85.5696 24.6875 86.1423 27.8538 86.8773C32.896 88.0419 35.0672 87.5169 36.6479 87.1255C37.3812 86.9442 38.0144 86.7914 38.7334 86.863C44.2756 87.4167 49.8082 90.0179 55.1695 94.5952C55.4266 94.8148 55.4599 95.2014 55.2409 95.4591C55.1219 95.6023 54.9457 95.6739 54.7743 95.6739L54.7695 95.693Z" fill="#408F95"/>
<path d="M79.6664 102.595C79.5046 102.595 79.3474 102.533 79.2332 102.413C77.8619 101.024 73.2244 96.385 71.0056 94.934C70.5914 94.662 70.0962 94.347 69.92 94.2372C69.901 94.2276 69.8819 94.2133 69.8629 94.199C69.501 93.9794 69.1344 93.7599 68.7725 93.5451C68.0393 93.1108 67.2822 92.6621 66.5538 92.1705C64.7397 90.9391 63.1113 89.4356 61.5353 87.9846C59.5642 86.1613 57.5215 84.276 55.1647 83.0016C53.6173 82.1616 51.2747 80.8968 51.5889 78.7155C51.6366 78.3814 51.946 78.1475 52.2841 78.1953C52.6174 78.243 52.8507 78.5532 52.8031 78.8921C52.6269 80.1235 54.0934 81.0304 55.7503 81.9229C58.2453 83.2737 60.3402 85.2067 62.3686 87.0825C63.9112 88.5049 65.5063 89.9797 67.2394 91.1538C67.9346 91.6264 68.6773 92.0655 69.3963 92.4903C69.7677 92.7098 70.1343 92.9294 70.5057 93.1537C70.5104 93.1537 70.5152 93.1585 70.5199 93.1633L70.5818 93.2014C70.7628 93.316 71.2579 93.6358 71.6769 93.9078C73.5815 95.1536 77.0096 98.4612 79.1046 100.547C79.1046 100.523 79.1046 100.499 79.1141 100.471C79.1189 100.399 79.1427 100.227 79.1665 100.017C79.2046 99.7308 79.2379 99.4922 79.2665 99.3204C79.3189 98.9863 79.6331 98.7572 79.9664 98.8097C80.2997 98.8622 80.5282 99.1772 80.4759 99.5113C80.4521 99.6736 80.4187 99.9027 80.3806 100.175C80.3568 100.37 80.3378 100.537 80.3283 100.6C80.2854 101.029 80.2664 101.487 80.2807 101.969C80.2854 102.222 80.1378 102.451 79.9093 102.552C79.8331 102.585 79.7521 102.599 79.6712 102.599L79.6664 102.595Z" fill="#408F95"/>
<path d="M64.9443 123.911C64.8062 123.911 64.6729 123.868 64.5586 123.772C61.5971 121.357 58.426 119.352 55.136 117.816C51.5888 116.159 50.2128 116.436 48.8844 116.703C48.2082 116.837 48.013 117.319 47.7036 118.221C47.5845 118.565 47.4655 118.918 47.2941 119.262C47.2179 119.415 47.0798 119.529 46.9179 119.577C45.7562 119.92 44.542 120.355 43.3707 120.78C39.4998 122.178 35.4955 123.619 31.577 122.469C31.3579 122.402 31.1913 122.226 31.1484 122.001C30.8532 120.522 31.596 120.035 32.0864 119.71C32.2293 119.615 32.3673 119.529 32.4673 119.424C32.5149 119.376 32.5673 119.338 32.6244 119.31C33.8814 118.679 35.2337 118.35 36.662 118.007C37.2477 117.863 37.8524 117.72 38.4428 117.548C39.4617 117.047 40.6425 116.766 41.6852 116.513C41.7138 116.508 41.7424 116.498 41.7709 116.493C41.2377 115.82 39.7617 114.599 38.8618 114.398C37.3334 114.26 35.8241 114.336 34.3719 114.403C32.8625 114.475 31.3008 114.551 29.6724 114.403C25.4539 113.825 21.1735 113.763 17.0311 113.701C14.9457 113.668 12.7935 113.634 10.67 113.539C7.33231 113.167 4.94213 112.427 2.87572 111.133C2.75192 111.057 2.66622 110.938 2.61861 110.809C2.61861 110.799 2.61385 110.79 2.60908 110.78C2.60908 110.771 2.60432 110.761 2.59956 110.752C2.57099 110.618 2.58528 110.47 2.64717 110.341C2.67098 110.298 2.69479 110.25 2.71859 110.212C3.82322 108.351 5.72299 107.406 8.356 107.401C14.1077 106.943 19.5594 107.205 25.3253 107.487C26.7871 107.559 28.2583 107.63 29.7391 107.687H29.7439C30.1533 107.687 30.6009 107.735 31.0389 107.783C32.1245 107.897 33.1482 108.007 34.01 107.487C34.1385 107.401 34.229 107.224 34.2528 106.986C34.2957 106.542 34.1052 106.06 33.891 105.85C33.8433 105.802 33.8053 105.75 33.7767 105.692C33.2768 104.69 32.5959 103.726 31.8769 102.704C30.5676 100.843 29.2106 98.9147 28.8202 96.5616C28.8154 96.5282 28.8106 96.4948 28.8106 96.4614C28.8106 95.0725 29.4629 94.452 30.0152 94.1751C30.0771 94.1417 30.1438 94.1226 30.2152 94.1131C32.5816 93.8124 34.9051 94.915 36.2811 96.9816C36.4383 97.2203 36.5763 97.4351 36.7001 97.6355C37.0334 98.1606 37.2715 98.5376 37.6429 98.9147C37.681 98.9529 37.7143 98.9958 37.7429 99.0436C38.4999 100.375 39.0141 101.807 39.5093 103.196C39.7474 103.859 39.9712 104.494 40.2235 105.11C41.7995 105.186 43.2231 105.463 44.4659 105.94C44.9563 106.127 46.6608 106.823 46.6608 106.823L46.199 107.959C46.199 107.959 44.5135 107.272 44.0278 107.086C42.8089 106.618 41.3853 106.36 39.795 106.322C39.5569 106.318 39.3427 106.17 39.2474 105.95C38.9237 105.191 38.638 104.389 38.3571 103.611C37.8905 102.299 37.4048 100.943 36.7192 99.7261C36.2811 99.2774 35.9955 98.8192 35.6669 98.299C35.5431 98.1081 35.4146 97.898 35.2622 97.6689C34.1671 96.0271 32.3483 95.1345 30.4866 95.3254C30.2819 95.4543 30.0533 95.7264 30.0438 96.4137C30.4009 98.4708 31.6627 100.265 32.8863 102.003C33.5815 102.991 34.3004 104.012 34.8385 105.067C35.286 105.573 35.5479 106.399 35.4765 107.115C35.4193 107.721 35.1289 108.227 34.6718 108.532C33.4339 109.277 32.0959 109.138 30.9151 109.009C30.4914 108.967 30.0867 108.924 29.72 108.924C28.2107 108.862 26.7347 108.79 25.273 108.718C19.5403 108.437 14.122 108.174 8.43694 108.632C8.42266 108.632 8.40361 108.632 8.38933 108.632C6.63716 108.632 5.3278 109.086 4.41362 110.012C4.65645 110.193 4.83738 110.427 4.90404 110.651C4.92785 110.723 4.93737 110.795 4.94213 110.866C6.53241 111.596 8.39409 112.059 10.7605 112.322C12.8269 112.413 14.9695 112.446 17.0454 112.479C21.2211 112.541 25.5396 112.608 29.8057 113.191C31.3198 113.329 32.8387 113.257 34.31 113.191C35.8193 113.119 37.3762 113.043 39.0046 113.191C39.0284 113.191 39.0475 113.195 39.0713 113.2C40.4616 113.482 43.1089 115.591 43.1803 116.713C43.2041 117.104 42.9803 117.439 42.6042 117.567C42.3709 117.629 42.1757 117.677 41.9709 117.725C40.971 117.964 39.8378 118.24 38.938 118.689C38.9046 118.708 38.8665 118.718 38.8332 118.732C38.2 118.913 37.5619 119.066 36.9525 119.214C35.6241 119.534 34.3719 119.839 33.2577 120.383C33.0863 120.536 32.9149 120.651 32.7578 120.756C32.434 120.971 32.2864 121.066 32.3007 121.41C35.7241 122.25 39.3998 120.928 42.9565 119.644C44.0564 119.247 45.1896 118.837 46.3037 118.498C46.3894 118.288 46.4656 118.069 46.5466 117.839C46.856 116.928 47.2465 115.792 48.6463 115.515C50.0985 115.224 51.7507 114.895 55.655 116.718C59.0403 118.298 62.297 120.355 65.3347 122.837C65.5966 123.052 65.6347 123.438 65.4252 123.701C65.3062 123.849 65.13 123.925 64.9491 123.925L64.9443 123.911Z" fill="#408F95"/>
<path d="M101.978 133.056C101.845 133.056 101.707 133.013 101.597 132.922C101.335 132.712 101.292 132.325 101.502 132.058C103.625 129.4 106.068 127.013 108.768 124.966C110.805 123.419 113.005 122.054 115.305 120.913C115.61 120.761 115.976 120.889 116.124 121.19C116.276 121.496 116.148 121.863 115.848 122.011C113.619 123.118 111.486 124.44 109.506 125.939C106.887 127.925 104.516 130.24 102.459 132.822C102.34 132.975 102.159 133.051 101.978 133.051V133.056Z" fill="#408F95"/>
<path d="M85.0563 154.071C84.7754 154.071 84.4897 154.047 84.204 153.995C81.1996 153.431 79.9617 150.119 78.2476 145.532C77.1763 142.654 75.9574 139.399 74.0196 135.905C71.9151 132.115 69.263 128.617 66.13 125.5C65.892 125.261 65.8872 124.87 66.13 124.631C66.3681 124.393 66.7585 124.388 66.9966 124.631C70.2105 127.829 72.934 131.423 75.0909 135.313C77.0716 138.884 78.3619 142.334 79.3951 145.107C80.9663 149.317 82.0995 152.358 84.4278 152.792C86.1466 153.112 87.9512 151.976 88.813 151.427C91.027 150.024 91.9412 148.024 93.0029 145.709C93.1505 145.389 93.2981 145.064 93.4505 144.74C95.1455 141.151 97.35 137.628 100.002 134.263C100.212 133.996 100.597 133.953 100.864 134.163C101.131 134.373 101.173 134.76 100.964 135.027C98.3689 138.32 96.2121 141.762 94.5599 145.27C94.4075 145.59 94.2647 145.909 94.1171 146.224C93.022 148.616 91.984 150.873 89.4653 152.467C88.5987 153.016 86.918 154.081 85.0515 154.081L85.0563 154.071Z" fill="#408F95"/>
<path d="M88.5987 93.2921C88.3559 93.2921 88.1083 93.2301 87.8941 93.0439C87.5179 92.7098 87.5227 92.2087 87.5274 91.8459C87.5274 91.5357 87.5798 91.2302 87.6798 90.9343C87.7845 90.6145 88.1321 90.4379 88.4559 90.5429C88.7749 90.6479 88.9511 90.9963 88.8463 91.3209C88.7892 91.4975 88.7559 91.6741 88.7559 91.8602C88.7559 91.9127 88.7559 91.9796 88.7559 92.0416C88.8368 92.0225 88.9273 91.9891 88.9796 91.9748C89.7272 91.7266 90.5271 91.507 91.446 91.2923C91.7745 91.2159 92.1031 91.4211 92.1792 91.7552C92.2554 92.0846 92.0507 92.4139 91.7174 92.4903C90.8366 92.6907 90.0747 92.9055 89.3796 93.1346C89.1939 93.1967 88.9035 93.2921 88.6035 93.2921H88.5987Z" fill="#408F95"/>
<path d="M92.7647 118.46C92.6885 118.46 92.6076 118.45 92.5314 118.431C92.1838 118.35 91.9172 118.088 91.7362 117.663C90.9554 115.811 91.7077 113.095 91.7362 112.981C91.7458 112.947 92.6599 109.678 93.6265 104.036C93.7741 103.167 93.8169 102.79 93.7646 102.284C93.6122 100.752 92.7266 99.2965 91.1268 97.9649C90.9982 97.8599 90.9173 97.7024 90.9078 97.5353C90.8982 97.3683 90.9554 97.2012 91.0649 97.0771C92.2124 95.8075 93.3265 95.2777 94.2788 95.5402C94.8882 95.7073 95.2406 96.1511 95.4072 96.3659C96.2357 97.4112 96.7975 97.836 97.2975 98.2083C97.8022 98.5901 98.2831 98.9481 98.7592 99.7786C99.5877 101.23 99.6829 102.795 99.7591 104.055C99.8162 104.995 99.8638 105.807 100.188 106.15C100.64 106.628 100.84 107.105 100.802 107.592C100.768 108.007 100.535 108.327 100.388 108.542L93.8026 117.782C93.4836 118.226 93.1361 118.45 92.7599 118.45L92.7647 118.46ZM92.4171 97.4637C93.955 98.8956 94.8216 100.475 94.9882 102.165C95.0549 102.848 94.9882 103.344 94.8359 104.246C93.855 109.955 92.9266 113.281 92.917 113.315C92.9123 113.339 92.2838 115.606 92.8171 117.066L99.3924 107.84C99.4639 107.745 99.5781 107.582 99.5829 107.501C99.5924 107.382 99.5019 107.22 99.3163 107.024C98.6687 106.327 98.6116 105.315 98.5402 104.136C98.4687 102.948 98.3878 101.597 97.7022 100.399C97.3498 99.7834 97.0404 99.5495 96.569 99.1963C96.0405 98.8001 95.3786 98.3037 94.4645 97.1439C94.3359 96.9816 94.1883 96.7907 93.9645 96.7287C93.5932 96.6284 93.0361 96.8957 92.4219 97.4589L92.4171 97.4637Z" fill="#408F95"/>
<path d="M97.0738 126.221C96.8119 126.221 96.6119 126.121 96.4833 126.03C96.2453 125.858 96.1596 125.543 96.2786 125.276C96.8881 123.925 97.5927 122.622 98.3688 121.395C101.102 117.085 103.454 115.615 104.654 115.692C104.935 115.706 105.782 115.754 106.058 116.412C106.173 116.684 106.154 116.99 106.001 117.314C105.292 118.842 101.949 122.488 101.568 122.899C101.549 122.918 101.53 122.937 101.507 122.956L98.1165 125.758C97.6975 126.101 97.3451 126.216 97.0642 126.216L97.0738 126.221ZM104.563 116.923C103.925 116.923 101.873 118.154 99.402 122.059C98.9878 122.713 98.5926 123.39 98.226 124.087L100.697 122.04C101.673 120.98 104.154 118.174 104.816 116.942C104.759 116.933 104.682 116.923 104.587 116.918C104.587 116.918 104.573 116.918 104.563 116.918V116.923Z" fill="#408F95"/>
<path d="M80.1997 129.471C80.0378 129.471 79.8807 129.404 79.7616 129.29C77.9381 127.433 75.9097 125.763 73.7433 124.326C73.4624 124.14 73.3862 123.758 73.5719 123.476C73.5576 123.219 73.6243 122.97 73.7624 122.765C73.8814 122.593 74.0814 122.484 74.2909 122.498C76.4144 122.584 78.4666 123.519 79.9188 125.075C80.9472 126.178 81.6281 127.944 80.6901 129.223C80.5853 129.366 80.4187 129.457 80.2425 129.471C80.2282 129.471 80.214 129.471 80.1997 129.471ZM75.1955 123.825C76.8667 124.994 78.4427 126.292 79.9092 127.705C79.8711 127.109 79.5045 126.426 79.0236 125.906C78.0095 124.817 76.6477 124.087 75.1955 123.82V123.825Z" fill="#408F95"/>
<path d="M82.3136 121.247C82.0422 121.247 81.7994 121.066 81.7232 120.799L80.1806 115.334C79.9187 115.062 79.733 114.756 79.6283 114.417C79.4616 113.868 79.5664 113.41 79.6711 112.966C79.7092 112.814 79.7473 112.651 79.7806 112.465C79.8425 112.121 79.833 111.716 79.814 110.919C79.7901 109.859 79.6187 109.115 79.4616 108.456C79.2521 107.568 79.0759 106.804 79.4283 105.831C79.5806 105.415 79.7997 105.024 80.0901 104.676C80.3044 104.418 80.6853 104.38 80.9471 104.59C81.8232 105.296 82.4565 106.146 82.8279 107.105C83.2231 108.122 83.204 108.976 83.1802 110.155V110.217C83.1659 110.795 83.1659 111.372 83.1659 111.954C83.1659 112.88 83.1659 113.84 83.1183 114.79C83.0231 116.67 82.9564 118.641 82.9231 120.651C82.9231 120.956 82.6898 121.209 82.3898 121.252C82.3613 121.252 82.3374 121.257 82.3089 121.257L82.3136 121.247ZM80.5853 106.246C80.3567 106.881 80.471 107.368 80.6615 108.174C80.8186 108.857 81.0186 109.706 81.0471 110.89C81.0662 111.768 81.0757 112.212 80.9948 112.675C80.9567 112.89 80.9138 113.076 80.871 113.253C80.7757 113.654 80.7376 113.84 80.8043 114.059C80.8567 114.236 80.971 114.398 81.1376 114.551C81.2233 114.627 81.2852 114.728 81.3185 114.842L81.8137 116.589C81.8375 115.959 81.8661 115.334 81.8994 114.718C81.947 113.802 81.947 112.857 81.947 111.945C81.947 111.358 81.947 110.771 81.9613 110.184V110.122C81.9851 109.01 81.9994 108.332 81.6947 107.544C81.4757 106.981 81.1376 106.466 80.69 106.003C80.6519 106.084 80.6186 106.165 80.59 106.246H80.5853Z" fill="#408F95"/>
<path d="M86.0084 45.2953C85.4752 45.2953 85.0609 44.7559 84.9086 44.5603C84.2515 43.7154 84.3229 42.7227 84.3896 41.7585C84.4515 40.9042 84.5134 40.0212 84.1658 39.0666C84.023 38.6704 83.842 38.3602 83.6801 38.0881C83.3754 37.5679 83.0659 37.0285 83.304 36.2983C83.5849 35.4344 84.4562 34.7996 85.2561 34.8855C86.7083 35.0382 87.4368 37.4247 87.4892 38.6084C87.5701 40.5271 87.3987 42.4458 86.9797 44.3168C86.9369 44.5078 86.8226 45.0185 86.3417 45.2285C86.2274 45.2762 86.1179 45.3001 86.0132 45.3001L86.0084 45.2953ZM85.1085 36.1026C84.9086 36.1026 84.5705 36.3746 84.4705 36.6801C84.4086 36.8663 84.4705 37.0047 84.7419 37.4676C84.9181 37.7683 85.1371 38.1454 85.318 38.6466C85.7561 39.8493 85.6751 40.9567 85.6132 41.8492C85.5513 42.7513 85.5275 43.3336 85.8418 43.7679C86.1941 42.0926 86.337 40.3744 86.2655 38.6609C86.2227 37.6108 85.5751 36.1551 85.1323 36.1074C85.1276 36.1074 85.1181 36.1074 85.1133 36.1074L85.1085 36.1026Z" fill="#408F95"/>
<path d="M37.705 57.662C37.4098 57.662 37.1527 57.452 37.1003 57.1513C37.0432 56.8172 37.2717 56.5022 37.605 56.4449C38.6382 56.2683 39.5524 55.9104 40.319 55.371C41.3712 54.6312 42.0235 53.648 43.3234 51.6958C43.6281 51.2376 43.9233 50.7699 44.1994 50.3117C44.3756 50.0205 44.7518 49.9299 45.0422 50.1017C45.3326 50.2783 45.4279 50.6553 45.2517 50.9465C44.966 51.4238 44.6613 51.9011 44.347 52.3784C43.0044 54.3926 42.2663 55.5047 41.0284 56.3781C40.1095 57.0225 39.0287 57.4568 37.8098 57.662C37.7764 57.6668 37.7431 57.6716 37.7098 57.6716L37.705 57.662Z" fill="#408F95"/>
<path d="M48.6749 108.079C48.6368 108.079 48.5987 108.079 48.5606 108.069C48.2273 108.007 48.0083 107.683 48.075 107.349C48.6273 104.47 48.8177 104.084 49.2701 103.63C49.6652 103.234 49.989 103.067 50.2699 102.919C50.4937 102.805 50.6746 102.709 50.9032 102.499C51.0984 102.323 51.246 102.055 51.2698 101.831L47.6845 101.979C46.599 102.022 45.1087 102.084 43.9612 101.249C43.1565 100.662 42.6709 99.497 43.2803 98.6283C43.6612 98.089 44.285 97.9219 44.842 97.8312C45.68 97.6928 46.5371 97.6164 47.3846 97.6021H47.6845C48.1559 97.5974 48.5987 97.5926 49.0082 97.4971C49.4891 97.3826 49.97 97.1296 50.4366 96.8766L54.4456 94.7288C54.7456 94.5713 55.117 94.6811 55.2741 94.9818C55.4312 95.2825 55.3217 95.6548 55.0217 95.8123L51.0127 97.9601C50.5032 98.2322 49.9271 98.5424 49.2891 98.6904C48.7463 98.8192 48.213 98.8192 47.6941 98.824H47.4036C46.6132 98.8383 45.8229 98.9099 45.042 99.0388C44.7516 99.0865 44.404 99.1629 44.2802 99.3347C44.1231 99.5543 44.3707 100.022 44.6801 100.246C45.4229 100.786 46.4561 100.79 47.6322 100.743L51.6745 100.576C51.8745 100.561 52.0697 100.657 52.1887 100.819C52.8125 101.645 52.4173 102.762 51.7317 103.396C51.3793 103.721 51.0889 103.874 50.8318 104.007C50.5889 104.132 50.3937 104.232 50.1366 104.494C49.9509 104.68 49.8033 104.828 49.2796 107.578C49.2224 107.874 48.9653 108.074 48.6797 108.074L48.6749 108.079Z" fill="#408F95"/>
<path d="M74.6241 118.417C74.6241 118.417 74.5907 118.417 74.5764 118.417L74.2479 118.393C72.4624 118.255 70.6103 118.107 68.8819 117.348C66.9393 116.494 65.649 115.778 64.2015 114.895C61.7542 113.405 59.0498 112.102 56.1597 111.029L55.893 110.943C55.793 110.909 55.7073 110.852 55.6359 110.78C55.0741 110.179 54.6265 109.501 54.298 108.757L54.2599 108.671C53.9933 108.06 53.7171 107.435 53.8171 106.657C53.9028 105.984 55.6026 101.812 56.5453 101.306C56.5739 101.292 56.6358 101.254 56.7215 101.201C57.6119 100.666 58.5118 100.151 59.0593 100.046C60.7067 99.7214 62.4018 99.7023 64.1015 99.9839C64.192 99.9982 64.2777 100.032 64.3539 100.089C67.2393 102.117 69.7437 104.781 71.5959 107.788C73.448 110.795 74.705 114.231 75.224 117.725C75.2526 117.911 75.1954 118.097 75.0669 118.236C74.9478 118.36 74.7859 118.431 74.6193 118.431L74.6241 118.417ZM56.4263 109.821L56.5644 109.864C59.5497 110.971 62.3256 112.308 64.8395 113.84C66.2441 114.694 67.4916 115.391 69.3723 116.217C70.7722 116.832 72.3482 117 73.8908 117.124C73.3337 114.059 72.191 111.062 70.5579 108.418C68.8152 105.592 66.4679 103.086 63.7682 101.163C62.2589 100.929 60.7591 100.953 59.3021 101.244C59.0307 101.296 58.3737 101.635 57.3595 102.246C57.2357 102.323 57.1691 102.361 57.1214 102.385C56.6596 102.848 55.1312 106.084 55.0407 106.804C54.9836 107.244 55.155 107.63 55.3931 108.17L55.4312 108.26C55.6788 108.828 56.0168 109.348 56.4311 109.816L56.4263 109.821Z" fill="#408F95"/>
<path d="M52.5888 77.2789C52.5078 77.2789 52.4317 77.2646 52.3507 77.2312C52.0365 77.0975 51.8936 76.7396 52.0222 76.4246C52.2365 75.9091 52.4936 75.4127 52.7792 74.9449C53.3316 74.0524 54.46 72.21 56.4788 71.5943C56.7645 71.5084 56.9311 71.4845 57.1073 71.4607C57.2025 71.4464 57.3073 71.4368 57.4549 71.4082C58.7833 71.1457 59.5594 70.4297 60.6307 69.4322C61.2211 68.8785 61.8924 68.258 62.778 67.5994C63.9017 66.7641 64.6064 66.3966 65.1206 66.1293C65.6729 65.8429 66.0109 65.6663 66.568 65.0745C67.406 64.1819 68.0536 62.6784 67.4822 61.4709C67.3108 61.1034 66.9299 60.7549 66.6252 60.8074C66.3585 60.8552 66.1062 61.1559 65.8395 61.4757C65.7729 61.5568 65.7062 61.6332 65.6396 61.7143C64.8778 62.5878 63.8969 63.151 62.9447 63.6951C62.4495 63.9767 61.9829 64.2487 61.5448 64.5542C60.7687 65.1031 60.0307 65.8191 59.3118 66.5111C57.7786 68.0003 56.1931 69.5372 53.9791 69.7376C53.6506 69.7663 53.3458 69.5181 53.3125 69.184C53.2839 68.8451 53.5315 68.5444 53.8696 68.5158C55.6551 68.3535 57.0168 67.0314 58.4643 65.6281C59.2118 64.9026 59.9879 64.1533 60.8402 63.5519C61.3258 63.213 61.8353 62.9171 62.3352 62.6307C63.2351 62.1152 64.0874 61.6236 64.7159 60.9077C64.7778 60.8361 64.8349 60.7645 64.8968 60.6929C65.2587 60.2586 65.7062 59.7192 66.4157 59.5999C67.3917 59.4281 68.2297 60.1822 68.5916 60.9506C69.4058 62.688 68.6106 64.6974 67.4584 65.9241C66.7585 66.6639 66.2871 66.9121 65.6872 67.2223C65.1825 67.4848 64.554 67.8094 63.5113 68.5921C62.6828 69.2079 62.0353 69.8092 61.4687 70.339C60.3402 71.3891 59.3689 72.2912 57.6977 72.6205C57.5168 72.6539 57.3882 72.673 57.2739 72.6873C57.1216 72.7064 57.0311 72.7207 56.8406 72.778C55.2694 73.2553 54.3362 74.7731 53.8363 75.5893C53.5791 76.0093 53.3506 76.4532 53.1601 76.9066C53.0602 77.1405 52.8364 77.2837 52.5935 77.2837L52.5888 77.2789Z" fill="#408F95"/>
<path d="M109.982 154.577C108.315 154.577 106.649 154.41 105.011 154.076C103.764 153.818 102.021 153.307 101.264 151.809C100.892 151.069 100.854 150.229 100.826 149.551C100.707 146.892 100.745 144.138 102.568 142.267C102.964 141.862 103.168 141.752 104.159 141.232C104.544 141.031 105.059 140.754 105.768 140.373C106.706 139.867 107.511 139.413 108.211 139.017C111.115 137.38 112.439 136.635 114.281 137.046C114.638 137.127 114.995 137.284 115.653 137.576C118.69 138.917 121.309 140.912 123.218 143.341C125.07 145.694 124.989 146.807 124.966 147.174C124.894 148.176 124.371 149.169 123.394 150.133C122.057 151.46 120.252 152.491 117.881 153.288C115.324 154.147 112.653 154.577 109.972 154.577H109.982ZM113.343 138.168C112.22 138.168 111.067 138.817 108.815 140.086C108.106 140.487 107.296 140.941 106.354 141.451C105.639 141.838 105.116 142.115 104.73 142.315C103.744 142.835 103.697 142.864 103.449 143.122C101.969 144.644 101.945 147.107 102.054 149.494C102.083 150.109 102.111 150.744 102.364 151.25C102.754 152.028 103.673 152.544 105.259 152.863C109.33 153.699 113.567 153.436 117.505 152.114C119.695 151.379 121.342 150.444 122.542 149.25C123.294 148.501 123.704 147.771 123.752 147.079C123.794 146.429 123.271 145.37 122.266 144.091C120.476 141.819 118.024 139.953 115.167 138.688C114.581 138.43 114.262 138.287 114.019 138.234C113.791 138.182 113.567 138.158 113.343 138.158V138.168Z" fill="#408F95"/>
</g>
</g>
<defs>
<clipPath id="clip0_0_1">
<rect width="1440" height="7491" fill="white" transform="translate(-1006 -1626)"/>
</clipPath>
<clipPath id="clip1_0_1">
<rect width="194" height="181" fill="white"/>
</clipPath>
</defs>
</svg>
