<svg width="71" height="162" viewBox="0 0 71 162" fill="none" xmlns="http://www.w3.org/2000/svg">
<rect width="71" height="162" fill="#1E1E1E"/>
<g clip-path="url(#clip0_0_1)">
<rect width="1440" height="7491" transform="translate(-1189 -4792)" fill="white"/>
<g clip-path="url(#clip1_0_1)">
<path d="M37.4472 29.3864C36.7922 29.3864 36.1077 29.2977 35.4291 29.0672C33.1573 28.3046 31.4814 26.9863 31.4165 26.9331C31.2218 26.7794 30.8087 26.4483 30.1891 26.2946C29.9058 26.2237 29.4279 26.1055 29.0738 26.2769C28.8968 26.3597 28.826 26.472 28.6549 26.7853C28.5014 27.069 28.3126 27.4297 27.9408 27.7371C27.0439 28.4878 25.669 28.5115 23.7453 27.808C23.5269 27.7311 23.3558 27.5656 23.2614 27.3528C22.6418 25.9104 21.739 24.799 20.5883 24.0423C19.1544 23.1024 17.7027 22.9723 16.4517 22.9191C11.2235 22.7004 4.85639 23.3684 1.52237 23.7822C1.068 23.8413 0.654932 23.5221 0.590022 23.0669L0.00582977 18.7988C-0.0295758 18.5446 0.0530372 18.2845 0.235966 18.1012C0.412994 17.918 0.666734 17.8234 0.926375 17.853C6.75059 18.4973 11.4595 17.9475 15.3364 16.1622C20.0159 14.0104 23.3027 9.78369 23.7158 5.39732C23.7571 4.93622 24.176 4.59926 24.6245 4.64064C25.0848 4.68203 25.4211 5.08992 25.3798 5.55102C24.9137 10.5167 21.2492 15.2814 16.0387 17.6815C12.1263 19.4845 7.4587 20.1171 1.81151 19.6205L2.13607 22.0088C5.67072 21.589 11.5776 21.0334 16.5166 21.2344C17.5788 21.2757 19.5556 21.3585 21.497 22.6295C22.8188 23.4926 23.8987 24.7695 24.6422 26.336C25.7221 26.6848 26.5246 26.7262 26.8669 26.4365C26.979 26.3419 27.0616 26.2001 27.1737 25.9813C27.3802 25.5971 27.6576 25.0709 28.3598 24.7458C29.2567 24.3261 30.1537 24.5507 30.5845 24.6571C31.5581 24.8995 32.1954 25.4079 32.4373 25.5971C32.4669 25.6207 33.9775 26.803 35.9602 27.471C38.1494 28.2041 40.4803 27.0277 41.3537 26.5843C42.4866 26.0109 43.4898 25.2128 44.3218 24.2138C44.5874 23.8945 45.0476 23.8177 45.4017 24.0364C47.1425 25.1123 49.1665 25.5261 51.7924 25.3547C52.2468 25.3133 52.6539 25.6739 52.6834 26.135C52.7129 26.5961 52.3648 26.9981 51.9045 27.0277C49.2137 27.2109 47.0421 26.8267 45.1361 25.8158C44.2569 26.7498 43.2419 27.5065 42.109 28.0799C41.3891 28.4464 39.5421 29.3805 37.4413 29.3805L37.4472 29.3864Z" fill="#408F95"/>
<path d="M35.5295 91.2035C35.5295 91.2035 35.5 91.2035 35.4823 91.2035L33.3934 91.0912C33.3285 91.0912 33.2577 91.0735 33.1986 91.0558C31.1923 90.4528 29.9472 89.4064 29.487 87.9581C29.2037 87.0714 29.3099 86.3029 29.3866 85.6822C29.4398 85.2861 29.487 84.9432 29.3925 84.7895C29.3748 84.754 28.8733 84.0033 24.9904 85.3807C24.6364 85.5048 24.2469 85.3807 24.0345 85.0792C23.8162 84.7777 23.828 84.3639 24.0581 84.0742L24.8193 83.1047C27.2151 80.0485 28.9795 77.808 29.1447 77.1045C28.9205 76.9863 28.3717 76.8444 27.9173 76.7262C27.0086 76.4897 25.7694 76.1705 24.3177 75.5084C24.0286 75.3783 23.8398 75.0887 23.828 74.7695C23.8162 74.4502 23.9873 74.1546 24.2705 74.0009C25.6455 73.2679 28.2478 71.2521 30.7203 68.5564C30.738 68.5328 30.7616 68.515 30.7793 68.4973C30.8147 68.4618 30.9209 68.3613 31.0743 68.2076C32.5377 66.7889 33.5055 65.8607 34.1664 65.2578C34.0425 65.2105 33.9245 65.1691 33.8123 65.1218C32.1424 64.4952 30.915 64.0104 30.3544 63.4607C30.1597 63.2656 30.0652 62.9877 30.1125 62.7158C30.1597 62.4439 30.3367 62.2133 30.5845 62.0951C32.1896 61.3561 33.6412 60.3039 34.8981 58.962C35.5708 58.2467 36.1845 57.4486 36.7274 56.5855C36.5858 56.2072 36.4087 55.8466 36.2022 55.5215C35.86 54.9894 35.4351 54.546 34.9453 54.1973C34.727 54.0436 34.5913 53.7953 34.5854 53.5293C34.5854 53.2632 34.7034 53.009 34.9099 52.8435C36.4383 51.6671 37.9017 50.3902 39.253 49.0542C40.9171 47.4108 41.5072 46.5655 41.4304 45.9211C41.3773 45.4896 41.3773 45.4541 44.257 40.648C46.7413 36.4981 50.5002 30.226 52.5655 25.8987C52.7661 25.479 53.2618 25.3075 53.6808 25.5026C54.0997 25.7036 54.2709 26.2002 54.0761 26.6199C51.9754 31.0181 48.1988 37.3257 45.6968 41.5052C44.5048 43.4974 43.3718 45.3832 43.1122 45.927C43.1712 47.2748 42.2389 48.4631 40.4273 50.2484C39.2648 51.3952 38.0315 52.4947 36.7392 53.5293C37.0579 53.8544 37.347 54.2091 37.6007 54.6052C37.9607 55.1609 38.2439 55.7816 38.4387 56.4437C38.5036 56.6683 38.4741 56.9107 38.3561 57.1117C37.707 58.1994 36.9516 59.2043 36.1137 60.097C35.081 61.1965 33.9363 62.1246 32.6853 62.8695C33.2518 63.1119 33.9068 63.3543 34.3906 63.5375C35.3584 63.8981 35.8954 64.105 36.2081 64.3119C36.3556 64.4065 36.4737 64.5425 36.5386 64.7021C36.6802 65.045 36.5799 65.4469 36.2907 65.6775C36.2199 65.7307 36.1432 65.778 36.0665 65.8075C35.801 66.0145 34.9394 66.7711 32.2368 69.3959C32.1365 69.4963 32.0362 69.5909 31.9417 69.6737C30.0121 71.7782 28.0235 73.4748 26.4952 74.5566C27.1797 74.7872 27.7934 74.9468 28.3245 75.0887C29.5519 75.4079 30.4429 75.6384 30.738 76.5134C31.1156 77.6306 30.3131 78.7657 26.9673 83.0397C28.59 82.7087 30.1361 82.7559 30.8206 83.9146C31.21 84.5649 31.1156 85.2684 31.033 85.8832C30.9622 86.4034 30.8973 86.8999 31.0684 87.432C31.3458 88.301 32.1896 88.9631 33.5763 89.4005L35.5649 89.5069C36.0252 89.5306 36.3792 89.9267 36.3556 90.3877C36.332 90.837 35.9603 91.1799 35.5236 91.1799L35.5295 91.2035Z" fill="#408F95"/>
<path d="M26.566 12.8634C26.4362 12.8634 26.3064 12.8515 26.1765 12.8279C25.61 12.7274 25.1144 12.4082 24.7839 11.9352C24.4535 11.4623 24.3295 10.883 24.4299 10.3155C24.5302 9.74797 24.8488 9.2514 25.3209 8.92035C25.793 8.5893 26.3713 8.46516 26.9378 8.56566C27.5042 8.66615 27.9999 8.98538 28.3304 9.4583C28.6608 9.93123 28.7847 10.5106 28.6844 11.0781C28.5841 11.6456 28.2655 12.1421 27.7934 12.4732C27.4275 12.7274 27.0027 12.8634 26.5601 12.8634H26.566ZM26.566 10.2032C26.4657 10.2032 26.3713 10.2327 26.2886 10.2918C26.1824 10.3687 26.1116 10.481 26.088 10.6051C26.0644 10.7352 26.088 10.8652 26.1706 10.9717C26.2473 11.0781 26.3595 11.149 26.4893 11.1726C26.6191 11.1963 26.7489 11.1727 26.8551 11.0899C26.9614 11.013 27.0322 10.9007 27.0558 10.7766C27.0794 10.6465 27.0558 10.5165 26.9791 10.4101C26.9023 10.3037 26.7902 10.2327 26.6604 10.2091C26.6309 10.2091 26.6014 10.2032 26.5719 10.2032H26.566Z" fill="#408F95"/>
<path d="M58.6908 101.135C58.6317 101.135 58.5727 101.135 58.5196 101.117C58.1538 101.04 57.8823 100.727 57.8587 100.348C57.6758 97.4045 55.6223 94.7443 52.8606 93.8812C50.6124 93.1718 48.429 93.899 46.8771 95.8616C46.5879 96.2222 46.0628 96.2872 45.7028 95.9976C45.3428 95.7079 45.2779 95.1818 45.5671 94.8212C47.5734 92.2851 50.4117 91.357 53.3622 92.2851C55.9586 93.1009 58.0476 95.1936 58.9976 97.7474C59.3989 96.9375 59.8355 96.0862 60.1896 95.4892C60.5495 94.8921 60.8918 94.2537 61.2163 93.6329C61.6471 92.8231 62.0956 91.9836 62.609 91.1915C63.3643 90.0269 64.3143 88.9037 65.2408 87.816C67.5303 85.1262 69.6901 82.5902 69.277 79.2442C69.1354 78.1033 68.7754 76.856 68.3978 75.5318C67.613 72.7888 66.7455 69.7562 67.7487 67.0901C63.8069 68.5798 59.7824 69.9217 55.7403 71.104C55.4806 71.1809 55.1974 71.1277 54.985 70.9563C54.7725 70.7907 54.6545 70.5247 54.6663 70.2587C54.7548 68.5621 55.7993 67.0546 57.2509 66.2625C56.649 65.7777 56.1297 65.157 55.7344 64.4476C54.9319 63.0111 54.7371 61.35 55.1856 59.8898C55.6282 58.4533 56.708 57.206 58.142 56.4671C58.9268 56.0651 59.7706 55.8345 60.6086 55.7813C58.7321 52.6127 58.3839 48.5515 59.7942 45.1346C59.8945 44.8982 60.0952 44.7149 60.343 44.6499C60.5909 44.5789 60.8564 44.6262 61.0629 44.7799L61.8891 45.3888C60.9803 41.103 60.1424 33.8554 64.9575 30.3203C63.0456 29.1439 61.8064 26.8443 62.0661 24.5861C62.2608 22.8895 63.677 21.3998 64.7274 20.448C62.3316 19.6204 58.5491 17.7642 57.1565 16.6587C55.876 15.6419 55.5397 14.1818 56.2301 12.6625C56.3186 12.4615 56.472 12.1955 56.6667 11.9058C54.926 11.5216 52.6423 10.5757 51.2379 9.03282C50.7481 8.58354 50.6478 8.08697 50.6537 7.7441C50.6655 7.10565 51.049 6.54406 51.4739 6.10069C51.1612 5.97064 50.8248 5.84058 50.518 5.72826C50.0813 5.57456 49.8571 5.09573 50.0105 4.65827C50.1639 4.22082 50.6478 3.99618 51.0785 4.14988C51.5329 4.31541 52.0522 4.52231 52.483 4.69966C52.6659 4.77651 52.8783 4.85927 53.0318 4.92429H53.0436C53.3858 4.92429 53.7281 5.13711 53.8579 5.46224C53.9287 5.63959 53.9405 5.7992 53.9051 5.94108C53.8933 6.04749 53.8579 6.14798 53.8048 6.24257C53.6986 6.42583 53.5746 6.53815 53.433 6.59726C53.3976 6.62682 53.3622 6.65638 53.3268 6.68002C52.5066 7.34803 52.3473 7.63769 52.3295 7.75592C52.3295 7.75592 52.3532 7.77366 52.3768 7.80322C52.4004 7.82686 52.424 7.85051 52.4476 7.87416C54.0939 9.70673 57.1978 10.4043 58.1479 10.4339C58.3485 10.3393 58.5432 10.3038 58.7321 10.3393C59.1097 10.4102 59.4107 10.7531 59.4343 11.1373C59.4579 11.5157 59.2395 11.8585 58.8737 12.0122C58.8265 12.03 58.7734 12.0477 58.7144 12.0595C58.3367 12.3965 57.6109 13.2596 57.5519 14.0872C57.5342 14.3887 57.5755 14.8498 58.1951 15.3404C60.6204 17.2676 65.5535 18.9642 66.4092 19.2243C66.7101 19.2598 66.9993 19.443 67.1232 19.7091C67.4123 20.3239 66.958 20.714 66.4328 21.1633C65.6716 21.8195 63.8836 23.3565 63.7242 24.7694C63.4882 26.7911 65.0224 28.937 66.9934 29.3567C67.3474 29.4336 67.6071 29.7232 67.6484 30.0838C67.6897 30.4385 67.4949 30.7873 67.1704 30.9351C62.8214 32.9746 61.7887 38.2891 64.0193 47.1918C64.1078 47.5347 63.9662 47.8953 63.677 48.0904C63.382 48.2855 62.9984 48.2796 62.7152 48.0727L60.9685 46.7958C60.0421 50.0353 60.8033 53.73 63.0043 56.2897C63.2522 56.5735 63.2758 56.9873 63.0633 57.3006C62.8568 57.6139 62.4614 57.7499 62.1074 57.6316C61.1042 57.3006 59.9299 57.4188 58.8914 57.9568C57.8528 58.4947 57.0798 59.3755 56.767 60.3864C56.4484 61.4091 56.6018 62.5914 57.1801 63.6259C57.7643 64.6723 58.7026 65.429 59.747 65.7009C60.1601 65.8073 60.4256 66.2034 60.3666 66.6231C60.3135 67.0369 59.9536 67.3502 59.5405 67.3502C59.5228 67.3502 59.5051 67.3502 59.4874 67.3502C58.3603 67.3502 57.2686 68.0714 56.708 69.0527C61.0157 67.7463 65.2998 66.2566 69.4659 64.6132C69.8317 64.4713 70.2448 64.5954 70.469 64.9265C70.6873 65.2516 70.6519 65.6891 70.3805 65.9728C68.0732 68.3906 69.0056 71.6302 69.991 75.0648C70.3864 76.4481 70.7641 77.7604 70.9234 79.0314C71.4309 83.1104 68.923 86.0543 66.5036 88.8978C65.5712 89.9914 64.6979 91.02 64.0016 92.09C63.5295 92.829 63.1165 93.5975 62.6798 94.4133C62.3434 95.0517 61.9894 95.7079 61.6058 96.3463C61.0157 97.3277 60.1247 99.2016 59.6998 100.1C59.5582 100.39 59.4638 100.603 59.4225 100.68C59.2749 100.963 58.9858 101.129 58.679 101.129L58.6908 101.135Z" fill="#408F95"/>
<path d="M27.7521 5.75174C27.3567 5.75174 27.0027 5.46798 26.9319 5.066C26.8492 4.61081 27.1502 4.17335 27.6046 4.09059L39.672 1.90332C40.1204 1.82056 40.563 2.12205 40.6456 2.57724C40.7282 3.03243 40.4273 3.46988 39.9729 3.55264L27.9055 5.73991C27.8583 5.75174 27.8052 5.75174 27.758 5.75174H27.7521Z" fill="#408F95"/>
<path d="M52.9845 91.8063C52.8134 91.8063 52.6363 91.7531 52.4888 91.6408C52.1171 91.3688 52.0344 90.8427 52.3118 90.4703C57.3984 83.5479 58.1301 81.4611 58.1596 81.3783C58.9503 78.8245 58.8323 75.8924 57.8174 72.6647C57.6757 72.2213 57.9236 71.7543 58.3661 71.6125C58.8087 71.4765 59.2749 71.7189 59.4165 72.1622C60.5377 75.721 60.6498 78.996 59.7588 81.8867C59.6879 82.1114 58.9267 84.3045 53.6631 91.4693C53.4979 91.694 53.2441 91.8122 52.9904 91.8122L52.9845 91.8063Z" fill="#408F95"/>
<path d="M33.8536 128.848C33.8536 128.848 33.8064 128.848 33.7828 128.848C33.3225 128.842 32.9508 128.458 32.9626 127.997C32.9685 127.541 33.3461 127.175 33.8005 127.175C33.8241 127.175 33.8418 127.175 33.8595 127.175C34.1782 127.175 34.7446 127.11 35.2344 126.72C35.913 126.176 36.1491 125.224 35.9897 124.615C35.6888 123.457 34.2785 122.54 32.6203 122.404C32.5849 122.404 32.5436 122.404 32.5023 122.398C32.0479 122.363 31.7057 121.961 31.7352 121.5C31.7706 121.039 32.16 120.696 32.6203 120.725C32.6557 120.725 32.697 120.725 32.7324 120.731C34.2844 120.826 35.5059 120.182 35.7773 119.484C35.9248 119.106 35.8481 118.597 35.5708 118.089C35.0987 117.232 34.1723 116.57 33.0452 116.268C32.8977 116.239 32.7501 116.209 32.6026 116.168C32.1659 116.055 31.9004 115.612 32.0007 115.174C32.101 114.737 32.5318 114.447 32.9685 114.536C33.116 114.566 33.2694 114.595 33.411 114.636C34.3552 114.808 35.1459 114.637 35.7124 114.152C36.2848 113.661 36.5975 112.851 36.5444 112.018C36.1786 111.107 35.441 110.753 34.2903 110.262C33.5645 109.955 32.815 109.635 32.1541 109.068C31.924 108.873 31.8178 108.577 31.8709 108.282C31.924 107.986 32.1305 107.744 32.4079 107.643C32.9095 107.46 33.4641 107.324 34.0011 107.2C35.6121 106.81 36.6506 106.496 36.8926 105.586C36.4205 104.735 35.8245 103.966 35.1223 103.292C34.4437 102.642 33.6766 102.098 32.8386 101.667C32.5023 101.495 32.3194 101.111 32.402 100.738C32.4846 100.366 32.8091 100.094 33.1868 100.082C35.2226 100.005 36.6034 98.628 36.5798 97.4339C36.5562 96.4053 35.4351 95.625 35.3052 95.5422C34.9217 95.288 34.8155 94.7678 35.0751 94.3776C35.3347 93.9934 35.854 93.887 36.2376 94.1471C36.6979 94.4545 38.2144 95.6072 38.2557 97.3984C38.2911 98.9 37.1935 100.52 35.3701 101.3C35.6888 101.548 35.9897 101.808 36.2848 102.086C37.1876 102.949 37.937 103.954 38.5153 105.066C38.5921 105.213 38.6216 105.379 38.6039 105.545C38.3678 107.655 36.4913 108.311 34.904 108.713C34.9217 108.719 34.9335 108.725 34.9512 108.731C36.1668 109.251 37.5476 109.836 38.1613 111.562C38.1849 111.628 38.1967 111.693 38.2085 111.758C38.356 113.188 37.8308 114.56 36.81 115.44C36.5562 115.659 36.2789 115.837 35.9779 115.984C36.4087 116.369 36.7746 116.812 37.0401 117.297C37.5653 118.243 37.6774 119.271 37.3411 120.117C37.0696 120.808 36.5149 121.382 35.7832 121.784C36.692 122.398 37.3529 123.244 37.6066 124.207C37.9548 125.531 37.3942 127.151 36.2789 128.05C35.3996 128.753 34.4142 128.872 33.8595 128.872L33.8536 128.848Z" fill="#408F95"/>
<path d="M31.6704 147.925C31.4344 147.925 31.2042 147.824 31.039 147.635C30.7381 147.286 30.7735 146.754 31.1275 146.453C31.3341 146.275 31.4639 146.015 31.4816 145.737C31.4993 145.489 31.4226 145.253 31.2633 145.075C31.0213 144.803 30.9859 144.413 31.1629 144.1C31.34 143.787 31.7058 143.621 32.054 143.698C32.7326 143.84 33.364 143.296 33.5705 142.717C33.8243 141.995 33.2991 141.729 33.1279 141.641C32.7798 141.463 32.6028 141.067 32.6972 140.689C32.7916 140.311 33.1161 140.051 33.5292 140.056C33.541 140.056 33.5469 140.056 33.5587 140.056C34.3258 140.056 34.3966 139.294 34.3966 139.14C34.4025 138.986 34.3966 138.212 33.6118 138.171C33.1693 138.147 32.827 137.786 32.8211 137.343C32.8152 136.9 33.1515 136.533 33.5941 136.498C34.6327 136.415 34.6386 135.345 34.6386 135.227C34.6386 135.103 34.5855 134.038 33.541 133.997C33.1161 133.979 32.7739 133.654 32.7385 133.229C32.7031 132.809 32.9863 132.425 33.3994 132.336C34.0485 132.2 34.314 131.644 34.3494 131.165C34.3789 130.681 34.1901 130.09 33.5587 129.859C33.122 129.705 32.8978 129.226 33.0512 128.789C33.2047 128.352 33.6826 128.121 34.1193 128.281C35.3467 128.718 36.1138 129.924 36.0194 131.278C35.9722 131.934 35.7303 132.531 35.3467 132.998C35.9604 133.554 36.2908 134.375 36.3085 135.179C36.3262 135.966 36.0489 136.776 35.4824 137.355C35.9014 137.869 36.0961 138.537 36.0725 139.199C36.043 139.986 35.6889 140.772 35.0457 141.251C35.3526 141.836 35.3939 142.539 35.1461 143.26C34.8392 144.135 34.078 144.939 33.122 145.253C33.1515 145.442 33.1633 145.637 33.1456 145.838C33.0984 146.559 32.7621 147.239 32.2192 147.706C32.0599 147.842 31.8651 147.907 31.6704 147.907V147.925Z" fill="#408F95"/>
<path d="M42.5635 135.386C42.4219 135.386 42.2743 135.351 42.1445 135.274C41.6606 134.99 40.4923 134.163 40.0969 132.632C39.9848 132.194 39.6425 130.852 40.4451 129.865C41.0292 129.144 41.8849 129.025 42.534 128.984C42.2271 128.612 41.82 128.121 41.342 127.406C40.5277 126.188 40.2739 125.484 40.3801 124.734C40.51 123.823 41.0942 123.25 41.3184 123.031C42.0029 122.357 42.7818 122.097 43.4073 121.961C43.0061 121.636 42.5104 121.187 42.0678 120.56C41.5721 119.869 41.2181 119.082 41.0115 118.213C40.9643 118.012 40.9938 117.799 41.0942 117.616C41.4069 117.049 42.3156 115.671 44.0977 115.074C44.2335 115.027 44.3692 114.991 44.5049 114.956C44.2334 114.678 43.9738 114.383 43.7319 114.069C43.0946 113.236 42.593 112.314 42.2448 111.32C42.1917 111.161 42.1858 110.989 42.2271 110.83C42.3451 110.392 42.7346 109.293 43.8381 108.631C44.3161 108.347 44.853 108.187 45.4018 108.152C44.0269 105.793 43.7378 103.777 44.7114 102.76C45.154 102.299 46.0745 101.844 47.951 102.317C48.3995 102.429 48.6709 102.885 48.5588 103.334C48.4467 103.783 47.9923 104.055 47.5439 103.943C46.2516 103.618 45.9211 103.919 45.9211 103.919C45.5789 104.28 45.8385 106.189 47.9864 108.985C48.2343 109.31 48.2166 109.766 47.9392 110.067C47.6619 110.369 47.2075 110.422 46.8653 110.197C46.1749 109.748 45.3251 109.695 44.6996 110.073C44.263 110.333 44.0328 110.741 43.9207 111.031C44.2039 111.758 44.5816 112.432 45.0596 113.047C45.6851 113.856 46.4463 114.53 47.3255 115.057C47.6796 115.269 47.8271 115.713 47.6737 116.097C47.5144 116.481 47.1013 116.694 46.7 116.594C46.2162 116.475 45.4667 116.387 44.6347 116.67C43.6434 117.001 43.0415 117.699 42.7287 118.154C42.888 118.686 43.1241 119.165 43.4309 119.597C43.8617 120.2 44.3515 120.584 44.7468 120.897C45.2425 121.287 45.8562 121.766 45.6615 122.535C45.4726 123.297 44.7173 123.433 44.1626 123.534C43.6138 123.634 42.9884 123.746 42.4927 124.237C42.3629 124.367 42.0855 124.639 42.0383 124.988C42.0206 125.124 41.9852 125.372 42.7287 126.489C43.2067 127.205 43.6139 127.689 43.9089 128.038C44.381 128.6 44.8235 129.132 44.5462 129.824C44.2452 130.592 43.4368 130.633 42.8467 130.663C42.416 130.687 41.9321 130.71 41.7433 130.941C41.6193 131.095 41.5131 131.443 41.7197 132.235C41.9557 133.152 42.6874 133.666 42.9884 133.843C43.3896 134.08 43.5194 134.588 43.2893 134.99C43.1359 135.256 42.8526 135.404 42.5694 135.404L42.5635 135.386Z" fill="#408F95"/>
<path d="M48.5292 103.559C48.3699 103.559 48.2047 103.511 48.0631 103.417C47.4376 102.997 45.8797 101.779 44.971 99.651C44.5815 98.7347 44.3632 97.7534 44.3278 96.8076C44.3101 96.3465 44.6759 95.9563 45.1362 95.9445C45.5847 95.9149 45.9859 96.2933 45.9977 96.7544C46.0213 97.4933 46.1984 98.2677 46.5052 98.9949C47.2369 100.715 48.4879 101.691 48.9895 102.027C49.3731 102.288 49.4734 102.808 49.2137 103.192C49.0544 103.434 48.7889 103.564 48.5174 103.564L48.5292 103.559Z" fill="#408F95"/>
<path d="M25.3859 161.639C24.8607 161.639 24.2883 161.444 23.6628 161.06C23.2675 160.817 23.1495 160.303 23.3914 159.907C23.6333 159.511 24.1526 159.387 24.5421 159.635C25.0437 159.943 25.3623 159.996 25.4921 159.948C25.5452 159.925 25.5866 159.86 25.7223 159.6C25.9111 159.227 26.1884 158.666 26.873 158.234C27.8761 157.596 29.074 157.655 29.2097 157.667C29.4576 157.684 29.6582 157.72 29.8116 157.755C29.8116 157.72 29.8175 157.684 29.8234 157.649C29.8706 157.235 29.9296 156.668 30.3191 156.171C30.7263 155.645 31.3577 155.343 32.231 155.272C32.0894 154.463 32.2546 153.617 32.7208 152.92C33.1161 152.328 33.6944 151.897 34.3553 151.666C33.9069 150.49 34.078 149.178 34.91 148.391C35.2759 148.043 35.7126 147.859 36.1197 147.771C35.9073 146.872 36.043 145.903 36.5387 145.045C36.9931 144.259 37.6717 143.686 38.4565 143.396C38.0788 142.781 37.7956 142.013 37.9608 141.179C38.0965 140.488 38.5863 139.837 39.2118 139.489C38.9345 138.767 38.8872 137.958 39.1115 137.165C39.4891 135.812 40.569 134.807 41.9203 134.552C42.3747 134.47 42.8114 134.765 42.8999 135.22C42.9884 135.676 42.6874 136.113 42.2331 136.202C41.5014 136.338 40.9349 136.87 40.7283 137.621C40.5218 138.365 40.7283 139.11 41.2771 139.613C41.6017 139.908 41.6489 140.399 41.3774 140.748C41.1119 141.097 40.6221 141.179 40.2563 140.937C40.2268 140.913 40.1855 140.89 40.0792 140.937C39.8727 141.026 39.6485 141.292 39.6072 141.51C39.4832 142.155 40.1382 142.929 40.6457 143.455C40.8877 143.709 40.9526 144.088 40.7933 144.407C40.6398 144.726 40.2976 144.909 39.9494 144.868C38.9994 144.768 38.3208 145.329 37.9903 145.891C37.6599 146.458 37.5182 147.339 38.0847 148.114C38.2913 148.397 38.3031 148.776 38.1142 149.071C37.9254 149.367 37.5713 149.509 37.2291 149.432C37.2232 149.432 36.4443 149.26 36.0666 149.621C35.6889 149.982 35.6122 150.981 36.3617 151.791C36.6036 152.051 36.6567 152.429 36.4915 152.742C36.3321 153.056 35.9899 153.239 35.6417 153.192C35.0457 153.115 34.4439 153.381 34.1193 153.865C33.7593 154.403 33.777 155.131 34.1665 155.668C34.3612 155.94 34.373 156.295 34.2078 156.585C34.0367 156.869 33.718 157.028 33.3876 156.993C32.3313 156.869 31.8002 157.022 31.6527 157.211C31.5524 157.336 31.5288 157.596 31.4993 157.85C31.4462 158.317 31.3695 159.02 30.6909 159.381C30.2365 159.617 29.847 159.511 29.5874 159.44C29.4458 159.405 29.3159 159.369 29.1153 159.357C28.9029 159.34 28.242 159.375 27.7758 159.671C27.4867 159.854 27.3745 160.073 27.227 160.368C27.0382 160.747 26.7785 161.267 26.1176 161.527C25.8934 161.616 25.6515 161.663 25.3977 161.663L25.3859 161.639Z" fill="#408F95"/>
<path d="M22.0223 154.752C21.6978 154.752 21.3909 154.563 21.2552 154.25C21.0723 153.824 21.267 153.334 21.6859 153.145C23.3795 152.406 24.6305 150.833 25.0318 148.93C25.3327 147.517 25.0849 146.181 24.3119 145.069C23.468 143.857 22.0518 143.024 20.4232 142.782C18.5171 142.504 16.5934 143.036 15.1595 144.254C13.8377 145.371 13.0942 146.937 13.0529 148.664C13.0411 149.119 12.6693 149.485 12.215 149.485H12.1973C11.737 149.473 11.3711 149.089 11.377 148.628C11.4242 146.417 12.3802 144.407 14.0737 142.977C15.8794 141.452 18.2811 140.772 20.6651 141.126C22.7481 141.434 24.5774 142.521 25.6868 144.112C26.7135 145.59 27.0617 147.428 26.6663 149.278C26.1471 151.708 24.5361 153.73 22.3528 154.682C22.2465 154.729 22.1285 154.752 22.0223 154.752Z" fill="#408F95"/>
<path d="M20.7299 158.152C18.2221 158.152 15.6433 157.129 13.8082 155.326C11.8136 153.369 10.9816 150.845 11.4773 148.232C11.5658 147.777 12.0025 147.481 12.4568 147.564C12.9112 147.653 13.2063 148.09 13.1236 148.545C12.7342 150.591 13.3951 152.571 14.9824 154.126C16.8766 155.988 19.7091 156.845 22.1993 156.325C22.6536 156.231 23.0962 156.52 23.1906 156.969C23.285 157.425 22.9959 157.868 22.5474 157.963C21.9573 158.087 21.3495 158.146 20.7358 158.146L20.7299 158.152Z" fill="#408F95"/>
<path d="M19.9982 162C17.0182 162 14.0382 160.865 11.6484 158.713C8.25533 155.657 6.54406 151.182 7.18726 147.032C7.93668 142.179 12.0437 138.035 17.1834 136.953C22.3763 135.853 27.6517 138.419 30.018 143.178C32.5023 148.179 30.2776 154.41 25.0612 157.07C24.4829 157.365 23.881 157.608 23.2791 157.785C22.8365 157.915 22.3704 157.661 22.2405 157.218C22.1107 156.774 22.3645 156.307 22.807 156.177C23.3145 156.029 23.8161 155.828 24.3059 155.574C28.708 153.328 30.6022 148.102 28.525 143.923C26.5305 139.909 21.9101 137.668 17.5316 138.59C13.0587 139.536 9.48862 143.113 8.84542 147.286C8.29074 150.886 9.79547 154.788 12.7754 157.466C15.8203 160.203 19.951 161.048 23.5505 159.671C23.9813 159.505 24.4652 159.724 24.6304 160.156C24.7956 160.587 24.5773 161.072 24.1465 161.237C22.807 161.752 21.4085 162 20.0041 162H19.9982Z" fill="#408F95"/>
<path d="M29.9354 150.75C29.5754 150.75 29.2391 150.514 29.1328 150.147C29.003 149.704 29.2568 149.237 29.6993 149.107C30.1065 148.989 30.254 148.859 30.2717 148.817C30.2835 148.758 30.2127 148.551 30.1773 148.433C30.0534 148.049 29.8646 147.475 30.2363 146.914C30.431 146.624 30.8264 146.275 31.6348 146.252C32.101 146.222 32.4846 146.595 32.5023 147.062C32.52 147.499 32.1954 147.871 31.7706 147.925C31.8827 148.279 32.0597 148.811 31.8473 149.397C31.6289 150.011 31.0624 150.461 30.1714 150.721C30.0947 150.744 30.0121 150.756 29.9354 150.756V150.75Z" fill="#408F95"/>
<path d="M17.8443 155.415C17.6791 155.415 17.508 155.415 17.3368 155.415C16.6995 155.403 16.0445 155.367 15.4485 155.308C14.8525 155.249 14.2447 155.16 13.6488 155.054C13.1944 154.971 12.8934 154.534 12.976 154.079C13.0587 153.623 13.4953 153.322 13.9497 153.405C14.5044 153.505 15.065 153.588 15.6138 153.641C16.1685 153.694 16.7703 153.73 17.3663 153.742C17.9564 153.753 18.4993 153.742 18.8888 153.718C19.8978 153.653 20.96 153.399 22.0517 152.979C22.4824 152.813 22.9663 153.026 23.1316 153.458C23.2968 153.889 23.0843 154.374 22.6536 154.54C21.4026 155.024 20.1693 155.314 18.995 155.391C18.6763 155.415 18.2751 155.42 17.8384 155.42L17.8443 155.415Z" fill="#408F95"/>
<path d="M30.9444 4.61683C30.614 4.61683 30.3012 4.42174 30.1714 4.09661C29.9472 3.55275 29.8409 2.9675 29.8468 2.37635C28.2949 3.13894 26.7075 3.85424 25.1143 4.50451C24.6894 4.68185 24.1996 4.47495 24.0226 4.04341C23.8456 3.61186 24.0521 3.12712 24.4829 2.94977C26.5718 2.0926 28.649 1.13493 30.6435 0.0885815C30.9621 -0.0769417 31.3516 -0.0237378 31.6112 0.230459C31.8709 0.478743 31.9417 0.868905 31.7823 1.19404C31.4519 1.89751 31.4224 2.74287 31.7174 3.45816C31.8945 3.88379 31.6879 4.37445 31.2631 4.5518C31.1568 4.59318 31.0506 4.61683 30.9444 4.61683Z" fill="#408F95"/>
<path d="M51.5859 5.93506C51.3086 5.93506 51.0431 5.79909 50.8837 5.55081C50.6359 5.16065 50.748 4.64043 51.1375 4.39214C51.1847 4.36259 51.2319 4.33303 51.285 4.30347C51.0726 4.16159 50.8719 3.99607 50.6831 3.8069C50.2169 3.33989 49.9219 2.76647 49.8098 2.18123C46.9301 3.07978 43.9265 3.51132 40.9112 3.49359C40.4509 3.49359 40.0791 3.10934 40.085 2.64824C40.085 2.18714 40.4627 1.82062 40.923 1.82062H40.9289C44.1803 1.85609 47.3963 1.30632 50.4589 0.200858C50.7775 0.0826268 51.1375 0.177212 51.3676 0.431408C51.5918 0.685605 51.645 1.05212 51.4915 1.35952C51.2968 1.74968 51.5387 2.30537 51.8633 2.6305C52.3236 3.0916 53.0199 3.36353 53.6985 3.62955C54.0466 3.76552 54.265 4.12021 54.2237 4.49855C54.1824 4.87098 53.8991 5.17838 53.5274 5.23749C53.0022 5.32617 52.4829 5.52125 52.0344 5.81091C51.8928 5.89959 51.7394 5.94097 51.5859 5.94097V5.93506Z" fill="#408F95"/>
<path d="M36.1373 95.2942C35.9425 95.2942 35.7419 95.2647 35.5472 95.2056C35.1046 95.0696 34.8568 94.6026 34.9866 94.1592C35.1223 93.7158 35.5885 93.4676 36.0311 93.5976C36.2553 93.6626 36.5857 93.4794 36.6979 93.2252C36.8395 92.9178 36.7628 92.4685 36.5208 92.1375C36.2671 91.7887 35.8304 91.5168 35.2934 91.3749C34.845 91.2567 34.5794 90.7955 34.6974 90.3522C34.8155 89.9029 35.2757 89.6369 35.7183 89.7551C36.6212 89.9916 37.3883 90.4881 37.8662 91.1384C38.474 91.9601 38.6098 93.0478 38.2203 93.9109C37.8426 94.7504 36.9929 95.2824 36.1314 95.2824L36.1373 95.2942Z" fill="#408F95"/>
</g>
</g>
<defs>
<clipPath id="clip0_0_1">
<rect width="1440" height="7491" fill="white" transform="translate(-1189 -4792)"/>
</clipPath>
<clipPath id="clip1_0_1">
<rect width="71" height="162" fill="white"/>
</clipPath>
</defs>
</svg>
