<svg width="133" height="50" viewBox="0 0 133 50" fill="none" xmlns="http://www.w3.org/2000/svg">
<path d="M3.93319 30.0486L3.89137 30.0901C3.93319 30.0486 3.93319 30.0486 3.93319 30.0072V29.8C4.39319 27.3554 5.27135 24.9522 6.14952 22.5904C7.06951 20.1043 7.94767 17.6597 9.11856 15.2979C10.2058 13.0605 11.4603 10.8645 12.8821 8.83417C14.1367 6.96962 15.6421 4.93933 17.5657 3.6963C18.1511 3.53056 18.7366 2.90905 19.4893 3.03335C20.242 3.15765 20.242 3.94491 20.0748 4.69073C20.2838 4.11065 20.4093 3.48913 19.9075 3.07479C19.2384 2.57757 17.9421 3.36483 17.3984 3.73774C17.1475 3.8206 16.8966 3.98634 16.6875 4.15208C16.813 4.02778 16.9803 3.90347 17.1893 3.77917L16.9803 3.86204L17.5657 3.53056C18.2348 3.15765 19.7402 2.32896 20.242 3.40626C20.6184 4.27638 20.0329 5.72659 19.7402 6.55528C19.1966 7.96405 18.5275 9.28995 17.8166 10.6159C17.9421 10.3258 18.4439 9.20708 18.4439 9.20708C18.1511 9.16565 16.813 12.2318 16.5621 12.3147H16.6039C16.4366 12.439 16.3112 12.5633 16.3112 12.6047C16.2275 13.1019 16.813 12.9776 17.1475 12.9362C18.5693 12.7704 20.4093 11.5688 21.3293 10.533C22.3329 9.41426 22.7093 7.71544 22.7093 6.2238V6.18237C22.6674 3.36483 20.702 -0.198539 17.3148 0.00863334C15.433 0.0915036 13.6767 1.91462 12.464 3.15765C11.5858 4.15208 10.7494 5.22938 9.99673 6.30667C9.66219 6.80388 9.32765 7.25966 9.03493 7.75688C8.70039 8.21266 8.03131 8.91704 7.86404 9.45569C7.86404 9.45569 8.07313 9.20709 8.2404 9.04135C7.7804 9.74573 7.36223 10.4916 6.94405 11.1959C6.90224 11.1545 7.19496 10.5744 7.19496 10.5744C6.8186 10.4916 5.10408 13.8892 4.895 14.2621C4.14228 15.6294 3.4732 16.9968 3.01321 18.447C2.5114 20.0629 1.84232 21.596 1.34051 23.1705C1.0896 23.9578 0.838697 24.7036 0.671426 25.4908C0.587791 25.8637 0.504156 26.1952 0.462339 26.5681C0.462339 26.6096 0.378704 27.2725 0.462339 27.1896C0.378704 27.4797 0.378704 27.8526 0.336886 28.1426C0.336886 28.1426 0.336886 27.4382 0.378704 27.3554C0.211434 27.5625 0.336886 28.3498 0.295069 28.4327C0.0859812 30.0072 -0.248559 31.6646 0.295069 33.1976C1.00597 35.3108 2.7623 37.051 4.68591 38.1698C5.68953 38.7913 7.02769 39.4957 8.28221 39.4128C9.74583 39.3299 11.1676 38.1283 12.2549 37.2582C15.433 34.6064 18.3184 30.8773 18.862 26.651C18.9039 26.361 19.113 24.9107 18.6111 24.8693C18.1511 24.8279 17.8166 25.8223 17.6493 26.0709C16.3948 28.1012 14.9312 30.0072 13.3003 31.7474C11.6276 33.5705 9.53674 35.518 6.98587 36.098C6.65133 36.1809 6.27497 36.2224 5.89862 36.2224C5.39681 36.1809 4.93681 36.0566 4.56045 35.6837C4.35137 35.4765 4.14228 34.7721 3.89137 34.6478C3.89137 34.4407 3.84956 34.2335 3.80774 34.1092L3.68229 33.8606C3.64047 32.6175 3.68229 31.4574 3.89137 30.1729V30.1315C3.89137 30.0901 3.93319 30.09 3.93319 30.0486ZM11.2931 9.78717C9.66219 12.439 8.28221 15.1736 6.90224 17.9912C6.1077 19.6486 5.31317 21.3474 4.68591 23.1291C5.56407 20.353 6.60951 17.7011 7.86404 15.0493C9.36947 11.8589 11.3767 8.7513 13.7603 6.18237C12.7985 7.34253 11.9622 8.66844 11.2931 9.78717ZM15.6003 5.22938C15.0148 5.80946 14.4712 6.47241 13.9694 7.09393C14.7639 6.05806 15.6003 5.02221 16.6457 4.19351C16.2694 4.52499 15.893 4.93933 15.6003 5.22938ZM19.8657 5.56085C19.9493 5.31224 20.0329 5.0222 20.0748 4.69073C19.9911 5.06364 19.8238 5.43655 19.8238 5.72659C19.8657 5.64372 19.8657 5.60229 19.8657 5.56085Z" fill="white"/>
<path d="M40.1063 23.0462C40.1063 23.0462 40.1481 23.0876 40.1063 23.0048C39.8972 22.7147 39.6045 22.9219 39.3118 23.0048C38.0991 23.2534 36.8446 23.5434 35.59 23.7506C36.05 22.2589 36.51 20.6844 36.6773 19.1514C36.7609 18.5713 36.8027 17.9498 36.6773 17.3697C36.5937 16.9968 36.4682 16.6239 36.2591 16.2924C36.2591 16.2924 35.7573 15.6709 35.8828 16.0023L35.8409 15.9609L35.6737 15.6294L35.8409 15.7952C35.8828 15.5466 35.1719 15.0908 35.1719 15.0908C34.1264 14.0549 32.7046 13.2677 31.2828 14.0549C30.4047 14.5521 29.6938 15.3808 29.1083 16.2095C28.8992 16.4995 28.6901 16.831 28.5229 17.1625C28.3556 17.494 28.1047 18.5713 27.8538 18.737C27.6447 18.9027 27.0174 18.9442 26.7247 19.1099C26.3065 19.2757 25.9302 19.4828 25.5956 19.7314C24.8011 20.2286 24.1738 20.933 23.5884 21.6374C22.5848 22.9633 22.083 24.455 21.3721 25.7809C20.0339 28.3084 21.4975 31.6231 23.9648 32.8247C24.7593 33.1976 25.6793 33.3634 26.5156 33.2805C27.3938 33.1562 28.2301 32.7004 28.8992 32.2032C29.5265 31.7474 30.9065 30.9187 31.1574 30.2144C31.1574 30.1729 31.0737 30.2144 30.9483 30.3387L32.161 28.9299C32.2028 28.9713 31.8683 29.3857 31.8683 29.3857C32.161 29.51 33.6664 27.3139 33.8337 27.1482C34.1264 26.651 34.4191 26.1123 34.7537 25.6151C35.0464 25.2422 34.9628 25.2837 35.3809 25.1179C35.3391 25.1594 35.8828 24.9936 35.9664 24.9936C36.4264 24.9107 41.319 24.5793 40.1063 23.0462ZM25.6375 31.416H25.5956C22.1248 31.9132 26.1393 24.6207 26.2229 24.2064L25.972 24.5793C26.5993 23.3362 27.1847 22.3418 27.4774 22.0103C27.9374 24.0821 30.1956 24.8693 32.0355 25.1179C30.8228 27.5211 28.5647 30.8773 25.6375 31.416ZM33.8755 19.9386C33.5828 21.0988 33.3319 22.6318 32.7046 23.6677C32.4955 24.0821 32.621 23.9578 32.2028 24.0406C31.9519 24.1235 31.4083 24.0406 31.1574 23.9992C30.6974 23.9578 30.1538 23.8749 29.8192 23.5848C29.2338 23.0876 29.3174 22.3004 29.401 21.596C29.4847 20.8916 29.6938 20.2287 29.9447 19.5657C30.0701 19.3171 30.8647 17.9912 30.7392 17.7426C30.6974 17.6183 30.2374 18.3641 30.1956 18.4055C30.4465 17.9498 30.6974 17.7011 30.9065 17.4111C30.8647 17.4111 30.9065 17.3697 30.9483 17.2868V17.3282L30.9901 17.2454C30.9901 17.2454 30.9901 17.2039 31.0319 17.2039C31.6592 16.3752 33.2064 14.5107 34.0428 15.7952C34.67 16.8725 34.0846 18.9027 33.8755 19.9386ZM30.9901 17.2454L31.0319 17.2039C31.0319 17.2454 30.9901 17.2454 30.9901 17.2454Z" fill="white"/>
<path d="M61.9194 23.2534V23.2119C61.6685 21.8446 59.7867 24.1235 59.5358 24.3307C58.3231 25.6566 57.194 27.1068 56.1067 28.557C55.0195 30.0486 53.9741 31.5403 52.845 33.0319C52.3013 33.7777 51.7577 34.4821 51.1305 35.1451C50.9214 35.3937 50.4196 36.098 50.0432 36.098C48.5796 36.098 49.7087 30.2558 49.8759 29.3442C50.1268 27.7283 50.2523 25.5737 51.2977 24.2892C51.5486 23.9578 54.3922 20.353 54.3922 20.353C54.3086 20.3115 53.9741 20.7259 53.765 20.9745L55.5631 18.5713L55.6886 18.4055H55.7304H55.6886L56.0231 17.9498C56.0649 17.9912 56.0231 18.0741 55.9813 18.1569L56.3577 17.7426L57.4449 16.3338C58.2394 15.2151 58.9922 14.0135 59.7031 12.8533C60.8321 10.9473 62.3794 8.21266 61.543 5.89233C60.9158 4.19351 58.6158 3.86204 57.0685 4.44212C55.9395 4.85647 54.9777 5.72659 54.1831 6.63815C53.765 7.1768 53.3468 7.75688 52.9704 8.37839C52.845 8.54413 52.3014 9.87004 52.1759 10.0358H52.2177C51.9668 10.4916 51.7159 10.9473 51.5486 11.4031C51.6323 11.0716 51.8414 10.4087 52.0086 10.2844C51.6741 10.533 51.3814 11.7346 51.2977 11.8589C49.7087 15.2979 48.3287 18.7784 47.3251 22.4247C46.196 21.1402 44.3978 18.9442 42.4324 19.7314C40.8015 20.3944 39.5888 22.0932 38.7525 23.5848C37.9998 24.9107 37.7907 26.2781 37.247 27.5626C36.2852 29.7586 35.8253 34.2749 39.087 34.9379C40.0906 35.1451 41.0106 34.5235 41.8052 33.9849C43.227 32.949 44.5651 31.7474 45.8196 30.5044C45.6105 32.7004 45.1506 36.0152 46.9487 37.7554C49.165 39.9929 51.3814 36.9682 52.7195 35.3108C54.434 33.1562 55.7722 30.753 57.4867 28.6813C58.3231 27.6869 59.1594 26.6924 60.0376 25.7809C60.7067 25.1179 62.0448 24.2892 61.9194 23.2534ZM46.5305 25.988C46.4887 26.1123 46.4887 26.1952 46.4887 26.1952C46.3214 27.1896 46.3214 28.0598 45.6105 28.7642C44.9833 29.4271 44.3142 30.0486 43.6451 30.6701C43.0179 31.2502 41.5124 32.949 40.5506 32.8662C39.3797 32.7419 40.2579 30.09 40.8434 28.4741C40.2161 30.1315 39.2125 32.8247 40.5924 32.9076C40.9688 32.949 41.5961 32.6176 42.1397 32.1618C41.6379 32.6176 40.8015 33.2391 40.2997 32.9905C39.3379 32.5761 40.1743 30.2144 40.3415 29.5514C40.8852 27.6454 41.6797 25.8223 42.5997 24.0821C43.0597 23.2119 43.7288 21.8032 44.6069 21.7203L44.3978 21.8446C44.4397 21.8032 44.4815 21.8032 44.5233 21.8032C44.816 21.7203 45.1087 21.9275 45.3178 22.0932C45.8615 22.4661 46.196 23.1705 46.5724 23.7091C46.9905 24.3721 46.6978 25.0765 46.5305 25.8223V25.988ZM53.2632 16.4167C53.2632 16.3752 53.2632 16.2924 53.305 16.2509V16.2095C53.3468 16.0852 53.3886 16.0438 53.3886 16.0438V16.0023C54.3504 13.3505 55.3958 10.6987 56.9013 8.29553C57.2776 7.67401 58.3649 5.76802 59.3267 6.30667C59.7031 6.51384 59.7867 7.05249 59.7867 7.4254C59.954 9.91147 57.9467 12.8533 56.6922 14.8422C55.2286 17.1625 53.5977 19.4414 51.8832 21.5546L52.8032 20.6016L53.6395 19.5657L51.5068 22.3004L51.2141 22.6733L51.0468 22.839C51.0886 22.5904 51.2977 22.3418 51.5068 22.0518C51.4232 22.1346 51.3396 22.2175 51.2977 22.3004C51.8414 20.5187 52.4268 18.737 53.0541 16.9553C53.0122 16.9968 53.0541 16.9139 53.0959 16.7482L53.2213 16.541C53.2213 16.4995 53.2213 16.4581 53.2632 16.4167ZM49.7505 19.8143C49.6668 20.0215 49.4159 20.9745 49.2905 21.0988C49.2905 21.1402 49.2487 21.1816 49.2069 21.1816C49.5414 20.7673 49.3323 20.2286 49.4996 19.7314C49.5832 19.4828 50.0014 19.0271 50.085 18.6956C50.085 19.0271 49.8759 19.6071 49.7505 19.8143ZM43.1015 31.2917C44.1469 30.3801 45.1506 29.4271 46.1124 28.4327C46.0287 28.9713 44.7324 29.8829 44.2724 30.2972C43.7288 30.8359 43.1015 31.3745 42.4742 31.8717H42.4324L43.1015 31.2917ZM50.5032 16.0438C50.3359 16.541 50.1268 16.9968 49.8759 17.4525C50.085 16.831 50.2105 16.2095 50.5032 15.6294C50.7541 15.1736 51.0468 14.5936 51.2559 14.0549C51.0468 14.7179 50.7123 15.4223 50.5032 16.0438ZM53.2213 16.541L53.0541 16.9553C53.0541 16.9139 53.0959 16.831 53.0959 16.7482L53.2213 16.541ZM44.1888 22.0103C44.0215 22.1346 43.896 22.3004 43.8542 22.3004C43.9379 22.3004 44.0633 22.1346 44.1888 22.0103ZM45.3596 21.9275C45.4433 21.9689 45.5269 22.0103 45.6105 22.0932L45.3596 21.9275ZM53.6395 21.1816C53.6395 21.1402 53.6813 21.0988 53.7231 21.0573C53.6813 21.1402 53.6395 21.1816 53.6395 21.1816ZM53.7231 21.0573L53.765 20.9745C53.765 21.0159 53.7231 21.0573 53.7231 21.0573Z" fill="white"/>
<path d="M74.8652 23.1291C74.8652 23.1705 74.8652 23.1705 74.8233 23.1291V23.0876C74.1543 21.9689 73.2761 23.502 72.8997 24.0406C72.1889 24.9936 71.5198 25.9052 70.7671 26.7753C70.1398 27.5211 69.4707 28.2669 68.9689 29.0542C68.9689 29.1371 68.8853 29.3442 68.8853 29.3442C68.718 29.5928 68.4671 29.8 68.258 30.0486C67.8816 30.4215 67.5053 30.8359 67.0871 31.2088C66.4598 31.7889 62.9472 35.0622 62.4872 32.949C62.2363 31.9132 62.5708 30.6287 62.7799 29.6343C62.9054 29.0956 63.0308 28.5984 63.1144 28.0598C63.1981 27.6454 63.0726 27.2311 63.2817 26.8167C63.4072 26.5681 63.449 26.6096 63.7417 26.5267L64.4526 26.2781C64.9126 26.1123 65.3726 25.9466 65.7908 25.698C66.418 25.3251 67.0035 24.8693 67.5471 24.4135C68.8434 23.3362 70.2234 22.0518 70.7671 20.4358C71.0598 19.5243 71.1016 18.5298 70.5162 17.7426C69.9725 17.0382 69.0525 16.6653 68.2162 16.4995C65.958 16.0852 64.2435 17.3697 62.9472 19.0685C61.3581 21.0159 60.229 23.4191 59.6854 25.8637C59.3927 27.0653 59.2254 28.2669 59.0163 29.51C58.8072 30.753 58.6818 31.9132 59.3509 33.0733C59.3091 32.659 59.2254 32.2861 59.2254 31.9132C59.2254 31.706 59.3091 31.4988 59.3091 31.3331C59.3091 31.2502 59.2254 31.0016 59.2254 30.8773C59.2254 30.5044 59.3091 30.2144 59.3927 29.8414C59.4345 29.4685 59.3927 29.0956 59.4345 28.7227C59.4763 28.3084 59.6436 27.9769 59.8109 27.604C59.9363 27.2725 59.9781 26.9825 60.1036 26.651C60.229 26.361 60.3127 26.0295 60.4381 25.698C60.4799 25.4908 60.689 25.2422 60.8145 24.9936C60.689 25.3665 60.4381 25.698 60.3545 26.0295C60.229 26.5267 60.3127 27.0653 60.2709 27.5626C60.1872 28.1012 60.02 28.6398 59.9363 29.2199C59.8527 29.7586 59.6018 30.2558 59.5181 30.7944C59.4345 31.2917 59.2672 31.6646 59.3091 32.1618C59.3091 32.4518 59.3509 32.7419 59.3927 32.9905C59.4345 33.3219 59.6436 33.5291 59.8527 33.7777C60.5636 34.6064 61.5254 35.2694 62.6126 35.5594C63.3653 35.7666 64.0344 35.7251 64.7453 35.3522C65.7489 34.8136 66.6271 33.9849 67.3798 33.1976C68.0907 32.4104 68.6344 31.5403 69.2616 30.7116C69.8471 29.9657 70.558 29.2614 71.1434 28.5155L73.4016 25.6151L74.6979 23.9163C74.907 23.6677 75.0324 23.4605 74.8652 23.1291ZM64.4944 23.5848C64.5362 23.502 64.5362 23.4605 64.5362 23.4605C65.1635 22.1346 65.6235 20.7259 66.5017 19.4414L67.2544 18.447C67.4217 18.2398 67.7144 17.8669 68.0071 17.784C68.6344 17.6597 68.8016 18.737 68.7598 19.1514L68.5925 20.0215C68.5507 20.2701 68.6344 20.4358 68.5925 20.643C68.5089 20.8916 68.2998 21.0159 68.1744 21.2231L67.4635 22.1346C66.5017 23.2534 65.289 24.2064 63.9508 24.9107C64.1599 24.455 64.2853 23.9992 64.4944 23.5848Z" fill="white"/>
<path d="M97.5113 10.9888C97.344 9.66286 95.295 8.66844 94.1659 9.45569C93.2459 10.0772 92.4096 11.776 91.7405 12.7704L87.6424 18.9027C87.0151 19.8557 86.3878 20.8087 85.7188 21.7203C85.5515 22.0103 83.9624 24.455 83.9624 24.455C84.1297 24.4964 84.5061 23.9163 84.5897 23.8334C83.4606 25.408 81.997 27.0653 80.617 28.6398C80.157 29.2199 77.3971 32.8247 76.3935 32.3689C76.0589 32.2032 75.9753 31.6646 75.9335 31.3745C75.5989 29.1785 76.4353 26.9825 76.6862 24.8693L76.5189 25.2837L76.7698 24.2478C76.7698 24.3721 76.728 24.4964 76.728 24.6207L76.7698 24.3721L76.6444 25.6151C77.2298 23.1291 78.0662 20.7259 79.028 18.4055C79.2789 17.8255 81.7043 11.8175 82.2061 11.2788C82.1225 11.3202 81.997 11.486 81.8716 11.6517C82.6661 10.2015 83.5024 8.83417 84.4642 7.50827C84.2552 7.83975 83.8788 8.46126 83.8788 8.46126C84.0461 8.5027 85.7188 6.2238 85.7188 5.9752C85.7188 5.93376 85.5933 6.01663 85.4679 6.0995C85.886 5.56085 86.1788 5.27081 85.8442 4.35925C85.3424 3.32339 83.8788 2.03892 82.6661 2.66044C82.4152 2.82618 82.2479 3.03335 82.0807 3.24052C81.2025 4.35925 80.4916 5.80946 79.9061 7.05249C79.6971 7.54971 79.5298 7.63257 79.1952 8.00548C78.6516 8.627 78.3589 9.45569 77.9825 10.1601C77.2298 11.6517 76.6444 13.2262 75.9753 14.7593C75.3062 16.1681 74.7626 17.6183 74.3026 19.1099C74.0935 19.69 73.9262 20.2701 73.759 20.8502C73.5917 21.4303 73.0062 22.5075 73.0899 23.1291L73.3408 22.5904C73.1317 23.2948 72.9644 24.0406 72.7972 24.7864C72.7553 24.7864 72.839 24.2478 72.839 24.2478C72.6717 24.2478 72.2953 26.0709 72.2117 26.3195C72.0444 27.1896 71.919 28.0598 71.8354 28.9713C71.7935 29.9243 71.8354 30.7944 72.2953 31.6646C73.1735 33.1976 74.7626 34.6893 76.4771 35.2279C76.7698 35.3108 77.1044 35.3937 77.3971 35.3522C77.6898 35.3108 77.9825 35.1865 78.1916 34.9793C78.3589 34.8964 79.028 34.1921 78.568 34.5235L79.3625 33.7777C79.3625 33.7777 78.9862 34.2335 78.8607 34.3164C79.0698 34.2335 79.5298 33.612 79.5298 33.612C80.9098 32.1203 82.2897 30.6701 83.5443 29.0542C84.8406 27.3139 86.0115 25.408 87.1824 23.5434C86.8478 24.5378 86.7642 25.5323 86.4715 26.5267C86.3042 27.0653 86.1369 27.604 86.0115 28.1426C85.9279 28.3498 85.8442 29.3442 85.9279 29.2614C85.9279 29.3857 85.9279 29.4685 85.886 29.5514C85.886 29.51 85.886 29.4685 85.8442 29.4271C85.7188 29.4685 85.7188 30.7116 85.6769 30.9187C85.5097 31.4988 85.2588 32.0375 85.1751 32.7004C84.9661 34.4407 85.0915 36.471 86.1788 37.9626C86.8478 38.8742 87.8515 39.3714 88.9805 39.4542C90.1932 39.4957 90.8623 38.8327 91.4896 37.9212C91.9078 37.2996 92.2841 36.761 92.535 36.0566C92.7441 35.4765 93.1623 34.3578 92.9114 33.7777C92.7441 33.4048 92.6605 33.3634 92.3259 33.5291C91.8659 33.6948 91.3223 34.6893 91.0296 35.0622C90.6114 35.518 89.7751 36.6781 89.0642 36.761C88.646 36.8024 88.7296 36.7196 88.646 36.2224C88.6042 35.9323 88.6042 33.9849 88.646 33.9435C88.5205 34.1092 88.4787 34.2749 88.4369 34.4407C88.6042 33.0733 89.1896 31.416 89.6078 29.9657C90.1096 28.2669 90.486 26.5681 90.946 24.8693C91.4478 23.1291 92.1169 21.3888 92.8278 19.7314C92.995 19.3585 94.8768 15.2565 95.1695 14.8836C94.8768 15.0908 93.3714 18.2398 92.8696 19.2757C93.8732 16.9139 95.0441 14.635 96.5077 12.4804C96.5495 12.4804 96.0895 13.1848 96.1731 13.1848C96.2986 13.2677 97.3022 11.7346 97.2186 11.6932C97.1768 11.6932 97.135 11.6932 97.0931 11.7346C97.3022 11.5274 97.5531 11.4031 97.5113 10.9888ZM86.5969 30.6701C86.2206 32.3689 85.8024 34.6478 86.1369 36.3467C85.7606 34.4407 85.886 32.2861 86.2206 30.3801C86.4715 28.8056 86.9315 27.3554 87.4751 25.9052C87.0151 27.5625 86.9733 29.0128 86.5969 30.6701ZM79.6134 14.925C80.7843 12.1489 82.457 9.62143 84.2133 7.21823C82.457 9.7043 81.0352 12.3975 79.7807 15.1736C78.8189 17.3697 77.9407 19.4828 77.3134 21.6789C77.4389 21.0988 77.5644 20.5187 77.7734 19.9386C78.2753 18.2398 78.9443 16.5824 79.6134 14.925ZM78.6516 18.9442C79.4043 16.9139 80.2825 14.8836 81.2861 12.8948C80.3661 14.8007 79.1116 17.784 78.6516 18.9442ZM91.9078 21.6789C91.7823 22.0518 91.615 22.4247 91.4478 22.7562L92.2005 20.8502L91.9078 21.6789ZM81.8716 11.6932V11.6517V11.6932ZM85.0079 6.2238C85.0079 6.26524 84.9661 6.30667 84.9242 6.30667C84.9661 6.30667 85.0079 6.26524 85.0079 6.2238Z" fill="white"/>
<path d="M118.986 23.0876C118.735 23.1291 116.56 23.792 116.686 24.1235C116.686 24.1649 116.769 24.2064 116.811 24.2064C116.1 24.4964 115.18 24.5378 114.469 24.9936C113.675 25.5323 112.922 26.0709 112.086 26.5267C112.838 25.2422 113.549 23.8749 114.009 22.5075C114.177 22.0103 115.138 18.9442 114.511 18.6127C114.427 18.5713 114.386 18.9442 114.344 19.1514C114.386 17.494 113.842 14.9665 111.584 14.8007C110.204 14.7179 108.908 16.4167 108.155 17.3282C106.44 19.4828 104.935 21.8032 103.429 24.0406C103.011 24.6621 98.8295 31.3745 98.8295 31.3745C98.8295 31.3745 99.1223 30.9602 99.4986 30.4215C99.1223 31.043 98.7459 31.706 98.4114 32.3689C98.5786 31.7474 100.168 26.8167 101.171 23.9163C101.255 23.792 101.297 23.6263 101.339 23.502L101.59 22.7976V22.839C101.966 21.7203 102.342 20.6016 102.677 19.4414C102.677 19.5657 102.509 20.1872 102.551 20.1872C102.802 20.2287 103.137 18.4884 102.969 18.4884L102.844 18.6956C102.969 18.0741 103.179 17.784 102.802 17.0796C102.509 16.4581 102.008 15.878 101.297 15.7123C99.9168 15.3394 99.2477 16.4581 99.3313 17.5354C99.3313 17.7011 99.5404 17.784 99.5404 17.9498C99.5404 18.1569 99.3314 18.5298 99.2895 18.6956C98.9968 19.5657 98.7877 20.3944 98.4532 21.2231C98.2859 21.6789 96.7387 25.988 96.7387 25.988C96.8223 25.9466 96.8641 25.8637 96.9059 25.7809C96.7805 26.1538 96.655 26.5267 96.4878 26.8996C96.4459 26.8582 96.6132 26.5681 96.5296 26.5681C96.1114 26.4853 95.066 29.9657 94.9823 30.2972C94.8151 31.0845 94.606 31.8303 94.3132 32.6175C94.1878 33.0319 94.0205 33.4462 93.8951 33.902C93.8951 33.9435 93.686 34.9379 93.8951 34.565C93.8533 34.6893 93.8114 34.7721 93.8114 34.855C93.8114 34.8136 93.7696 34.7721 93.7696 34.7307C93.6442 34.7721 93.5605 35.6423 93.5605 35.6837C93.3933 36.1395 93.1842 36.471 92.9751 36.8853C92.4315 38.2112 92.1387 39.6614 91.9297 41.0702C91.5951 43.2248 90.5915 46.4567 91.6787 48.4455C92.0551 49.1499 93.226 50.6001 94.146 49.73C94.5642 49.3156 94.5642 48.3626 94.606 47.8654C94.8569 46.4981 95.066 45.0893 95.3587 43.722L95.735 41.816C95.7769 41.7331 96.1114 40.2001 95.9859 40.2415C95.9023 40.3244 95.8187 40.4487 95.7769 40.573C95.986 39.91 96.2787 39.2885 96.5296 38.5841C96.8641 37.5897 97.115 36.6367 97.6168 35.7251C98.2023 34.8136 98.7041 33.8192 99.2477 32.9076C99.6659 32.1618 100.042 31.2088 100.502 30.5873C100.628 30.4215 100.879 30.3387 101.088 30.1729C101.506 29.7171 101.799 29.0956 102.133 28.5984C102.76 27.604 103.304 26.6096 103.973 25.698C104.266 25.2837 107.611 20.643 107.946 20.353C107.862 20.3944 107.778 20.4358 107.695 20.5187C108.029 20.1043 108.406 19.7314 108.74 19.4C108.782 19.4414 108.489 19.69 108.531 19.7314C108.615 19.7729 110.538 18.2812 110.873 18.2398C111.793 18.0741 111.458 19.8143 111.333 20.2701C111.124 21.2231 110.58 22.1346 110.12 22.9633C109.869 23.4191 109.618 23.8334 109.409 24.2892C109.368 24.3307 109.033 25.1179 109.158 25.035L108.908 25.408C108.991 25.2837 109.033 25.1179 109.033 25.1179C108.866 25.1179 108.657 25.8223 108.615 25.9466C108.364 26.361 108.029 26.6924 107.695 27.0239C106.817 28.0183 106.022 29.0542 105.144 30.0072C104.475 30.7116 103.597 31.9546 102.593 32.2032C101.882 32.3689 101.339 31.996 101.715 33.1148C101.966 33.902 102.886 35.7251 103.889 35.7251C104.809 35.7251 105.939 34.3578 106.482 33.7777C107.109 33.0733 107.82 32.4104 108.489 31.6646C108.657 31.416 110.58 29.1371 110.873 29.0128H110.831C111.249 28.8056 111.668 28.9713 112.253 28.557C112.588 28.3084 112.755 28.0598 113.131 27.8112C113.424 27.6454 113.549 27.4382 113.675 27.3139C113.675 27.3139 113.675 27.3554 113.717 27.3554C114.135 26.941 114.72 27.0653 115.264 26.6924C115.933 26.2366 116.769 25.6566 117.355 25.1179C118.107 24.455 119.153 24.0821 119.487 22.9633C119.32 23.0048 119.111 23.0048 118.986 23.0876ZM97.575 27.3139V27.3554C97.5332 27.894 97.1568 28.5155 96.9478 29.0128C96.655 29.8 96.4041 30.5873 96.1532 31.3745C95.6096 33.0319 94.9823 34.6893 94.3132 36.2638C93.7696 37.5897 93.2678 39.0399 92.8915 40.4901C93.3514 38.4598 94.1042 36.471 94.6896 34.565C95.2332 32.8247 96.0696 31.1259 96.7387 29.4271C96.8223 29.2199 97.6168 27.5626 97.5332 27.2311C97.575 27.2725 97.575 27.3139 97.575 27.3139ZM99.415 28.557C99.2895 29.0542 99.1641 29.51 98.9968 29.9243C99.1223 29.51 99.2477 29.0128 99.415 28.557ZM105.144 21.7617L104.349 22.9219C104.6 22.549 104.851 22.1346 105.144 21.7617ZM111.96 26.7753C112.002 26.651 112.211 26.6096 112.337 26.5267L111.96 26.7753ZM101.966 21.9275C101.924 21.9689 101.882 22.0932 101.84 22.2589L101.966 21.9275ZM101.673 22.6318L101.84 22.2589L101.673 22.6318ZM103.848 23.6677V23.6263C103.889 23.5848 103.889 23.5848 103.889 23.5434C103.931 23.502 103.889 23.5848 103.848 23.6677ZM101.673 22.6318C101.673 22.7147 101.631 22.7562 101.59 22.7976L101.673 22.6318ZM92.8078 40.863C92.8078 40.8216 92.8078 40.8216 92.8496 40.7801C92.8496 40.8216 92.8496 40.8216 92.8078 40.863ZM99.6659 28.0598C99.6659 28.1012 99.6241 28.1012 99.6241 28.1012L99.6659 28.0598Z" fill="white"/>
<path d="M132.991 23.6263C132.865 23.0462 132.531 22.9633 132.112 23.1291C131.318 23.502 130.523 24.3307 129.771 24.8279C128.056 25.9052 126.342 26.7753 124.502 27.6869C124.502 27.6454 124.46 27.5625 124.418 27.4382C124.46 27.6454 124.418 27.7283 124.376 27.7697C123.958 25.988 123.54 24.2064 123.205 22.3832C123.372 23.1705 123.749 24.4964 124.042 25.6151C123.665 23.8749 123.205 21.7203 123.247 21.7203C123.163 21.7617 123.163 21.8446 123.163 21.9275C123.08 21.4303 122.954 20.8087 123.038 20.2701C123.08 19.6486 123.414 19.1099 123.623 18.5298C123.582 18.8199 123.498 19.1928 123.498 19.1928C123.749 19.2342 123.916 17.7011 123.916 17.5354C123.874 17.2868 123.331 16.4995 123.331 16.7067C122.202 15.6709 119.985 17.9498 119.651 18.9442C119.4 19.6071 119.4 20.3115 119.442 21.0159C119.483 21.7203 119.693 22.3418 119.902 23.0048C120.027 23.502 119.86 23.8334 119.902 24.3721C119.985 25.2008 120.278 26.0295 120.445 26.8167C120.613 27.4382 121.156 28.6813 121.031 29.2614C120.947 29.8414 119.693 30.3387 119.149 30.6701C118.438 31.1259 117.727 31.6646 117.016 32.2032C115.762 33.1562 114.424 34.3578 113.922 35.8909C113.838 36.098 113.545 37.0096 113.838 37.1753C113.88 37.2168 114.005 36.5124 114.047 36.4295C113.504 39.1642 116.222 40.4901 118.773 40.5315C121.658 40.6144 123.665 38.957 124.669 36.3881C125.087 35.2694 125.212 34.1092 125.171 32.949C125.171 32.1618 125.087 31.416 124.962 30.6701C124.878 30.0072 124.794 30.0486 125.254 29.6757C125.589 29.4271 126.091 29.2614 126.425 29.0956C127.763 28.3912 128.976 27.5625 130.189 26.6924C131.067 26.0709 133.158 24.9936 132.991 23.6677V23.6263ZM116.096 37.8797C115.009 37.5483 116.096 35.8494 116.473 35.3108C117.1 34.4821 118.02 33.8606 118.856 33.2805L120.111 32.4518C120.236 32.3689 121.031 31.7474 120.78 31.8303L121.282 31.5403L120.989 31.7889C121.073 31.7474 121.198 31.706 121.282 31.6231C121.323 32.6176 121.323 33.612 121.031 34.6064C120.989 34.7721 120.194 36.4295 119.86 36.761L120.069 36.5953C119.693 37.051 119.274 37.424 118.773 37.714C118.773 37.6726 119.149 37.424 119.107 37.3825L117.936 37.8383C117.351 37.9626 116.682 38.0869 116.096 37.8797ZM121.365 39.0813C120.278 39.5371 119.233 39.7443 118.103 39.7857C120.153 39.6614 122.285 38.667 123.498 36.9682C123.038 37.8797 122.453 38.5841 121.365 39.0813ZM124.418 27.3139C124.376 27.0239 124.292 26.6096 124.167 26.1538C124.251 26.6096 124.334 27.0653 124.418 27.3139ZM124.962 31.6231C124.92 31.5817 124.92 31.4988 124.92 31.416C124.92 31.4988 124.962 31.5817 124.962 31.6231Z" fill="white"/>
</svg>
