<svg width="200" height="75" viewBox="0 0 200 75" fill="none" xmlns="http://www.w3.org/2000/svg">
<path d="M5.91458 45.0729L5.85169 45.1351C5.91458 45.0729 5.91458 45.0729 5.91458 45.0108V44.7C6.60629 41.0331 7.92685 37.4283 9.2474 33.8856C10.6308 30.1565 11.9514 26.4896 13.7121 22.9469C15.3471 19.5907 17.2336 16.2967 19.3716 13.2513C21.2581 10.4544 23.522 7.409 26.4146 5.54445C27.295 5.29584 28.1753 4.36357 29.3072 4.55002C30.4391 4.73648 30.4391 5.91736 30.1876 7.03609C30.502 6.16597 30.6907 5.2337 29.9361 4.61218C28.9299 3.86636 26.9805 5.04724 26.1631 5.6066C25.7858 5.73091 25.4085 5.97951 25.094 6.22812C25.2827 6.04167 25.5342 5.85521 25.8486 5.66875L25.5342 5.79306L26.4146 5.29585C27.4207 4.73648 29.6845 3.49345 30.4391 5.10939C31.0051 6.41458 30.1247 8.58988 29.6845 9.83292C28.867 11.9461 27.8609 13.9349 26.7919 15.9238C26.9805 15.4887 27.7351 13.8106 27.7351 13.8106C27.295 13.7485 25.2827 18.3477 24.9054 18.472H24.9683C24.7167 18.6585 24.5281 18.8449 24.5281 18.9071C24.4023 19.6529 25.2827 19.4664 25.7858 19.4043C27.9238 19.1557 30.6907 17.3533 32.0741 15.7995C33.5833 14.1214 34.1493 11.5732 34.1493 9.3357V9.27355C34.0864 5.04724 31.1309 -0.297808 26.0373 0.01295C23.2075 0.137255 20.5664 2.87193 18.7428 4.73648C17.4223 6.22812 16.1646 7.84406 15.0327 9.46001C14.5296 10.2058 14.0265 10.8895 13.5864 11.6353C13.0833 12.319 12.0772 13.3756 11.8256 14.1835C11.8256 14.1835 12.14 13.8106 12.3916 13.562C11.6999 14.6186 11.071 15.7373 10.4422 16.7939C10.3793 16.7318 10.8195 15.8616 10.8195 15.8616C10.2535 15.7373 7.67531 20.8338 7.3609 21.3931C6.22899 23.4441 5.22286 25.4951 4.53114 27.6705C3.77654 30.0944 2.7704 32.394 2.0158 34.7557C1.6385 35.9366 1.2612 37.0554 1.00966 38.2362C0.883897 38.7956 0.75813 39.2928 0.695246 39.8522C0.695246 39.9143 0.569479 40.9088 0.695246 40.7845C0.569479 41.2195 0.569479 41.7789 0.506596 42.2139C0.506596 42.2139 0.506596 41.1574 0.569479 41.0331C0.317945 41.3438 0.506596 42.5247 0.443712 42.649C0.129295 45.0108 -0.373773 47.4968 0.443712 49.7964C1.51273 52.9662 4.15384 55.5766 7.04648 57.2547C8.55568 58.1869 10.568 59.2435 12.4545 59.1192C14.6554 58.9949 16.7934 57.1925 18.4284 55.8873C23.2075 51.9096 27.5465 46.316 28.364 39.9765C28.4269 39.5414 28.7413 37.3661 27.9867 37.304C27.295 37.2418 26.7919 38.7335 26.5404 39.1064C24.6539 42.1518 22.4529 45.0108 20.0005 47.6211C17.4851 50.3558 14.341 53.2769 10.5051 54.1471C10.002 54.2714 9.43605 54.3335 8.8701 54.3335C8.1155 54.2714 7.42378 54.0849 6.85783 53.5256C6.54341 53.2148 6.22899 52.1582 5.85169 51.9718C5.85169 51.661 5.78881 51.3502 5.72592 51.1638L5.53727 50.7909C5.47439 48.9263 5.53727 47.1861 5.85169 45.2594V45.1972C5.85169 45.1351 5.91458 45.1351 5.91458 45.0729ZM16.9821 14.6807C14.5296 18.6585 12.4545 22.7605 10.3793 26.9868C9.18452 29.4729 7.98973 32.0211 7.04648 34.6936C8.36703 30.5294 9.93912 26.5517 11.8256 22.574C14.0894 17.7883 17.1078 13.127 20.6922 9.27355C19.2459 11.0138 17.9882 13.0027 16.9821 14.6807ZM23.4591 7.84406C22.5787 8.71419 21.7612 9.70861 21.0066 10.6409C22.2014 9.0871 23.4591 7.53331 25.0312 6.29027C24.4652 6.78749 23.8993 7.409 23.4591 7.84406ZM29.8732 8.34128C29.9989 7.96837 30.1247 7.53331 30.1876 7.03609C30.0618 7.59546 29.8103 8.15482 29.8103 8.58988C29.8732 8.46558 29.8732 8.40343 29.8732 8.34128Z" fill="white"/>
<path d="M60.3103 34.5693C60.3103 34.5693 60.3731 34.6314 60.3103 34.5071C59.9958 34.0721 59.5557 34.3828 59.1155 34.5071C57.2918 34.88 55.4053 35.3151 53.5188 35.6259C54.2106 33.3884 54.9023 31.0266 55.1538 28.727C55.2796 27.8569 55.3425 26.9246 55.1538 26.0545C55.028 25.4951 54.8394 24.9358 54.525 24.4386C54.525 24.4386 53.7704 23.5063 53.959 24.0035L53.8961 23.9413L53.6446 23.4441L53.8961 23.6927C53.959 23.3198 52.89 22.6362 52.89 22.6362C51.3179 21.0824 49.1799 19.9015 47.0418 21.0824C45.7213 21.8282 44.6523 23.0712 43.7719 24.3143C43.4575 24.7493 43.1431 25.2465 42.8915 25.7437C42.64 26.241 42.2627 27.8569 41.8854 28.1055C41.571 28.3541 40.6277 28.4163 40.1875 28.6649C39.5587 28.9135 38.9928 29.2242 38.4897 29.5972C37.2949 30.343 36.3517 31.3996 35.4713 32.4561C33.9621 34.445 33.2075 36.6824 32.1385 38.6713C30.1262 42.4626 32.3271 47.4347 36.0372 49.2371C37.232 49.7965 38.6155 50.0451 39.8731 49.9207C41.1937 49.7343 42.4514 49.0506 43.4575 48.3048C44.4007 47.6211 46.4759 46.3781 46.8532 45.3215C46.8532 45.2594 46.7274 45.3215 46.5388 45.508L48.3624 43.3948C48.4253 43.457 47.9222 44.0785 47.9222 44.0785C48.3624 44.2649 50.6262 40.9709 50.8777 40.7223C51.3179 39.9765 51.7581 39.1685 52.2612 38.4227C52.7014 37.8633 52.5756 37.9255 53.2044 37.6769C53.1415 37.739 53.959 37.4904 54.0848 37.4904C54.7765 37.3661 62.1339 36.8689 60.3103 34.5693ZM38.5526 47.1239H38.4897C33.2704 47.8697 39.3072 36.9311 39.4329 36.3095L39.0556 36.8689C39.9989 35.0044 40.8793 33.5127 41.3194 33.0155C42.0112 36.1231 45.4069 37.304 48.1737 37.6769C46.3501 41.2817 42.9544 46.316 38.5526 47.1239ZM50.9406 29.9079C50.5004 31.6482 50.1231 33.9478 49.1799 35.5016C48.8655 36.1231 49.0541 35.9366 48.4253 36.0609C48.048 36.1852 47.2305 36.0609 46.8532 35.9988C46.1615 35.9366 45.344 35.8123 44.8409 35.3773C43.9606 34.6314 44.0863 33.4506 44.2121 32.394C44.3379 31.3374 44.6523 30.343 45.0296 29.3485C45.2182 28.9756 46.413 26.9868 46.2244 26.6139C46.1615 26.4274 45.4698 27.5462 45.4069 27.6083C45.7842 26.9246 46.1615 26.5517 46.4759 26.1167C46.413 26.1167 46.4759 26.0545 46.5388 25.9302V25.9924L46.6017 25.8681C46.6017 25.8681 46.6017 25.8059 46.6645 25.8059C47.6078 24.5629 49.9345 21.766 51.1922 23.6927C52.1354 25.3087 51.255 28.3541 50.9406 29.9079ZM46.6017 25.8681L46.6645 25.8059C46.6645 25.8681 46.6017 25.8681 46.6017 25.8681Z" fill="white"/>
<path d="M93.1118 34.88V34.8179C92.7346 32.7669 89.9048 36.1852 89.5275 36.496C87.7039 38.4848 86.006 40.6602 84.371 42.8355C82.7361 45.0729 81.164 47.3104 79.4661 49.5478C78.6487 50.6666 77.8312 51.7232 76.8879 52.7176C76.5735 53.0905 75.8189 54.1471 75.2529 54.1471C73.052 54.1471 74.7499 45.3837 75.0014 44.0163C75.3787 41.5924 75.5674 38.3605 77.1394 36.4338C77.5167 35.9366 81.7928 30.5294 81.7928 30.5294C81.6671 30.4673 81.164 31.0888 80.8496 31.4617L83.5536 27.8569L83.7422 27.6083H83.8051H83.7422L84.2453 26.9246C84.3082 26.9868 84.2453 27.1111 84.1824 27.2354L84.7483 26.6139L86.3833 24.5007C87.5781 22.8226 88.71 21.0202 89.779 19.28C91.4769 16.421 93.8036 12.319 92.5459 8.83849C91.6026 6.29027 88.1441 5.79306 85.8174 6.66318C84.1195 7.2847 82.6732 8.58988 81.4784 9.95722C80.8496 10.7652 80.2207 11.6353 79.6548 12.5676C79.4661 12.8162 78.6487 14.8051 78.46 15.0537H78.5229C78.1456 15.7373 77.7683 16.421 77.5167 17.1047C77.6425 16.6075 77.9569 15.613 78.2085 15.4266C77.7054 15.7995 77.2652 17.6019 77.1394 17.7883C74.7499 22.9469 72.6747 28.1677 71.1655 33.637C69.4677 31.7103 66.7637 28.4163 63.8081 29.5972C61.3557 30.5916 59.5321 33.1398 58.2744 35.3773C57.1425 37.3661 56.8281 39.4171 56.0106 41.3438C54.5643 44.6379 53.8726 51.4124 58.7775 52.4068C60.2867 52.7176 61.6701 51.7853 62.8649 50.9773C65.0029 49.4235 67.0152 47.6211 68.9017 45.7566C68.5873 49.0506 67.8956 54.0228 70.5996 56.6331C73.9324 59.9893 77.2652 55.4523 79.2775 52.9662C81.8557 49.7343 83.868 46.1295 86.4462 43.0219C87.7039 41.5303 88.9615 40.0386 90.2821 38.6713C91.2882 37.6769 93.3005 36.4338 93.1118 34.88ZM69.9707 38.9821C69.9079 39.1685 69.9078 39.2928 69.9078 39.2928C69.6563 40.7845 69.6563 42.0896 68.5873 43.1462C67.644 44.1407 66.6379 45.0729 65.6318 46.0052C64.6885 46.8753 62.4247 49.4235 60.9784 49.2992C59.2177 49.1128 60.5382 45.1351 61.4186 42.7112C60.4753 45.1972 58.9661 49.2371 61.0413 49.3614C61.6072 49.4235 62.5505 48.9263 63.368 48.2427C62.6134 48.9263 61.3557 49.8586 60.6011 49.4857C59.1548 48.8642 60.4124 45.3215 60.664 44.3271C61.4815 41.4681 62.6762 38.7335 64.0597 36.1231C64.7514 34.8179 65.7575 32.7047 67.0781 32.5804L66.7637 32.7669C66.8266 32.7047 66.8894 32.7047 66.9523 32.7047C67.3925 32.5804 67.8327 32.8912 68.1471 33.1398C68.9646 33.6992 69.4677 34.7557 70.0336 35.5637C70.6624 36.5581 70.2223 37.6147 69.9707 38.7335V38.9821ZM80.095 24.625C80.095 24.5629 80.095 24.4386 80.1579 24.3764V24.3143C80.2207 24.1278 80.2836 24.0657 80.2836 24.0657V24.0035C81.7299 20.0258 83.302 16.0481 85.5658 12.4433C86.1318 11.511 87.7668 8.65204 89.2131 9.46001C89.779 9.77077 89.9048 10.5787 89.9048 11.1381C90.1563 14.8672 87.1379 19.28 85.2514 22.2633C83.0505 25.7437 80.598 29.1621 78.0198 32.3318L79.4033 30.9023L80.6609 29.3485L77.4539 33.4506L77.0137 34.0099L76.7621 34.2585C76.825 33.8856 77.1394 33.5127 77.4539 33.0776C77.3281 33.202 77.2023 33.3263 77.1394 33.4506C77.9569 30.778 78.8373 28.1055 79.7805 25.433C79.7177 25.4951 79.7805 25.3708 79.8434 25.1222L80.0321 24.8115C80.0321 24.7493 80.0321 24.6872 80.095 24.625ZM74.8128 29.7215C74.687 30.0322 74.3097 31.4617 74.121 31.6482C74.121 31.7103 74.0582 31.7725 73.9953 31.7725C74.4983 31.1509 74.1839 30.343 74.4355 29.5972C74.5612 29.2242 75.1901 28.5406 75.3158 28.0434C75.3158 28.5406 75.0014 29.4107 74.8128 29.7215ZM64.8143 46.9375C66.3864 45.5701 67.8956 44.1407 69.3419 42.649C69.2161 43.457 67.2667 44.8243 66.575 45.4458C65.7575 46.2538 64.8143 47.0618 63.871 47.8076H63.8081L64.8143 46.9375ZM75.9447 24.0657C75.6931 24.8115 75.3787 25.4951 75.0014 26.1788C75.3158 25.2465 75.5045 24.3143 75.9447 23.4441C76.322 22.7605 76.7621 21.8903 77.0766 21.0824C76.7621 22.0768 76.2591 23.1334 75.9447 24.0657ZM80.0321 24.8115L79.7805 25.433C79.7805 25.3708 79.8434 25.2465 79.8434 25.1222L80.0321 24.8115ZM66.4493 33.0155C66.1977 33.202 66.0091 33.4506 65.9462 33.4506C66.072 33.4506 66.2606 33.202 66.4493 33.0155ZM68.21 32.8912C68.3358 32.9533 68.4615 33.0155 68.5873 33.1398L68.21 32.8912ZM80.6609 31.7725C80.6609 31.7103 80.7238 31.6482 80.7867 31.586C80.7238 31.7103 80.6609 31.7725 80.6609 31.7725ZM80.7867 31.586L80.8496 31.4617C80.8496 31.5239 80.7867 31.586 80.7867 31.586Z" fill="white"/>
<path d="M112.579 34.6936C112.579 34.7557 112.579 34.7557 112.516 34.6936V34.6314C111.51 32.9533 110.19 35.253 109.624 36.0609C108.555 37.4904 107.549 38.8578 106.417 40.1629C105.473 41.2817 104.467 42.4004 103.713 43.5813C103.713 43.7056 103.587 44.0163 103.587 44.0163C103.335 44.3893 102.958 44.7 102.644 45.0729C102.078 45.6323 101.512 46.2538 100.883 46.8132C99.9396 47.6833 94.6574 52.5933 93.9657 49.4235C93.5884 47.8697 94.0915 45.9431 94.4059 44.4514C94.5945 43.6434 94.7832 42.8976 94.9089 42.0896C95.0347 41.4681 94.8461 40.8466 95.1605 40.2251C95.3491 39.8522 95.412 39.9143 95.8522 39.79L96.9212 39.4171C97.6129 39.1685 98.3046 38.9199 98.9335 38.547C99.8767 37.9876 100.757 37.304 101.575 36.6203C103.524 35.0044 105.599 33.0776 106.417 30.6537C106.857 29.2864 106.92 27.7948 106.039 26.6139C105.222 25.5573 103.838 24.9979 102.581 24.7493C99.185 24.1278 96.6068 26.0545 94.6574 28.6027C92.2678 31.5239 90.57 35.1287 89.7525 38.7956C89.3123 40.598 89.0608 42.4004 88.7464 44.2649C88.4319 46.1295 88.2433 47.8698 89.2494 49.61C89.1865 48.9885 89.0608 48.4291 89.0608 47.8697C89.0608 47.559 89.1865 47.2482 89.1865 46.9996C89.1865 46.8753 89.0608 46.5024 89.0608 46.316C89.0608 45.7566 89.1865 45.3215 89.3123 44.7622C89.3752 44.2028 89.3123 43.6434 89.3752 43.0841C89.4381 42.4626 89.6896 41.9653 89.9411 41.406C90.1298 40.9088 90.1927 40.4737 90.3813 39.9765C90.57 39.5414 90.6957 39.0442 90.8844 38.547C90.9473 38.2362 91.2617 37.8633 91.4503 37.4904C91.2617 38.0498 90.8844 38.547 90.7586 39.0442C90.57 39.79 90.6957 40.598 90.6329 41.3438C90.5071 42.1518 90.2556 42.9598 90.1298 43.8299C90.004 44.6379 89.6267 45.3837 89.501 46.1917C89.3752 46.9375 89.1237 47.4968 89.1865 48.2427C89.1865 48.6777 89.2494 49.1128 89.3123 49.4857C89.3752 49.9829 89.6896 50.2937 90.004 50.6666C91.073 51.9096 92.5194 52.904 94.1543 53.3391C95.2862 53.6498 96.2924 53.5877 97.3614 53.0283C98.8706 52.2204 100.191 50.9773 101.323 49.7964C102.392 48.6156 103.21 47.3104 104.153 46.0673C105.033 44.9486 106.102 43.892 106.983 42.7733L110.378 38.4227L112.328 35.8745C112.642 35.5016 112.831 35.1908 112.579 34.6936ZM96.9841 35.3773C97.047 35.253 97.047 35.1908 97.047 35.1908C97.9902 33.202 98.6819 31.0888 100.003 29.1621L101.134 27.6705C101.386 27.3597 101.826 26.8003 102.266 26.676C103.21 26.4896 103.461 28.1055 103.398 28.727L103.147 30.0322C103.084 30.4051 103.21 30.6537 103.147 30.9645C103.021 31.3374 102.706 31.5239 102.518 31.8346L101.449 33.202C100.002 34.88 98.1789 36.3095 96.1666 37.3661C96.481 36.6824 96.6697 35.9988 96.9841 35.3773Z" fill="white"/>
<path d="M146.634 16.4831C146.382 14.4943 143.301 13.0027 141.603 14.1835C140.219 15.1158 138.962 17.664 137.956 19.1557L131.793 28.3541C130.85 29.7836 129.907 31.2131 128.9 32.5804C128.649 33.0155 126.259 36.6824 126.259 36.6824C126.511 36.7446 127.077 35.8745 127.203 35.7502C125.505 38.1119 123.304 40.598 121.229 42.9598C120.537 43.8299 116.387 49.2371 114.877 48.5534C114.374 48.3048 114.249 47.4968 114.186 47.0618C113.683 43.7677 114.94 40.4737 115.318 37.304L115.066 37.9255L115.443 36.3717C115.443 36.5581 115.38 36.7446 115.38 36.9311L115.443 36.5581L115.255 38.4227C116.135 34.6936 117.393 31.0888 118.839 27.6083C119.216 26.7382 122.864 17.7262 123.618 16.9182C123.492 16.9804 123.304 17.229 123.115 17.4776C124.31 15.3023 125.568 13.2513 127.014 11.2624C126.699 11.7596 126.134 12.6919 126.134 12.6919C126.385 12.754 128.9 9.3357 128.9 8.9628C128.9 8.90064 128.712 9.02495 128.523 9.14925C129.152 8.34128 129.592 7.90622 129.089 6.53888C128.334 4.98509 126.134 3.05838 124.31 3.99066C123.933 4.23927 123.681 4.55002 123.43 4.86078C122.109 6.53888 121.04 8.71419 120.16 10.5787C119.845 11.3246 119.594 11.4489 119.091 12.0082C118.273 12.9405 117.833 14.1835 117.267 15.2401C116.135 17.4776 115.255 19.8393 114.249 22.139C113.242 24.2521 112.425 26.4274 111.733 28.6649C111.419 29.535 111.167 30.4051 110.916 31.2752C110.664 32.1454 109.784 33.7613 109.91 34.6936L110.287 33.8856C109.972 34.9422 109.721 36.0609 109.469 37.1797C109.407 37.1797 109.532 36.3717 109.532 36.3717C109.281 36.3717 108.715 39.1064 108.589 39.4793C108.338 40.7845 108.149 42.0896 108.023 43.457C107.96 44.8865 108.023 46.1917 108.715 47.4968C110.035 49.7965 112.425 52.0339 115.003 52.8419C115.443 52.9662 115.946 53.0905 116.387 53.0283C116.827 52.9662 117.267 52.7797 117.581 52.469C117.833 52.3447 118.839 51.2881 118.147 51.7853L119.342 50.6666C119.342 50.6666 118.776 51.3502 118.588 51.4745C118.902 51.3502 119.594 50.418 119.594 50.418C121.669 48.1805 123.744 46.0052 125.63 43.5813C127.58 40.9709 129.341 38.1119 131.101 35.3151C130.598 36.8068 130.472 38.2984 130.032 39.79C129.781 40.598 129.529 41.406 129.341 42.2139C129.215 42.5247 129.089 44.0163 129.215 43.892C129.215 44.0785 129.215 44.2028 129.152 44.3271C129.152 44.2649 129.152 44.2028 129.089 44.1406C128.9 44.2028 128.9 46.0673 128.838 46.3781C128.586 47.2482 128.209 48.0562 128.083 49.0506C127.769 51.661 127.957 54.7064 129.592 56.9439C130.598 58.3112 132.107 59.057 133.805 59.1814C135.629 59.2435 136.635 58.2491 137.578 56.8817C138.207 55.9495 138.773 55.1415 139.15 54.0849C139.465 53.2148 140.094 51.5367 139.716 50.6666C139.465 50.1072 139.339 50.0451 138.836 50.2937C138.144 50.5423 137.327 52.0339 136.887 52.5933C136.258 53.2769 135 55.0172 133.931 55.1415C133.302 55.2036 133.428 55.0793 133.302 54.3335C133.239 53.8985 133.239 50.9773 133.302 50.9152C133.114 51.1638 133.051 51.4124 132.988 51.661C133.239 49.61 134.12 47.1239 134.749 44.9486C135.503 42.4004 136.069 39.8522 136.761 37.304C137.515 34.6936 138.522 32.0832 139.591 29.5972C139.842 29.0378 142.672 22.8848 143.112 22.3254C142.672 22.6362 140.408 27.3597 139.653 28.9135C141.163 25.3708 142.923 21.9525 145.124 18.7206C145.187 18.7206 144.496 19.7772 144.621 19.7772C144.81 19.9015 146.319 17.6019 146.193 17.5397C146.13 17.5397 146.068 17.5397 146.005 17.6019C146.319 17.2911 146.696 17.1047 146.634 16.4831ZM130.221 46.0052C129.655 48.5534 129.026 51.9718 129.529 54.52C128.963 51.661 129.152 48.4291 129.655 45.5701C130.032 43.2084 130.724 41.0331 131.542 38.8578C130.85 41.3438 130.787 43.5191 130.221 46.0052ZM119.719 22.3876C121.48 18.2234 123.995 14.4321 126.637 10.8273C123.995 14.5564 121.857 18.5963 119.971 22.7605C118.525 26.0545 117.204 29.2242 116.261 32.5183C116.449 31.6482 116.638 30.778 116.953 29.9079C117.707 27.3597 118.713 24.8736 119.719 22.3876ZM118.273 28.4163C119.405 25.3708 120.726 22.3254 122.235 19.3421C120.851 22.2011 118.965 26.676 118.273 28.4163ZM138.207 32.5183C138.019 33.0776 137.767 33.637 137.515 34.1342L138.647 31.2752L138.207 32.5183ZM123.115 17.5397V17.4776V17.5397ZM127.831 9.3357C127.831 9.39786 127.769 9.46001 127.706 9.46001C127.769 9.46001 127.831 9.39786 127.831 9.3357Z" fill="white"/>
<path d="M178.926 34.6314C178.548 34.6936 175.278 35.688 175.467 36.1852C175.467 36.2474 175.593 36.3095 175.656 36.3095C174.587 36.7446 173.203 36.8067 172.134 37.4904C170.939 38.2984 169.808 39.1064 168.55 39.79C169.682 37.8633 170.751 35.8123 171.443 33.7613C171.694 33.0155 173.14 28.4163 172.197 27.9191C172.071 27.8569 172.008 28.4163 171.946 28.727C172.008 26.241 171.191 22.4497 167.795 22.2011C165.72 22.0768 163.771 24.625 162.639 25.9924C160.061 29.2242 157.797 32.7047 155.533 36.0609C154.904 36.9932 148.616 47.0618 148.616 47.0618C148.616 47.0618 149.056 46.4403 149.622 45.6323C149.056 46.5646 148.49 47.559 147.987 48.5534C148.239 47.6211 150.628 40.2251 152.137 35.8745C152.263 35.688 152.326 35.4394 152.389 35.253L152.766 34.1964V34.2585C153.332 32.5804 153.898 30.9023 154.401 29.1621C154.401 29.3485 154.15 30.2808 154.212 30.2808C154.59 30.343 155.093 27.7326 154.841 27.7326L154.653 28.0434C154.841 27.1111 155.156 26.676 154.59 25.6194C154.15 24.6872 153.395 23.817 152.326 23.5684C150.251 23.0091 149.245 24.6872 149.37 26.3031C149.37 26.5517 149.685 26.676 149.685 26.9246C149.685 27.2354 149.37 27.7948 149.308 28.0434C148.867 29.3485 148.553 30.5916 148.05 31.8346C147.798 32.5183 145.472 38.9821 145.472 38.9821C145.597 38.9199 145.66 38.7956 145.723 38.6713C145.535 39.2307 145.346 39.79 145.094 40.3494C145.031 40.2872 145.283 39.8522 145.157 39.8522C144.528 39.7279 142.956 44.9486 142.831 45.4458C142.579 46.6267 142.265 47.7454 141.824 48.9263C141.636 49.5478 141.384 50.1694 141.196 50.853C141.196 50.9152 140.881 52.4068 141.196 51.8475C141.133 52.0339 141.07 52.1582 141.07 52.2825C141.07 52.2204 141.007 52.1582 141.007 52.0961C140.818 52.1582 140.693 53.4634 140.693 53.5256C140.441 54.2092 140.127 54.7064 139.812 55.3279C138.995 57.3168 138.555 59.4921 138.24 61.6053C137.737 64.8372 136.228 69.685 137.863 72.6683C138.429 73.7248 140.189 75.9002 141.573 74.595C142.202 73.9734 142.202 72.544 142.265 71.7981C142.642 69.7471 142.956 67.634 143.397 65.583L143.962 62.724C144.025 62.5997 144.528 60.3001 144.34 60.3622C144.214 60.4865 144.088 60.673 144.025 60.8594C144.34 59.865 144.78 58.9327 145.157 57.8762C145.66 56.3845 146.038 54.955 146.792 53.5877C147.673 52.2204 148.427 50.7287 149.245 49.3614C149.874 48.2427 150.439 46.8132 151.131 45.8809C151.32 45.6323 151.697 45.508 152.012 45.2594C152.64 44.5757 153.081 43.6434 153.584 42.8976C154.527 41.406 155.344 39.9143 156.351 38.547C156.791 37.9255 161.821 30.9645 162.324 30.5294C162.199 30.5916 162.073 30.6537 161.947 30.778C162.45 30.1565 163.016 29.5972 163.519 29.0999C163.582 29.1621 163.142 29.535 163.205 29.5972C163.331 29.6593 166.223 27.4218 166.726 27.3597C168.11 27.1111 167.607 29.7215 167.418 30.4051C167.104 31.8346 166.286 33.202 165.594 34.445C165.217 35.1287 164.84 35.7502 164.525 36.4338C164.462 36.496 163.959 37.6769 164.148 37.5526L163.771 38.1119C163.897 37.9255 163.959 37.6769 163.959 37.6769C163.708 37.6769 163.393 38.7335 163.331 38.9199C162.953 39.5414 162.45 40.0386 161.947 40.5359C160.627 42.0275 159.432 43.5813 158.111 45.0108C157.105 46.0673 155.785 47.9319 154.275 48.3048C153.206 48.5534 152.389 47.994 152.955 49.6721C153.332 50.853 154.716 53.5877 156.225 53.5877C157.608 53.5877 159.306 51.5367 160.124 50.6666C161.067 49.61 162.136 48.6156 163.142 47.4968C163.393 47.1239 166.286 43.7056 166.726 43.5191H166.663C167.292 43.2084 167.921 43.457 168.801 42.8355C169.305 42.4626 169.556 42.0896 170.122 41.7167C170.562 41.4681 170.751 41.1574 170.939 40.9709C170.939 40.9709 170.939 41.0331 171.002 41.0331C171.631 40.4115 172.512 40.598 173.329 40.0386C174.335 39.355 175.593 38.4848 176.473 37.6769C177.605 36.6824 179.177 36.1231 179.68 34.445C179.429 34.5071 179.114 34.5071 178.926 34.6314ZM146.729 40.9709V41.0331C146.666 41.841 146.101 42.7733 145.786 43.5191C145.346 44.7 144.969 45.8809 144.591 47.0618C143.774 49.5478 142.831 52.0339 141.824 54.3957C141.007 56.3845 140.252 58.5598 139.686 60.7351C140.378 57.6897 141.51 54.7064 142.39 51.8475C143.208 49.2371 144.466 46.6889 145.472 44.1406C145.597 43.8299 146.792 41.3438 146.666 40.8466C146.729 40.9088 146.729 40.9709 146.729 40.9709ZM149.496 42.8355C149.308 43.5813 149.119 44.265 148.867 44.8865C149.056 44.265 149.245 43.5191 149.496 42.8355ZM158.111 32.6426L156.916 34.3828C157.294 33.8235 157.671 33.202 158.111 32.6426ZM168.361 40.1629C168.424 39.9765 168.739 39.9143 168.927 39.79L168.361 40.1629ZM153.332 32.8912C153.269 32.9533 153.206 33.1398 153.143 33.3884L153.332 32.8912ZM152.892 33.9478L153.143 33.3884L152.892 33.9478ZM156.162 35.5016V35.4394C156.225 35.3773 156.225 35.3773 156.225 35.3151C156.288 35.253 156.225 35.3773 156.162 35.5016ZM152.892 33.9478C152.892 34.0721 152.829 34.1342 152.766 34.1964L152.892 33.9478ZM139.561 61.2945C139.561 61.2324 139.561 61.2324 139.624 61.1702C139.624 61.2324 139.624 61.2324 139.561 61.2945ZM149.874 42.0896C149.874 42.1518 149.811 42.1518 149.811 42.1518L149.874 42.0896Z" fill="white"/>
<path d="M199.986 35.4394C199.797 34.5693 199.294 34.445 198.665 34.6936C197.47 35.253 196.276 36.496 195.144 37.2418C192.566 38.8578 189.987 40.1629 187.22 41.5303C187.22 41.4681 187.158 41.3438 187.095 41.1574C187.158 41.4681 187.095 41.5924 187.032 41.6546C186.403 38.9821 185.774 36.3095 185.271 33.5749C185.523 34.7557 186.089 36.7446 186.529 38.4227C185.963 35.8123 185.271 32.5804 185.334 32.5804C185.208 32.6426 185.208 32.7669 185.208 32.8912C185.082 32.1454 184.894 31.2131 185.019 30.4051C185.082 29.4728 185.585 28.6649 185.9 27.7948C185.837 28.2298 185.711 28.7892 185.711 28.7892C186.089 28.8513 186.34 26.5517 186.34 26.3031C186.277 25.9302 185.46 24.7493 185.46 25.0601C183.762 23.5063 180.429 26.9246 179.926 28.4163C179.549 29.4107 179.549 30.4673 179.612 31.5239C179.674 32.5804 179.989 33.5127 180.303 34.5071C180.492 35.253 180.24 35.7502 180.303 36.5581C180.429 37.8012 180.869 39.0442 181.121 40.2251C181.372 41.1574 182.19 43.0219 182.001 43.892C181.875 44.7622 179.989 45.508 179.171 46.0052C178.102 46.6889 177.033 47.4968 175.964 48.3048C174.078 49.7343 172.065 51.5367 171.311 53.8363C171.185 54.1471 170.745 55.5144 171.185 55.763C171.248 55.8252 171.437 54.7686 171.5 54.6443C170.682 58.7463 174.769 60.7351 178.605 60.7973C182.944 60.9216 185.963 58.4355 187.472 54.5821C188.101 52.904 188.289 51.1638 188.227 49.4235C188.227 48.2427 188.101 47.1239 187.912 46.0052C187.786 45.0108 187.661 45.0729 188.352 44.5136C188.855 44.1406 189.61 43.892 190.113 43.6434C192.125 42.5869 193.949 41.3438 195.773 40.0386C197.093 39.1064 200.237 37.4904 199.986 35.5016V35.4394ZM174.581 56.8196C172.946 56.3224 174.581 53.7742 175.147 52.9662C176.09 51.7232 177.473 50.7909 178.731 49.9207L180.618 48.6777C180.806 48.5534 182.001 47.6211 181.624 47.7454L182.378 47.3104L181.938 47.6833C182.064 47.6211 182.253 47.559 182.378 47.4347C182.441 48.9263 182.441 50.418 182.001 51.9096C181.938 52.1582 180.743 54.6443 180.24 55.1415L180.555 54.8929C179.989 55.5766 179.36 56.1359 178.605 56.571C178.605 56.5088 179.171 56.1359 179.108 56.0738L177.348 56.7574C176.467 56.9439 175.461 57.1303 174.581 56.8196ZM182.504 58.622C180.869 59.3057 179.297 59.6164 177.599 59.6786C180.681 59.4921 183.888 58.0005 185.711 55.4523C185.02 56.8196 184.139 57.8762 182.504 58.622ZM187.095 40.9709C187.032 40.5359 186.906 39.9143 186.717 39.2307C186.843 39.9143 186.969 40.598 187.095 40.9709ZM187.912 47.4347C187.849 47.3725 187.849 47.2482 187.849 47.1239C187.849 47.2482 187.912 47.3725 187.912 47.4347Z" fill="white"/>
</svg>
